<?xml version="1.0" encoding="UTF-8" standalone="no"?>
<svg
   width="408.10001mm"
   height="181.09599mm"
   viewBox="0 0 408.10001 181.096"
   version="1.1"
   preserveAspectRatio="xMidYMid"
   id="svg6881"
   sodipodi:docname="6mm.svg"
   inkscape:version="1.2.2 (b0a8486541, 2022-12-01)"
   xml:space="preserve"
   xmlns:inkscape="http://www.inkscape.org/namespaces/inkscape"
   xmlns:sodipodi="http://sodipodi.sourceforge.net/DTD/sodipodi-0.dtd"
   xmlns="http://www.w3.org/2000/svg"
   xmlns:svg="http://www.w3.org/2000/svg"><defs
     id="defs6885" /><sodipodi:namedview
     id="namedview6883"
     pagecolor="#ffffff"
     bordercolor="#000000"
     borderopacity="0.25"
     inkscape:showpageshadow="2"
     inkscape:pageopacity="0.0"
     inkscape:pagecheckerboard="0"
     inkscape:deskcolor="#d1d1d1"
     inkscape:document-units="mm"
     showgrid="false"
     inkscape:zoom="1"
     inkscape:cx="765"
     inkscape:cy="237"
     inkscape:window-width="2560"
     inkscape:window-height="1355"
     inkscape:window-x="0"
     inkscape:window-y="0"
     inkscape:window-maximized="1"
     inkscape:current-layer="svg6881" /><path
     id="path2554"
     style="display:inline;vector-effect:non-scaling-stroke;fill:none;fill-opacity:1;fill-rule:evenodd;stroke:#ff0000;stroke-width:0.264583;stroke-dasharray:none;-inkscape-stroke:hairline"
     inkscape:label="Top-Left Corner"
     d="m 35.441913,47.356108 h -7.57709 c -4.1124,0 -7.42311,3.262951 -7.42311,7.316034 l 2e-4,-17.311971 11.99999,-1e-6 10e-6,3 h 3 z m -12.99939,-5.042271 a 2.4576271,2.4576271 0 0 0 2.45762,2.457627 2.4576271,2.4576271 0 0 0 2.45763,-2.457627 2.4576271,2.4576271 0 0 0 -2.45763,-2.457627 2.4576271,2.4576271 0 0 0 -2.45762,2.457627 z" /><path
     id="path8603"
     style="display:inline;vector-effect:non-scaling-stroke;fill:none;fill-opacity:1;fill-rule:evenodd;stroke:#ff0000;stroke-width:0.264583;stroke-dasharray:none;-inkscape-stroke:hairline"
     inkscape:label="Top-Right Corner"
     d="m 40.791573,37.36017 12,1e-6 -1.1e-4,17.311971 c 0,-4.053083 -3.31071,-7.316034 -7.42311,-7.316034 h -7.57678 V 40.36017 h 3 z m 5.08362,4.953667 a 2.4576271,2.4576271 0 0 0 2.45763,2.457627 2.4576271,2.4576271 0 0 0 2.45763,-2.457627 2.4576271,2.4576271 0 0 0 -2.45763,-2.457627 2.4576271,2.4576271 0 0 0 -2.45763,2.457627 z" /><path
     id="path2554-2"
     style="display:inline;vector-effect:non-scaling-stroke;fill:none;fill-opacity:1;fill-rule:evenodd;stroke:#ff0000;stroke-width:0.264583;stroke-dasharray:none;-inkscape-stroke:hairline"
     inkscape:label="Top-Left Corner"
     d="m 72.49707,47.356108 h -7.57709 c -4.1124,0 -7.42311,3.262951 -7.42311,7.316034 l 2e-4,-17.311971 11.99999,-1e-6 10e-6,3 h 3 z M 59.49768,42.313837 a 2.4576271,2.4576271 0 0 0 2.45762,2.457627 2.4576271,2.4576271 0 0 0 2.45763,-2.457627 2.4576271,2.4576271 0 0 0 -2.45763,-2.457627 2.4576271,2.4576271 0 0 0 -2.45762,2.457627 z" /><path
     id="path8603-6"
     style="display:inline;vector-effect:non-scaling-stroke;fill:none;fill-opacity:1;fill-rule:evenodd;stroke:#ff0000;stroke-width:0.264583;stroke-dasharray:none;-inkscape-stroke:hairline"
     inkscape:label="Top-Right Corner"
     d="m 77.84673,37.36017 12,1e-6 -1.1e-4,17.311971 c 0,-4.053083 -3.31071,-7.316034 -7.42311,-7.316034 H 74.84673 V 40.36017 h 3 z m 5.08362,4.953667 a 2.4576271,2.4576271 0 0 0 2.45763,2.457627 2.4576271,2.4576271 0 0 0 2.45763,-2.457627 2.4576271,2.4576271 0 0 0 -2.45763,-2.457627 2.4576271,2.4576271 0 0 0 -2.45763,2.457627 z" /><path
     id="path2554-1"
     style="display:inline;vector-effect:non-scaling-stroke;fill:none;fill-opacity:1;fill-rule:evenodd;stroke:#ff0000;stroke-width:0.264583;stroke-dasharray:none;-inkscape-stroke:hairline"
     inkscape:label="Top-Left Corner"
     d="m 109.55228,47.356108 h -7.57713 c -4.112413,0 -7.423123,3.262951 -7.423123,7.316034 l 2e-4,-17.311971 12.000023,-1e-6 1e-5,3 h 3.00002 z M 96.552837,42.313837 a 2.4576271,2.4576271 0 0 0 2.45762,2.457627 2.4576271,2.4576271 0 0 0 2.457633,-2.457627 2.4576271,2.4576271 0 0 0 -2.457633,-2.457627 2.4576271,2.4576271 0 0 0 -2.45762,2.457627 z" /><path
     id="path8603-8"
     style="display:inline;vector-effect:non-scaling-stroke;fill:none;fill-opacity:1;fill-rule:evenodd;stroke:#ff0000;stroke-width:0.264583;stroke-dasharray:none;-inkscape-stroke:hairline"
     inkscape:label="Top-Right Corner"
     d="m 114.90194,37.36017 12,1e-6 -1.1e-4,17.311971 c 0,-4.053083 -3.31071,-7.316034 -7.42311,-7.316034 h -7.57678 V 40.36017 h 3 z m 5.08362,4.953667 a 2.4576271,2.4576271 0 0 0 2.45763,2.457627 2.4576271,2.4576271 0 0 0 2.45763,-2.457627 2.4576271,2.4576271 0 0 0 -2.45763,-2.457627 2.4576271,2.4576271 0 0 0 -2.45763,2.457627 z" /><path
     id="path2554-1-2"
     style="display:inline;vector-effect:non-scaling-stroke;fill:none;fill-opacity:1;fill-rule:evenodd;stroke:#ff0000;stroke-width:0.264583;stroke-dasharray:none;-inkscape-stroke:hairline"
     inkscape:label="Top-Left Corner"
     d="m 146.60744,47.356108 h -7.57709 c -4.1124,0 -7.42311,3.262951 -7.42311,7.316034 l 2e-4,-17.311971 11.99999,-1e-6 1e-5,3 h 3 z m -12.99939,-5.042271 a 2.4576271,2.4576271 0 0 0 2.45762,2.457627 2.4576271,2.4576271 0 0 0 2.45763,-2.457627 2.4576271,2.4576271 0 0 0 -2.45763,-2.457627 2.4576271,2.4576271 0 0 0 -2.45762,2.457627 z" /><path
     id="path8603-8-0"
     style="display:inline;vector-effect:non-scaling-stroke;fill:none;fill-opacity:1;fill-rule:evenodd;stroke:#ff0000;stroke-width:0.264583;stroke-dasharray:none;-inkscape-stroke:hairline"
     inkscape:label="Top-Right Corner"
     d="m 151.9571,37.36017 12,1e-6 -1.1e-4,17.311971 c 0,-4.053083 -3.31071,-7.316034 -7.42311,-7.316034 H 148.9571 V 40.36017 h 3 z m 5.08362,4.953667 a 2.4576271,2.4576271 0 0 0 2.45763,2.457627 2.4576271,2.4576271 0 0 0 2.45763,-2.457627 2.4576271,2.4576271 0 0 0 -2.45763,-2.457627 2.4576271,2.4576271 0 0 0 -2.45763,2.457627 z" /><path
     id="path2554-1-23"
     style="display:inline;vector-effect:non-scaling-stroke;fill:none;fill-opacity:1;fill-rule:evenodd;stroke:#ff0000;stroke-width:0.264583;stroke-dasharray:none;-inkscape-stroke:hairline"
     inkscape:label="Top-Left Corner"
     d="m 183.6626,47.356108 h -7.57709 c -4.11239,0 -7.42311,3.262951 -7.42311,7.316034 l 2e-4,-17.311971 12,-1e-6 v 3 h 3 z m -12.99939,-5.042271 a 2.4576271,2.4576271 0 0 0 2.45762,2.457627 2.4576271,2.4576271 0 0 0 2.45763,-2.457627 2.4576271,2.4576271 0 0 0 -2.45763,-2.457627 2.4576271,2.4576271 0 0 0 -2.45762,2.457627 z" /><path
     id="path8603-8-7"
     style="display:inline;vector-effect:non-scaling-stroke;fill:none;fill-opacity:1;fill-rule:evenodd;stroke:#ff0000;stroke-width:0.264583;stroke-dasharray:none;-inkscape-stroke:hairline"
     inkscape:label="Top-Right Corner"
     d="m 189.01226,37.36017 12,1e-6 -1.1e-4,17.311971 c 0,-4.053083 -3.31071,-7.316034 -7.42311,-7.316034 h -7.57678 V 40.36017 h 3 z m 5.08362,4.953667 a 2.4576271,2.4576271 0 0 0 2.45763,2.457627 2.4576271,2.4576271 0 0 0 2.45763,-2.457627 2.4576271,2.4576271 0 0 0 -2.45763,-2.457627 2.4576271,2.4576271 0 0 0 -2.45763,2.457627 z" /><path
     id="path8611"
     style="display:inline;vector-effect:non-scaling-stroke;fill:none;fill-opacity:1;fill-rule:evenodd;stroke:#ff0000;stroke-width:0.264583;stroke-dasharray:none;-inkscape-stroke:hairline"
     inkscape:label="Right Panel"
     d="m 207.86168,156.74 v 2.49602 c 0,4.155 3.345,7.5 7.5,7.5 h 164.00001 c 4.155,0 7.49999,-3.345 7.49999,-7.5 V 156.74 Z m 164.54634,7.49918 a 2.4576271,2.4576271 0 0 1 -2.45763,-2.45762 2.4576271,2.4576271 0 0 1 2.45763,-2.45763 2.4576271,2.4576271 0 0 1 2.45762,2.45763 2.4576271,2.4576271 0 0 1 -2.45762,2.45762 z m -150.09201,0 a 2.4576271,2.4576271 0 0 1 -2.45763,-2.45762 2.4576271,2.4576271 0 0 1 2.45763,-2.45763 2.4576271,2.4576271 0 0 1 2.45763,2.45763 2.4576271,2.4576271 0 0 1 -2.45763,2.45762 z" /><path
     id="path8619"
     style="display:inline;vector-effect:non-scaling-stroke;fill:none;fill-opacity:1;fill-rule:evenodd;stroke-width:0.264583;stroke-dasharray:none;-inkscape-stroke:hairline;stroke:#ff0000"
     inkscape:label="Bottom Panel"
     transform="translate(-590.95423,0.0500001)"
     d="m 987.00418,161.68801 c 0,4.05308 -3.31071,7.31603 -7.42311,7.31603 H 608.4192 c -4.1124,0 -7.42311,-3.26295 -7.42311,-7.31603 L 600.9961,179 h 95.25409 97.75 193.00399 z m -379.09183,12.35766 a 2.4576271,2.4576271 0 0 1 -2.45763,2.45763 2.4576271,2.4576271 0 0 1 -2.45763,-2.45763 2.4576271,2.4576271 0 0 1 2.45763,-2.45763 2.4576271,2.4576271 0 0 1 2.45763,2.45763 z m 377.091,0 a 2.4576271,2.4576271 0 0 1 -2.45762,2.45763 2.4576271,2.4576271 0 0 1 -2.45763,-2.45763 2.4576271,2.4576271 0 0 1 2.45763,-2.45763 2.4576271,2.4576271 0 0 1 2.45762,2.45763 z" /><path
     id="path8627"
     style="display:inline;vector-effect:non-scaling-stroke;fill:none;fill-opacity:1;fill-rule:evenodd;stroke:#ff0000;stroke-width:0.264583;stroke-dasharray:none;-inkscape-stroke:hairline"
     inkscape:label="Left Panel"
     d="m 18.136014,156.74011 v 2.49591 c 0,4.155 3.345,7.5 7.5,7.5 H 189.63603 c 4.155,0 7.5,-3.345 7.5,-7.5 v -2.49591 z m 14.45367,2.58375 a 2.4576271,2.4576271 0 0 1 2.45763,2.45763 2.4576271,2.4576271 0 0 1 -2.45763,2.45763 2.4576271,2.4576271 0 0 1 -2.45763,-2.45763 2.4576271,2.4576271 0 0 1 2.45763,-2.45763 z m 150.092016,0 a 2.4576271,2.4576271 0 0 1 2.45763,2.45763 2.4576271,2.4576271 0 0 1 -2.45763,2.45763 2.4576271,2.4576271 0 0 1 -2.45763,-2.45763 2.4576271,2.4576271 0 0 1 2.45763,-2.45763 z" /><path
     id="path8611-3"
     style="display:inline;vector-effect:non-scaling-stroke;fill:none;fill-opacity:1;fill-rule:evenodd;stroke:#ff0000;stroke-width:0.264583;stroke-dasharray:none;-inkscape-stroke:hairline"
     inkscape:label="Right Panel"
     d="m 207.86168,131.44567 v 2.49602 c 0,4.155 3.345,7.5 7.5,7.5 h 164.00001 c 4.155,0 7.49999,-3.345 7.49999,-7.5 v -2.49602 z m 164.54634,7.49918 a 2.4576271,2.4576271 0 0 1 -2.45763,-2.45762 2.4576271,2.4576271 0 0 1 2.45763,-2.45763 2.4576271,2.4576271 0 0 1 2.45762,2.45763 2.4576271,2.4576271 0 0 1 -2.45762,2.45762 z m -150.09201,0 a 2.4576271,2.4576271 0 0 1 -2.45763,-2.45762 2.4576271,2.4576271 0 0 1 2.45763,-2.45763 2.4576271,2.4576271 0 0 1 2.45763,2.45763 2.4576271,2.4576271 0 0 1 -2.45763,2.45762 z" /><path
     id="path8619-6"
     style="display:inline;vector-effect:non-scaling-stroke;fill:none;fill-opacity:1;fill-rule:evenodd;stroke:#ff0000;stroke-width:0.264583;stroke-dasharray:none;-inkscape-stroke:hairline"
     inkscape:label="Bottom Panel"
     d="m 396.04995,136.44367 c 0,4.05308 -3.31071,7.31604 -7.42311,7.31604 H 17.46497 c -4.1124,0 -7.42311,-3.26295 -7.42311,-7.31604 l 10e-6,17.31199 h 95.25409 97.75 193.00399 z M 16.95812,148.80134 a 2.4576271,2.4576271 0 0 1 -2.45763,2.45763 2.4576271,2.4576271 0 0 1 -2.45763,-2.45763 2.4576271,2.4576271 0 0 1 2.45763,-2.45763 2.4576271,2.4576271 0 0 1 2.45763,2.45763 z m 377.091,0 a 2.4576271,2.4576271 0 0 1 -2.45762,2.45763 2.4576271,2.4576271 0 0 1 -2.45763,-2.45763 2.4576271,2.4576271 0 0 1 2.45763,-2.45763 2.4576271,2.4576271 0 0 1 2.45762,2.45763 z" /><path
     id="path8627-7"
     style="display:inline;vector-effect:non-scaling-stroke;fill:none;fill-opacity:1;fill-rule:evenodd;stroke:#ff0000;stroke-width:0.264583;stroke-dasharray:none;-inkscape-stroke:hairline"
     inkscape:label="Left Panel"
     d="m 18.136013,131.44577 v 2.49592 c 0,4.155 3.345,7.5 7.5,7.5 H 189.63603 c 4.155,0 7.5,-3.345 7.5,-7.5 v -2.49592 z m 14.45367,2.58376 a 2.4576271,2.4576271 0 0 1 2.45763,2.45762 2.4576271,2.4576271 0 0 1 -2.45763,2.45763 2.4576271,2.4576271 0 0 1 -2.45763,-2.45763 2.4576271,2.4576271 0 0 1 2.45763,-2.45762 z m 150.092017,0 a 2.4576271,2.4576271 0 0 1 2.45763,2.45762 2.4576271,2.4576271 0 0 1 -2.45763,2.45763 2.4576271,2.4576271 0 0 1 -2.45763,-2.45763 2.4576271,2.4576271 0 0 1 2.45763,-2.45762 z" /><path
     id="path8611-5"
     style="display:inline;vector-effect:non-scaling-stroke;fill:none;fill-opacity:1;fill-rule:evenodd;stroke:#ff0000;stroke-width:0.264583;stroke-dasharray:none;-inkscape-stroke:hairline"
     inkscape:label="Right Panel"
     d="m 207.86168,104.85761 v 2.49602 c 0,4.155 3.345,7.5 7.5,7.5 h 164.00001 c 4.155,0 7.49999,-3.345 7.49999,-7.5 v -2.49602 z m 164.54634,7.49918 a 2.4576271,2.4576271 0 0 1 -2.45763,-2.45762 2.4576271,2.4576271 0 0 1 2.45763,-2.45763 2.4576271,2.4576271 0 0 1 2.45762,2.45763 2.4576271,2.4576271 0 0 1 -2.45762,2.45762 z m -150.09201,0 a 2.4576271,2.4576271 0 0 1 -2.45763,-2.45762 2.4576271,2.4576271 0 0 1 2.45763,-2.45763 2.4576271,2.4576271 0 0 1 2.45763,2.45763 2.4576271,2.4576271 0 0 1 -2.45763,2.45762 z" /><path
     id="path8619-3"
     style="display:inline;vector-effect:non-scaling-stroke;fill:none;fill-opacity:1;fill-rule:evenodd;stroke:#ff0000;stroke-width:0.264583;stroke-dasharray:none;-inkscape-stroke:hairline"
     inkscape:label="Bottom Panel"
     d="m 396.04995,109.85562 c 0,4.05308 -3.31071,7.31603 -7.42311,7.31603 H 17.46497 c -4.1124,0 -7.42311,-3.26295 -7.42311,-7.31603 l 10e-6,17.31199 h 95.25409 97.75 193.00399 z M 16.95812,122.21328 a 2.4576271,2.4576271 0 0 1 -2.45763,2.45763 2.4576271,2.4576271 0 0 1 -2.45763,-2.45763 2.4576271,2.4576271 0 0 1 2.45763,-2.45763 2.4576271,2.4576271 0 0 1 2.45763,2.45763 z m 377.091,0 a 2.4576271,2.4576271 0 0 1 -2.45762,2.45763 2.4576271,2.4576271 0 0 1 -2.45763,-2.45763 2.4576271,2.4576271 0 0 1 2.45763,-2.45763 2.4576271,2.4576271 0 0 1 2.45762,2.45763 z" /><path
     id="path8627-5"
     style="display:inline;vector-effect:non-scaling-stroke;fill:none;fill-opacity:1;fill-rule:evenodd;stroke:#ff0000;stroke-width:0.264583;stroke-dasharray:none;-inkscape-stroke:hairline"
     inkscape:label="Left Panel"
     d="m 18.136015,104.85772 v 2.49591 c 0,4.155 3.345,7.5 7.5,7.5 H 189.63603 c 4.155,0 7.5,-3.345 7.5,-7.5 v -2.49591 z m 14.45367,2.58375 a 2.4576271,2.4576271 0 0 1 2.45763,2.45763 2.4576271,2.4576271 0 0 1 -2.45763,2.45763 2.4576271,2.4576271 0 0 1 -2.45763,-2.45763 2.4576271,2.4576271 0 0 1 2.45763,-2.45763 z m 150.092015,0 a 2.4576271,2.4576271 0 0 1 2.45763,2.45763 2.4576271,2.4576271 0 0 1 -2.45763,2.45763 2.4576271,2.4576271 0 0 1 -2.45763,-2.45763 2.4576271,2.4576271 0 0 1 2.45763,-2.45763 z" /><path
     id="path8611-6"
     style="display:inline;vector-effect:non-scaling-stroke;fill:none;fill-opacity:1;fill-rule:evenodd;stroke:#ff0000;stroke-width:0.264583;stroke-dasharray:none;-inkscape-stroke:hairline"
     inkscape:label="Right Panel"
     d="m 207.86168,77.1646 v 2.49602 c 0,4.155 3.345,7.5 7.5,7.5 h 164.00001 c 4.155,0 7.49999,-3.345 7.49999,-7.5 V 77.1646 Z m 164.54634,7.49918 a 2.4576271,2.4576271 0 0 1 -2.45763,-2.45762 2.4576271,2.4576271 0 0 1 2.45763,-2.45763 2.4576271,2.4576271 0 0 1 2.45762,2.45763 2.4576271,2.4576271 0 0 1 -2.45762,2.45762 z m -150.09201,0 a 2.4576271,2.4576271 0 0 1 -2.45763,-2.45762 2.4576271,2.4576271 0 0 1 2.45763,-2.45763 2.4576271,2.4576271 0 0 1 2.45763,2.45763 2.4576271,2.4576271 0 0 1 -2.45763,2.45762 z" /><path
     id="path8619-2"
     style="display:inline;vector-effect:non-scaling-stroke;fill:none;fill-opacity:1;fill-rule:evenodd;stroke:#ff0000;stroke-width:0.264583;stroke-dasharray:none;-inkscape-stroke:hairline"
     inkscape:label="Bottom Panel"
     d="m 396.04995,82.16261 c 0,4.05308 -3.31071,7.31603 -7.42311,7.31603 H 17.46497 c -4.1124,0 -7.42311,-3.26295 -7.42311,-7.31603 l 10e-6,17.31199 h 95.25409 97.75 193.00399 z M 16.95812,94.52027 a 2.4576271,2.4576271 0 0 1 -2.45763,2.45763 2.4576271,2.4576271 0 0 1 -2.45763,-2.45763 2.4576271,2.4576271 0 0 1 2.45763,-2.45763 2.4576271,2.4576271 0 0 1 2.45763,2.45763 z m 377.091,0 a 2.4576271,2.4576271 0 0 1 -2.45762,2.45763 2.4576271,2.4576271 0 0 1 -2.45763,-2.45763 2.4576271,2.4576271 0 0 1 2.45763,-2.45763 2.4576271,2.4576271 0 0 1 2.45762,2.45763 z" /><path
     id="path8627-9"
     style="display:inline;vector-effect:non-scaling-stroke;fill:none;fill-opacity:1;fill-rule:evenodd;stroke:#ff0000;stroke-width:0.264583;stroke-dasharray:none;-inkscape-stroke:hairline"
     inkscape:label="Left Panel"
     d="m 18.13601,77.16471 v 2.49591 c 0,4.155 3.345,7.5 7.5,7.5 h 164.00002 c 4.155,0 7.5,-3.345 7.5,-7.5 v -2.49591 z m 14.45367,2.58375 a 2.4576271,2.4576271 0 0 1 2.45763,2.45763 2.4576271,2.4576271 0 0 1 -2.45763,2.45763 2.4576271,2.4576271 0 0 1 -2.45763,-2.45763 2.4576271,2.4576271 0 0 1 2.45763,-2.45763 z m 150.09202,0 a 2.4576271,2.4576271 0 0 1 2.45763,2.45763 2.4576271,2.4576271 0 0 1 -2.45763,2.45763 2.4576271,2.4576271 0 0 1 -2.45763,-2.45763 2.4576271,2.4576271 0 0 1 2.45763,-2.45763 z" /><path
     id="path8611-1"
     style="display:inline;vector-effect:non-scaling-stroke;fill:none;fill-opacity:1;fill-rule:evenodd;stroke:#ff0000;stroke-width:0.264583;stroke-dasharray:none;-inkscape-stroke:hairline"
     inkscape:label="Right Panel"
     d="m 207.86168,49.471702 v 2.496018 c 0,4.155 3.345,7.5 7.5,7.5 h 164.00001 c 4.155,0 7.49999,-3.345 7.49999,-7.5 v -2.496018 z m 164.54634,7.499178 a 2.4576271,2.4576271 0 0 1 -2.45763,-2.45762 2.4576271,2.4576271 0 0 1 2.45763,-2.45763 2.4576271,2.4576271 0 0 1 2.45762,2.45763 2.4576271,2.4576271 0 0 1 -2.45762,2.45762 z m -150.09201,0 a 2.4576271,2.4576271 0 0 1 -2.45763,-2.45762 2.4576271,2.4576271 0 0 1 2.45763,-2.45763 2.4576271,2.4576271 0 0 1 2.45763,2.45763 2.4576271,2.4576271 0 0 1 -2.45763,2.45762 z" /><path
     id="path8619-27"
     style="display:inline;vector-effect:non-scaling-stroke;fill:none;fill-opacity:1;fill-rule:evenodd;stroke:#ff0000;stroke-width:0.264583;stroke-dasharray:none;-inkscape-stroke:hairline"
     inkscape:label="Bottom Panel"
     d="m 396.04995,54.46971 c 0,4.05308 -3.31071,7.31603 -7.42311,7.31603 H 17.46497 c -4.1124,0 -7.42311,-3.26295 -7.42311,-7.31603 l 10e-6,17.31199 h 95.25409 97.75 193.00399 z M 16.95812,66.82737 a 2.4576271,2.4576271 0 0 1 -2.45763,2.45763 2.4576271,2.4576271 0 0 1 -2.45763,-2.45763 2.4576271,2.4576271 0 0 1 2.45763,-2.45763 2.4576271,2.4576271 0 0 1 2.45763,2.45763 z m 377.091,0 a 2.4576271,2.4576271 0 0 1 -2.45762,2.45763 2.4576271,2.4576271 0 0 1 -2.45763,-2.45763 2.4576271,2.4576271 0 0 1 2.45763,-2.45763 2.4576271,2.4576271 0 0 1 2.45762,2.45763 z" /><path
     id="path8627-0"
     style="display:inline;vector-effect:non-scaling-stroke;fill:none;fill-opacity:1;fill-rule:evenodd;stroke:#ff0000;stroke-width:0.264583;stroke-dasharray:none;-inkscape-stroke:hairline"
     inkscape:label="Left Panel"
     d="m 207.86166,35.031269 v 2.495908 c 0,4.155 3.345,7.5 7.5,7.5 h 164.00002 c 4.155,0 7.5,-3.345 7.5,-7.5 v -2.495908 z m 14.45367,2.583748 a 2.4576271,2.4576271 0 0 1 2.45763,2.45763 2.4576271,2.4576271 0 0 1 -2.45763,2.45763 2.4576271,2.4576271 0 0 1 -2.45763,-2.45763 2.4576271,2.4576271 0 0 1 2.45763,-2.45763 z m 150.09202,0 a 2.4576271,2.4576271 0 0 1 2.45763,2.45763 2.4576271,2.4576271 0 0 1 -2.45763,2.45763 2.4576271,2.4576271 0 0 1 -2.45763,-2.45763 2.4576271,2.4576271 0 0 1 2.45763,-2.45763 z" /></svg>
