  0
SECTION
  2
HEADER
  9
$ACADVER
  1
AC1014
  9
$HANDSEED
  5
FFFF
  9
$INSUNITS
 70
     4
  9
$MEASUREMENT
 70
     1
  0
ENDSEC
  0
SECTION
  2
TABLES
  0
TABLE
  2
VPORT
  5
8
330
0
100
AcDbSymbolTable
 70
     4
  0
VPORT
  5
2E
330
8
100
AcDbSymbolTableRecord
100
AcDbViewportTableRecord
  2
*ACTIVE
 70
     0
 10
0.0
 20
0.0
 11
1.0
 21
1.0
 12
210.0
 22
148.5
 13
0.0
 23
0.0
 14
10.0
 24
10.0
 15
10.0
 25
10.0
 16
0.0
 26
0.0
 36
1.0
 17
0.0
 27
0.0
 37
0.0
 40
341.0
 41
1.24
 42
50.0
 43
0.0
 44
0.0
 50
0.0
 51
0.0
 71
     0
 72
   100
 73
     1
 74
     3
 75
     0
 76
     0
 77
     0
 78
     0
  0
ENDTAB
  0
TABLE
  2
LTYPE
  5
5
330
0
100
AcDbSymbolTable
 70
     1
  0
LTYPE
  5
14
330
5
100
AcDbSymbolTableRecord
100
AcDbLinetypeTableRecord
  2
BYBLOCK
 70
     0
  3

 72
    65
 73
     0
 40
0.0
  0
LTYPE
  5
15
330
5
100
AcDbSymbolTableRecord
100
AcDbLinetypeTableRecord
  2
BYLAYER
 70
     0
  3

 72
    65
 73
     0
 40
0.0
  0
LTYPE
  5
16
330
5
100
AcDbSymbolTableRecord
100
AcDbLinetypeTableRecord
  2
CONTINUOUS
 70
     0
  3
Solid line
 72
    65
 73
     0
 40
0.0
  0
ENDTAB
  0
TABLE
  2
LAYER
  5
2
100
AcDbSymbolTable
 70
2
  0
LAYER
  5
50
100
AcDbSymbolTableRecord
100
AcDbLayerTableRecord
  2
0
 70
0
  6
CONTINUOUS
  0
LAYER
  5
51
100
AcDbSymbolTableRecord
100
AcDbLayerTableRecord
  2
01_hitbox_button_layout
 70
0
  6
CONTINUOUS
  0
ENDTAB
  0
TABLE
  2
STYLE
  5
3
330
0
100
AcDbSymbolTable
 70
     1
  0
STYLE
  5
11
330
3
100
AcDbSymbolTableRecord
100
AcDbTextStyleTableRecord
  2
STANDARD
 70
     0
 40
0.0
 41
1.0
 50
0.0
 71
     0
 42
2.5
  3
txt
  4

  0
ENDTAB
  0
TABLE
  2
VIEW
  5
6
330
0
100
AcDbSymbolTable
 70
     0
  0
ENDTAB
  0
TABLE
  2
UCS
  5
7
330
0
100
AcDbSymbolTable
 70
     0
  0
ENDTAB
  0
TABLE
  2
APPID
  5
9
330
0
100
AcDbSymbolTable
 70
     2
  0
APPID
  5
12
330
9
100
AcDbSymbolTableRecord
100
AcDbRegAppTableRecord
  2
ACAD
 70
     0
  0
ENDTAB
  0
TABLE
  2
DIMSTYLE
  5
A
330
0
100
AcDbSymbolTable
 70
     1
  0
DIMSTYLE
105
27
330
A
100
AcDbSymbolTableRecord
100
AcDbDimStyleTableRecord
  2
ISO-25
 70
     0
  3

  4

  5

  6

  7

 40
1.0
 41
2.5
 42
0.625
 43
3.75
 44
1.25
 45
0.0
 46
0.0
 47
0.0
 48
0.0
140
2.5
141
2.5
142
0.0
143
0.03937007874016
144
1.0
145
0.0
146
1.0
147
0.625
 71
     0
 72
     0
 73
     0
 74
     0
 75
     0
 76
     0
 77
     1
 78
     8
170
     0
171
     3
172
     1
173
     0
174
     0
175
     0
176
     0
177
     0
178
     0
270
     2
271
     2
272
     2
273
     2
274
     3
340
11
275
     0
280
     0
281
     0
282
     0
283
     0
284
     8
285
     0
286
     0
287
     3
288
     0
  0
ENDTAB
  0
TABLE
  2
BLOCK_RECORD
  5
1
330
0
100
AcDbSymbolTable
 70
     1
  0
BLOCK_RECORD
  5
1F
330
1
100
AcDbSymbolTableRecord
100
AcDbBlockTableRecord
  2
*MODEL_SPACE
  0
BLOCK_RECORD
  5
1B
330
1
100
AcDbSymbolTableRecord
100
AcDbBlockTableRecord
  2
*PAPER_SPACE
  0
ENDTAB
  0
ENDSEC
  0
SECTION
  2
BLOCKS
  0
BLOCK
  5
20
330
1F
100
AcDbEntity
  8
0
100
AcDbBlockBegin
  2
*MODEL_SPACE
 70
     0
 10
0.0
 20
0.0
 30
0.0
  3
*MODEL_SPACE
  1

  0
ENDBLK
  5
21
330
1F
100
AcDbEntity
  8
0
100
AcDbBlockEnd
  0
BLOCK
  5
1C
330
1B
100
AcDbEntity
 67
     1
  8
0
100
AcDbBlockBegin
  2
*PAPER_SPACE
  1

  0
ENDBLK
  5
1D
330
1B
100
AcDbEntity
 67
     1
  8
0
100
AcDbBlockEnd
  0
ENDSEC
  0
SECTION
  2
ENTITIES
  0
SPLINE
  5
100
100
AcDbEntity
  8
0
 62
1
100
AcDbSpline
 70
8
 71
3
 72
8
 73
4
 74
0
 40
0
 40
0
 40
0
 40
0
 40
1
 40
1
 40
1
 40
1
 10
1213.696180
 20
179.050010
 30
0.0
 10
1215.685304
 20
179.050010
 30
0.0
 10
1217.592958
 20
178.259834
 30
0.0
 10
1218.999481
 20
176.853311
 30
0.0
  0
SPLINE
  5
101
100
AcDbEntity
  8
0
 62
1
100
AcDbSpline
 70
8
 71
3
 72
8
 73
4
 74
0
 40
0
 40
0
 40
0
 40
0
 40
1
 40
1
 40
1
 40
1
 10
1218.999481
 20
176.853311
 30
0.0
 10
1220.406004
 20
175.446788
 30
0.0
 10
1221.196180
 20
173.539134
 30
0.0
 10
1221.196180
 20
171.550010
 30
0.0
  0
LWPOLYLINE
  5
102
100
AcDbEntity
  8
0
 62
1
100
AcDbPolyline
 90
2
 70
0
 10
822.696180
 20
179.050010
 30
0.0
 10
1213.696180
 20
179.050010
 30
0.0
  0
SPLINE
  5
103
100
AcDbEntity
  8
0
 62
1
100
AcDbSpline
 70
8
 71
3
 72
8
 73
4
 74
0
 40
0
 40
0
 40
0
 40
0
 40
1
 40
1
 40
1
 40
1
 10
1221.196180
 20
7.550010
 30
0.0
 10
1221.196180
 20
5.560886
 30
0.0
 10
1220.406004
 20
3.653232
 30
0.0
 10
1218.999481
 20
2.246709
 30
0.0
  0
SPLINE
  5
104
100
AcDbEntity
  8
0
 62
1
100
AcDbSpline
 70
8
 71
3
 72
8
 73
4
 74
0
 40
0
 40
0
 40
0
 40
0
 40
1
 40
1
 40
1
 40
1
 10
1218.999481
 20
2.246709
 30
0.0
 10
1217.592958
 20
0.840186
 30
0.0
 10
1215.685304
 20
0.050010
 30
0.0
 10
1213.696180
 20
0.050010
 30
0.0
  0
LWPOLYLINE
  5
105
100
AcDbEntity
  8
0
 62
1
100
AcDbPolyline
 90
2
 70
0
 10
1221.196180
 20
171.550010
 30
0.0
 10
1221.196180
 20
7.550010
 30
0.0
  0
SPLINE
  5
106
100
AcDbEntity
  8
0
 62
1
100
AcDbSpline
 70
8
 71
3
 72
8
 73
4
 74
0
 40
0
 40
0
 40
0
 40
0
 40
1
 40
1
 40
1
 40
1
 10
822.696180
 20
0.050010
 30
0.0
 10
820.707056
 20
0.050010
 30
0.0
 10
818.799402
 20
0.840186
 30
0.0
 10
817.392879
 20
2.246709
 30
0.0
  0
SPLINE
  5
107
100
AcDbEntity
  8
0
 62
1
100
AcDbSpline
 70
8
 71
3
 72
8
 73
4
 74
0
 40
0
 40
0
 40
0
 40
0
 40
1
 40
1
 40
1
 40
1
 10
817.392879
 20
2.246709
 30
0.0
 10
815.986356
 20
3.653232
 30
0.0
 10
815.196180
 20
5.560886
 30
0.0
 10
815.196180
 20
7.550010
 30
0.0
  0
LWPOLYLINE
  5
108
100
AcDbEntity
  8
0
 62
1
100
AcDbPolyline
 90
2
 70
0
 10
1213.696180
 20
0.050010
 30
0.0
 10
822.696180
 20
0.050010
 30
0.0
  0
SPLINE
  5
109
100
AcDbEntity
  8
0
 62
1
100
AcDbSpline
 70
8
 71
3
 72
8
 73
4
 74
0
 40
0
 40
0
 40
0
 40
0
 40
1
 40
1
 40
1
 40
1
 10
815.196180
 20
171.550010
 30
0.0
 10
815.196180
 20
173.539134
 30
0.0
 10
815.986356
 20
175.446788
 30
0.0
 10
817.392879
 20
176.853311
 30
0.0
  0
SPLINE
  5
10a
100
AcDbEntity
  8
0
 62
1
100
AcDbSpline
 70
8
 71
3
 72
8
 73
4
 74
0
 40
0
 40
0
 40
0
 40
0
 40
1
 40
1
 40
1
 40
1
 10
817.392879
 20
176.853311
 30
0.0
 10
818.799402
 20
178.259834
 30
0.0
 10
820.707056
 20
179.050010
 30
0.0
 10
822.696180
 20
179.050010
 30
0.0
  0
LWPOLYLINE
  5
10b
100
AcDbEntity
  8
0
 62
1
100
AcDbPolyline
 90
2
 70
0
 10
815.196180
 20
7.550010
 30
0.0
 10
815.196180
 20
171.550010
 30
0.0
  0
SPLINE
  5
10c
100
AcDbEntity
  8
0
 62
1
100
AcDbSpline
 70
8
 71
3
 72
8
 73
4
 74
0
 40
0
 40
0
 40
0
 40
0
 40
1
 40
1
 40
1
 40
1
 10
820.150698
 20
15.704340
 30
0.0
 10
819.665344
 20
15.704340
 30
0.0
 10
819.227780
 20
15.411969
 30
0.0
 10
819.042043
 20
14.963560
 30
0.0
  0
SPLINE
  5
10d
100
AcDbEntity
  8
0
 62
1
100
AcDbSpline
 70
8
 71
3
 72
8
 73
4
 74
0
 40
0
 40
0
 40
0
 40
0
 40
1
 40
1
 40
1
 40
1
 10
819.042043
 20
14.963560
 30
0.0
 10
818.856306
 20
14.515151
 30
0.0
 10
818.958973
 20
13.999009
 30
0.0
 10
819.302170
 20
13.655812
 30
0.0
  0
SPLINE
  5
10e
100
AcDbEntity
  8
0
 62
1
100
AcDbSpline
 70
8
 71
3
 72
8
 73
4
 74
0
 40
0
 40
0
 40
0
 40
0
 40
1
 40
1
 40
1
 40
1
 10
819.302170
 20
13.655812
 30
0.0
 10
819.645368
 20
13.312614
 30
0.0
 10
820.161509
 20
13.209947
 30
0.0
 10
820.609918
 20
13.395685
 30
0.0
  0
SPLINE
  5
10f
100
AcDbEntity
  8
0
 62
1
100
AcDbSpline
 70
8
 71
3
 72
8
 73
4
 74
0
 40
0
 40
0
 40
0
 40
0
 40
1
 40
1
 40
1
 40
1
 10
820.609918
 20
13.395685
 30
0.0
 10
821.058328
 20
13.581422
 30
0.0
 10
821.350698
 20
14.018985
 30
0.0
 10
821.350698
 20
14.504340
 30
0.0
  0
SPLINE
  5
110
100
AcDbEntity
  8
0
 62
1
100
AcDbSpline
 70
8
 71
3
 72
8
 73
4
 74
0
 40
0
 40
0
 40
0
 40
0
 40
1
 40
1
 40
1
 40
1
 10
821.350698
 20
14.504340
 30
0.0
 10
821.350698
 20
14.822600
 30
0.0
 10
821.224270
 20
15.127824
 30
0.0
 10
820.999226
 20
15.352868
 30
0.0
  0
SPLINE
  5
111
100
AcDbEntity
  8
0
 62
1
100
AcDbSpline
 70
8
 71
3
 72
8
 73
4
 74
0
 40
0
 40
0
 40
0
 40
0
 40
1
 40
1
 40
1
 40
1
 10
820.999226
 20
15.352868
 30
0.0
 10
820.774183
 20
15.577912
 30
0.0
 10
820.468958
 20
15.704340
 30
0.0
 10
820.150698
 20
15.704340
 30
0.0
  0
LWPOLYLINE
  5
112
100
AcDbEntity
  8
0
 62
1
100
AcDbPolyline
 90
1
 70
1
 10
822.696180
 20
179.050010
 30
0.0
  0
SPLINE
  5
113
100
AcDbEntity
  8
0
 62
1
100
AcDbSpline
 70
8
 71
3
 72
8
 73
4
 74
0
 40
0
 40
0
 40
0
 40
0
 40
1
 40
1
 40
1
 40
1
 10
820.150698
 20
165.796343
 30
0.0
 10
819.665344
 20
165.796343
 30
0.0
 10
819.227780
 20
165.503972
 30
0.0
 10
819.042043
 20
165.055563
 30
0.0
  0
SPLINE
  5
114
100
AcDbEntity
  8
0
 62
1
100
AcDbSpline
 70
8
 71
3
 72
8
 73
4
 74
0
 40
0
 40
0
 40
0
 40
0
 40
1
 40
1
 40
1
 40
1
 10
819.042043
 20
165.055563
 30
0.0
 10
818.856306
 20
164.607154
 30
0.0
 10
818.958973
 20
164.091012
 30
0.0
 10
819.302170
 20
163.747815
 30
0.0
  0
SPLINE
  5
115
100
AcDbEntity
  8
0
 62
1
100
AcDbSpline
 70
8
 71
3
 72
8
 73
4
 74
0
 40
0
 40
0
 40
0
 40
0
 40
1
 40
1
 40
1
 40
1
 10
819.302170
 20
163.747815
 30
0.0
 10
819.645368
 20
163.404617
 30
0.0
 10
820.161509
 20
163.301950
 30
0.0
 10
820.609918
 20
163.487688
 30
0.0
  0
SPLINE
  5
116
100
AcDbEntity
  8
0
 62
1
100
AcDbSpline
 70
8
 71
3
 72
8
 73
4
 74
0
 40
0
 40
0
 40
0
 40
0
 40
1
 40
1
 40
1
 40
1
 10
820.609918
 20
163.487688
 30
0.0
 10
821.058328
 20
163.673425
 30
0.0
 10
821.350698
 20
164.110988
 30
0.0
 10
821.350698
 20
164.596343
 30
0.0
  0
SPLINE
  5
117
100
AcDbEntity
  8
0
 62
1
100
AcDbSpline
 70
8
 71
3
 72
8
 73
4
 74
0
 40
0
 40
0
 40
0
 40
0
 40
1
 40
1
 40
1
 40
1
 10
821.350698
 20
164.596343
 30
0.0
 10
821.350698
 20
164.914603
 30
0.0
 10
821.224270
 20
165.219827
 30
0.0
 10
820.999226
 20
165.444871
 30
0.0
  0
SPLINE
  5
118
100
AcDbEntity
  8
0
 62
1
100
AcDbSpline
 70
8
 71
3
 72
8
 73
4
 74
0
 40
0
 40
0
 40
0
 40
0
 40
1
 40
1
 40
1
 40
1
 10
820.999226
 20
165.444871
 30
0.0
 10
820.774183
 20
165.669915
 30
0.0
 10
820.468958
 20
165.796343
 30
0.0
 10
820.150698
 20
165.796343
 30
0.0
  0
LWPOLYLINE
  5
119
100
AcDbEntity
  8
0
 62
1
100
AcDbPolyline
 90
1
 70
1
 10
820.150698
 20
15.704340
 30
0.0
  0
SPLINE
  5
11a
100
AcDbEntity
  8
0
 62
1
100
AcDbSpline
 70
8
 71
3
 72
8
 73
4
 74
0
 40
0
 40
0
 40
0
 40
0
 40
1
 40
1
 40
1
 40
1
 10
1206.741458
 20
175.296343
 30
0.0
 10
1206.256104
 20
175.296343
 30
0.0
 10
1205.818540
 20
175.003973
 30
0.0
 10
1205.632803
 20
174.555563
 30
0.0
  0
SPLINE
  5
11b
100
AcDbEntity
  8
0
 62
1
100
AcDbSpline
 70
8
 71
3
 72
8
 73
4
 74
0
 40
0
 40
0
 40
0
 40
0
 40
1
 40
1
 40
1
 40
1
 10
1205.632803
 20
174.555563
 30
0.0
 10
1205.447066
 20
174.107154
 30
0.0
 10
1205.549733
 20
173.591013
 30
0.0
 10
1205.892930
 20
173.247815
 30
0.0
  0
SPLINE
  5
11c
100
AcDbEntity
  8
0
 62
1
100
AcDbSpline
 70
8
 71
3
 72
8
 73
4
 74
0
 40
0
 40
0
 40
0
 40
0
 40
1
 40
1
 40
1
 40
1
 10
1205.892930
 20
173.247815
 30
0.0
 10
1206.236128
 20
172.904618
 30
0.0
 10
1206.752269
 20
172.801951
 30
0.0
 10
1207.200678
 20
172.987688
 30
0.0
  0
SPLINE
  5
11d
100
AcDbEntity
  8
0
 62
1
100
AcDbSpline
 70
8
 71
3
 72
8
 73
4
 74
0
 40
0
 40
0
 40
0
 40
0
 40
1
 40
1
 40
1
 40
1
 10
1207.200678
 20
172.987688
 30
0.0
 10
1207.649088
 20
173.173425
 30
0.0
 10
1207.941458
 20
173.610989
 30
0.0
 10
1207.941458
 20
174.096343
 30
0.0
  0
SPLINE
  5
11e
100
AcDbEntity
  8
0
 62
1
100
AcDbSpline
 70
8
 71
3
 72
8
 73
4
 74
0
 40
0
 40
0
 40
0
 40
0
 40
1
 40
1
 40
1
 40
1
 10
1207.941458
 20
174.096343
 30
0.0
 10
1207.941458
 20
174.414603
 30
0.0
 10
1207.815030
 20
174.719828
 30
0.0
 10
1207.589986
 20
174.944871
 30
0.0
  0
SPLINE
  5
11f
100
AcDbEntity
  8
0
 62
1
100
AcDbSpline
 70
8
 71
3
 72
8
 73
4
 74
0
 40
0
 40
0
 40
0
 40
0
 40
1
 40
1
 40
1
 40
1
 10
1207.589986
 20
174.944871
 30
0.0
 10
1207.364943
 20
175.169915
 30
0.0
 10
1207.059718
 20
175.296343
 30
0.0
 10
1206.741458
 20
175.296343
 30
0.0
  0
LWPOLYLINE
  5
120
100
AcDbEntity
  8
0
 62
1
100
AcDbPolyline
 90
1
 70
1
 10
820.150698
 20
165.796343
 30
0.0
  0
SPLINE
  5
121
100
AcDbEntity
  8
0
 62
1
100
AcDbSpline
 70
8
 71
3
 72
8
 73
4
 74
0
 40
0
 40
0
 40
0
 40
0
 40
1
 40
1
 40
1
 40
1
 10
829.650710
 20
175.296343
 30
0.0
 10
828.987968
 20
175.296343
 30
0.0
 10
828.450710
 20
174.759085
 30
0.0
 10
828.450710
 20
174.096343
 30
0.0
  0
SPLINE
  5
122
100
AcDbEntity
  8
0
 62
1
100
AcDbSpline
 70
8
 71
3
 72
8
 73
4
 74
0
 40
0
 40
0
 40
0
 40
0
 40
1
 40
1
 40
1
 40
1
 10
828.450710
 20
174.096343
 30
0.0
 10
828.450710
 20
173.433602
 30
0.0
 10
828.987968
 20
172.896343
 30
0.0
 10
829.650710
 20
172.896343
 30
0.0
  0
SPLINE
  5
123
100
AcDbEntity
  8
0
 62
1
100
AcDbSpline
 70
8
 71
3
 72
8
 73
4
 74
0
 40
0
 40
0
 40
0
 40
0
 40
1
 40
1
 40
1
 40
1
 10
829.650710
 20
172.896343
 30
0.0
 10
830.313452
 20
172.896343
 30
0.0
 10
830.850710
 20
173.433602
 30
0.0
 10
830.850710
 20
174.096343
 30
0.0
  0
SPLINE
  5
124
100
AcDbEntity
  8
0
 62
1
100
AcDbSpline
 70
8
 71
3
 72
8
 73
4
 74
0
 40
0
 40
0
 40
0
 40
0
 40
1
 40
1
 40
1
 40
1
 10
830.850710
 20
174.096343
 30
0.0
 10
830.850710
 20
174.414603
 30
0.0
 10
830.724282
 20
174.719828
 30
0.0
 10
830.499238
 20
174.944871
 30
0.0
  0
SPLINE
  5
125
100
AcDbEntity
  8
0
 62
1
100
AcDbSpline
 70
8
 71
3
 72
8
 73
4
 74
0
 40
0
 40
0
 40
0
 40
0
 40
1
 40
1
 40
1
 40
1
 10
830.499238
 20
174.944871
 30
0.0
 10
830.274194
 20
175.169915
 30
0.0
 10
829.968970
 20
175.296343
 30
0.0
 10
829.650710
 20
175.296343
 30
0.0
  0
LWPOLYLINE
  5
126
100
AcDbEntity
  8
0
 62
1
100
AcDbPolyline
 90
1
 70
1
 10
1206.741458
 20
175.296343
 30
0.0
  0
SPLINE
  5
127
100
AcDbEntity
  8
0
 62
1
100
AcDbSpline
 70
8
 71
3
 72
8
 73
4
 74
0
 40
0
 40
0
 40
0
 40
0
 40
1
 40
1
 40
1
 40
1
 10
1206.741708
 20
6.204340
 30
0.0
 10
1206.256354
 20
6.204340
 30
0.0
 10
1205.818790
 20
5.911969
 30
0.0
 10
1205.633053
 20
5.463560
 30
0.0
  0
SPLINE
  5
128
100
AcDbEntity
  8
0
 62
1
100
AcDbSpline
 70
8
 71
3
 72
8
 73
4
 74
0
 40
0
 40
0
 40
0
 40
0
 40
1
 40
1
 40
1
 40
1
 10
1205.633053
 20
5.463560
 30
0.0
 10
1205.447316
 20
5.015151
 30
0.0
 10
1205.549983
 20
4.499009
 30
0.0
 10
1205.893180
 20
4.155812
 30
0.0
  0
SPLINE
  5
129
100
AcDbEntity
  8
0
 62
1
100
AcDbSpline
 70
8
 71
3
 72
8
 73
4
 74
0
 40
0
 40
0
 40
0
 40
0
 40
1
 40
1
 40
1
 40
1
 10
1205.893180
 20
4.155812
 30
0.0
 10
1206.236378
 20
3.812614
 30
0.0
 10
1206.752519
 20
3.709947
 30
0.0
 10
1207.200928
 20
3.895685
 30
0.0
  0
SPLINE
  5
12a
100
AcDbEntity
  8
0
 62
1
100
AcDbSpline
 70
8
 71
3
 72
8
 73
4
 74
0
 40
0
 40
0
 40
0
 40
0
 40
1
 40
1
 40
1
 40
1
 10
1207.200928
 20
3.895685
 30
0.0
 10
1207.649338
 20
4.081422
 30
0.0
 10
1207.941708
 20
4.518985
 30
0.0
 10
1207.941708
 20
5.004340
 30
0.0
  0
SPLINE
  5
12b
100
AcDbEntity
  8
0
 62
1
100
AcDbSpline
 70
8
 71
3
 72
8
 73
4
 74
0
 40
0
 40
0
 40
0
 40
0
 40
1
 40
1
 40
1
 40
1
 10
1207.941708
 20
5.004340
 30
0.0
 10
1207.941708
 20
5.322600
 30
0.0
 10
1207.815280
 20
5.627824
 30
0.0
 10
1207.590236
 20
5.852868
 30
0.0
  0
SPLINE
  5
12c
100
AcDbEntity
  8
0
 62
1
100
AcDbSpline
 70
8
 71
3
 72
8
 73
4
 74
0
 40
0
 40
0
 40
0
 40
0
 40
1
 40
1
 40
1
 40
1
 10
1207.590236
 20
5.852868
 30
0.0
 10
1207.365193
 20
6.077912
 30
0.0
 10
1207.059968
 20
6.204340
 30
0.0
 10
1206.741708
 20
6.204340
 30
0.0
  0
LWPOLYLINE
  5
12d
100
AcDbEntity
  8
0
 62
1
100
AcDbPolyline
 90
1
 70
1
 10
829.650710
 20
175.296343
 30
0.0
  0
SPLINE
  5
12e
100
AcDbEntity
  8
0
 62
1
100
AcDbSpline
 70
8
 71
3
 72
8
 73
4
 74
0
 40
0
 40
0
 40
0
 40
0
 40
1
 40
1
 40
1
 40
1
 10
829.650710
 20
6.204340
 30
0.0
 10
828.987968
 20
6.204340
 30
0.0
 10
828.450710
 20
5.667082
 30
0.0
 10
828.450710
 20
5.004340
 30
0.0
  0
SPLINE
  5
12f
100
AcDbEntity
  8
0
 62
1
100
AcDbSpline
 70
8
 71
3
 72
8
 73
4
 74
0
 40
0
 40
0
 40
0
 40
0
 40
1
 40
1
 40
1
 40
1
 10
828.450710
 20
5.004340
 30
0.0
 10
828.450710
 20
4.341598
 30
0.0
 10
828.987968
 20
3.804340
 30
0.0
 10
829.650710
 20
3.804340
 30
0.0
  0
SPLINE
  5
130
100
AcDbEntity
  8
0
 62
1
100
AcDbSpline
 70
8
 71
3
 72
8
 73
4
 74
0
 40
0
 40
0
 40
0
 40
0
 40
1
 40
1
 40
1
 40
1
 10
829.650710
 20
3.804340
 30
0.0
 10
830.313452
 20
3.804340
 30
0.0
 10
830.850710
 20
4.341598
 30
0.0
 10
830.850710
 20
5.004340
 30
0.0
  0
SPLINE
  5
131
100
AcDbEntity
  8
0
 62
1
100
AcDbSpline
 70
8
 71
3
 72
8
 73
4
 74
0
 40
0
 40
0
 40
0
 40
0
 40
1
 40
1
 40
1
 40
1
 10
830.850710
 20
5.004340
 30
0.0
 10
830.850710
 20
5.322600
 30
0.0
 10
830.724282
 20
5.627824
 30
0.0
 10
830.499238
 20
5.852868
 30
0.0
  0
SPLINE
  5
132
100
AcDbEntity
  8
0
 62
1
100
AcDbSpline
 70
8
 71
3
 72
8
 73
4
 74
0
 40
0
 40
0
 40
0
 40
0
 40
1
 40
1
 40
1
 40
1
 10
830.499238
 20
5.852868
 30
0.0
 10
830.274194
 20
6.077912
 30
0.0
 10
829.968970
 20
6.204340
 30
0.0
 10
829.650710
 20
6.204340
 30
0.0
  0
LWPOLYLINE
  5
133
100
AcDbEntity
  8
0
 62
1
100
AcDbPolyline
 90
1
 70
1
 10
1206.741708
 20
6.204340
 30
0.0
  0
SPLINE
  5
134
100
AcDbEntity
  8
0
 62
1
100
AcDbSpline
 70
8
 71
3
 72
8
 73
4
 74
0
 40
0
 40
0
 40
0
 40
0
 40
1
 40
1
 40
1
 40
1
 10
1216.241720
 20
15.704340
 30
0.0
 10
1215.578978
 20
15.704340
 30
0.0
 10
1215.041720
 20
15.167082
 30
0.0
 10
1215.041720
 20
14.504340
 30
0.0
  0
SPLINE
  5
135
100
AcDbEntity
  8
0
 62
1
100
AcDbSpline
 70
8
 71
3
 72
8
 73
4
 74
0
 40
0
 40
0
 40
0
 40
0
 40
1
 40
1
 40
1
 40
1
 10
1215.041720
 20
14.504340
 30
0.0
 10
1215.041720
 20
13.841598
 30
0.0
 10
1215.578978
 20
13.304340
 30
0.0
 10
1216.241720
 20
13.304340
 30
0.0
  0
SPLINE
  5
136
100
AcDbEntity
  8
0
 62
1
100
AcDbSpline
 70
8
 71
3
 72
8
 73
4
 74
0
 40
0
 40
0
 40
0
 40
0
 40
1
 40
1
 40
1
 40
1
 10
1216.241720
 20
13.304340
 30
0.0
 10
1216.904462
 20
13.304340
 30
0.0
 10
1217.441720
 20
13.841598
 30
0.0
 10
1217.441720
 20
14.504340
 30
0.0
  0
SPLINE
  5
137
100
AcDbEntity
  8
0
 62
1
100
AcDbSpline
 70
8
 71
3
 72
8
 73
4
 74
0
 40
0
 40
0
 40
0
 40
0
 40
1
 40
1
 40
1
 40
1
 10
1217.441720
 20
14.504340
 30
0.0
 10
1217.441720
 20
14.822600
 30
0.0
 10
1217.315292
 20
15.127824
 30
0.0
 10
1217.090248
 20
15.352868
 30
0.0
  0
SPLINE
  5
138
100
AcDbEntity
  8
0
 62
1
100
AcDbSpline
 70
8
 71
3
 72
8
 73
4
 74
0
 40
0
 40
0
 40
0
 40
0
 40
1
 40
1
 40
1
 40
1
 10
1217.090248
 20
15.352868
 30
0.0
 10
1216.865204
 20
15.577912
 30
0.0
 10
1216.559980
 20
15.704340
 30
0.0
 10
1216.241720
 20
15.704340
 30
0.0
  0
LWPOLYLINE
  5
139
100
AcDbEntity
  8
0
 62
1
100
AcDbPolyline
 90
1
 70
1
 10
829.650710
 20
6.204340
 30
0.0
  0
SPLINE
  5
13a
100
AcDbEntity
  8
0
 62
1
100
AcDbSpline
 70
8
 71
3
 72
8
 73
4
 74
0
 40
0
 40
0
 40
0
 40
0
 40
1
 40
1
 40
1
 40
1
 10
1216.241720
 20
165.796343
 30
0.0
 10
1215.578978
 20
165.796343
 30
0.0
 10
1215.041720
 20
165.259085
 30
0.0
 10
1215.041720
 20
164.596343
 30
0.0
  0
SPLINE
  5
13b
100
AcDbEntity
  8
0
 62
1
100
AcDbSpline
 70
8
 71
3
 72
8
 73
4
 74
0
 40
0
 40
0
 40
0
 40
0
 40
1
 40
1
 40
1
 40
1
 10
1215.041720
 20
164.596343
 30
0.0
 10
1215.041720
 20
163.933601
 30
0.0
 10
1215.578978
 20
163.396343
 30
0.0
 10
1216.241720
 20
163.396343
 30
0.0
  0
SPLINE
  5
13c
100
AcDbEntity
  8
0
 62
1
100
AcDbSpline
 70
8
 71
3
 72
8
 73
4
 74
0
 40
0
 40
0
 40
0
 40
0
 40
1
 40
1
 40
1
 40
1
 10
1216.241720
 20
163.396343
 30
0.0
 10
1216.904462
 20
163.396343
 30
0.0
 10
1217.441720
 20
163.933601
 30
0.0
 10
1217.441720
 20
164.596343
 30
0.0
  0
SPLINE
  5
13d
100
AcDbEntity
  8
0
 62
1
100
AcDbSpline
 70
8
 71
3
 72
8
 73
4
 74
0
 40
0
 40
0
 40
0
 40
0
 40
1
 40
1
 40
1
 40
1
 10
1217.441720
 20
164.596343
 30
0.0
 10
1217.441720
 20
164.914603
 30
0.0
 10
1217.315292
 20
165.219827
 30
0.0
 10
1217.090248
 20
165.444871
 30
0.0
  0
SPLINE
  5
13e
100
AcDbEntity
  8
0
 62
1
100
AcDbSpline
 70
8
 71
3
 72
8
 73
4
 74
0
 40
0
 40
0
 40
0
 40
0
 40
1
 40
1
 40
1
 40
1
 10
1217.090248
 20
165.444871
 30
0.0
 10
1216.865204
 20
165.669915
 30
0.0
 10
1216.559980
 20
165.796343
 30
0.0
 10
1216.241720
 20
165.796343
 30
0.0
  0
LWPOLYLINE
  5
13f
100
AcDbEntity
  8
0
 62
1
100
AcDbPolyline
 90
1
 70
1
 10
1216.241720
 20
15.704340
 30
0.0
  0
SPLINE
  5
140
100
AcDbEntity
  8
0
 62
1
100
AcDbSpline
 70
8
 71
3
 72
8
 73
4
 74
0
 40
0
 40
0
 40
0
 40
0
 40
1
 40
1
 40
1
 40
1
 10
1114.387402
 20
55.322551
 30
0.0
 10
1114.387402
 20
54.938311
 30
0.0
 10
1114.618863
 20
54.591907
 30
0.0
 10
1114.973853
 20
54.444865
 30
0.0
  0
SPLINE
  5
141
100
AcDbEntity
  8
0
 62
1
100
AcDbSpline
 70
8
 71
3
 72
8
 73
4
 74
0
 40
0
 40
0
 40
0
 40
0
 40
1
 40
1
 40
1
 40
1
 10
1114.973853
 20
54.444865
 30
0.0
 10
1115.328844
 20
54.297823
 30
0.0
 10
1115.737456
 20
54.379101
 30
0.0
 10
1116.009155
 20
54.650799
 30
0.0
  0
SPLINE
  5
142
100
AcDbEntity
  8
0
 62
1
100
AcDbSpline
 70
8
 71
3
 72
8
 73
4
 74
0
 40
0
 40
0
 40
0
 40
0
 40
1
 40
1
 40
1
 40
1
 10
1116.009155
 20
54.650799
 30
0.0
 10
1116.280853
 20
54.922497
 30
0.0
 10
1116.362131
 20
55.331109
 30
0.0
 10
1116.215089
 20
55.686100
 30
0.0
  0
SPLINE
  5
143
100
AcDbEntity
  8
0
 62
1
100
AcDbSpline
 70
8
 71
3
 72
8
 73
4
 74
0
 40
0
 40
0
 40
0
 40
0
 40
1
 40
1
 40
1
 40
1
 10
1116.215089
 20
55.686100
 30
0.0
 10
1116.068047
 20
56.041091
 30
0.0
 10
1115.721642
 20
56.272551
 30
0.0
 10
1115.337403
 20
56.272551
 30
0.0
  0
SPLINE
  5
144
100
AcDbEntity
  8
0
 62
1
100
AcDbSpline
 70
8
 71
3
 72
8
 73
4
 74
0
 40
0
 40
0
 40
0
 40
0
 40
1
 40
1
 40
1
 40
1
 10
1115.337403
 20
56.272551
 30
0.0
 10
1115.085447
 20
56.272551
 30
0.0
 10
1114.843811
 20
56.172462
 30
0.0
 10
1114.665651
 20
55.994302
 30
0.0
  0
SPLINE
  5
145
100
AcDbEntity
  8
0
 62
1
100
AcDbSpline
 70
8
 71
3
 72
8
 73
4
 74
0
 40
0
 40
0
 40
0
 40
0
 40
1
 40
1
 40
1
 40
1
 10
1114.665651
 20
55.994302
 30
0.0
 10
1114.487492
 20
55.816143
 30
0.0
 10
1114.387402
 20
55.574507
 30
0.0
 10
1114.387402
 20
55.322551
 30
0.0
  0
LWPOLYLINE
  5
146
100
AcDbEntity
  8
0
 62
1
100
AcDbPolyline
 90
1
 70
1
 10
1216.241720
 20
165.796343
 30
0.0
  0
SPLINE
  5
147
100
AcDbEntity
  8
0
 62
1
100
AcDbSpline
 70
8
 71
3
 72
8
 73
4
 74
0
 40
0
 40
0
 40
0
 40
0
 40
1
 40
1
 40
1
 40
1
 10
1114.387402
 20
43.922039
 30
0.0
 10
1114.387402
 20
43.397369
 30
0.0
 10
1114.812732
 20
42.972039
 30
0.0
 10
1115.337403
 20
42.972039
 30
0.0
  0
SPLINE
  5
148
100
AcDbEntity
  8
0
 62
1
100
AcDbSpline
 70
8
 71
3
 72
8
 73
4
 74
0
 40
0
 40
0
 40
0
 40
0
 40
1
 40
1
 40
1
 40
1
 10
1115.337403
 20
42.972039
 30
0.0
 10
1115.862074
 20
42.972039
 30
0.0
 10
1116.287403
 20
43.397369
 30
0.0
 10
1116.287403
 20
43.922039
 30
0.0
  0
SPLINE
  5
149
100
AcDbEntity
  8
0
 62
1
100
AcDbSpline
 70
8
 71
3
 72
8
 73
4
 74
0
 40
0
 40
0
 40
0
 40
0
 40
1
 40
1
 40
1
 40
1
 10
1116.287403
 20
43.922039
 30
0.0
 10
1116.287403
 20
44.446710
 30
0.0
 10
1115.862074
 20
44.872040
 30
0.0
 10
1115.337403
 20
44.872040
 30
0.0
  0
SPLINE
  5
14a
100
AcDbEntity
  8
0
 62
1
100
AcDbSpline
 70
8
 71
3
 72
8
 73
4
 74
0
 40
0
 40
0
 40
0
 40
0
 40
1
 40
1
 40
1
 40
1
 10
1115.337403
 20
44.872040
 30
0.0
 10
1115.085447
 20
44.872040
 30
0.0
 10
1114.843811
 20
44.771951
 30
0.0
 10
1114.665651
 20
44.593791
 30
0.0
  0
SPLINE
  5
14b
100
AcDbEntity
  8
0
 62
1
100
AcDbSpline
 70
8
 71
3
 72
8
 73
4
 74
0
 40
0
 40
0
 40
0
 40
0
 40
1
 40
1
 40
1
 40
1
 10
1114.665651
 20
44.593791
 30
0.0
 10
1114.487492
 20
44.415631
 30
0.0
 10
1114.387402
 20
44.173995
 30
0.0
 10
1114.387402
 20
43.922039
 30
0.0
  0
LWPOLYLINE
  5
14c
100
AcDbEntity
  8
0
 62
1
100
AcDbPolyline
 90
1
 70
1
 10
1114.387402
 20
55.322551
 30
0.0
  0
SPLINE
  5
14d
100
AcDbEntity
  8
0
 62
1
100
AcDbSpline
 70
8
 71
3
 72
8
 73
4
 74
0
 40
0
 40
0
 40
0
 40
0
 40
1
 40
1
 40
1
 40
1
 10
1066.127435
 20
55.322551
 30
0.0
 10
1066.127435
 20
54.938311
 30
0.0
 10
1066.358895
 20
54.591907
 30
0.0
 10
1066.713886
 20
54.444865
 30
0.0
  0
SPLINE
  5
14e
100
AcDbEntity
  8
0
 62
1
100
AcDbSpline
 70
8
 71
3
 72
8
 73
4
 74
0
 40
0
 40
0
 40
0
 40
0
 40
1
 40
1
 40
1
 40
1
 10
1066.713886
 20
54.444865
 30
0.0
 10
1067.068877
 20
54.297823
 30
0.0
 10
1067.477489
 20
54.379101
 30
0.0
 10
1067.749187
 20
54.650799
 30
0.0
  0
SPLINE
  5
14f
100
AcDbEntity
  8
0
 62
1
100
AcDbSpline
 70
8
 71
3
 72
8
 73
4
 74
0
 40
0
 40
0
 40
0
 40
0
 40
1
 40
1
 40
1
 40
1
 10
1067.749187
 20
54.650799
 30
0.0
 10
1068.020886
 20
54.922497
 30
0.0
 10
1068.102164
 20
55.331109
 30
0.0
 10
1067.955122
 20
55.686100
 30
0.0
  0
SPLINE
  5
150
100
AcDbEntity
  8
0
 62
1
100
AcDbSpline
 70
8
 71
3
 72
8
 73
4
 74
0
 40
0
 40
0
 40
0
 40
0
 40
1
 40
1
 40
1
 40
1
 10
1067.955122
 20
55.686100
 30
0.0
 10
1067.808080
 20
56.041091
 30
0.0
 10
1067.461675
 20
56.272551
 30
0.0
 10
1067.077436
 20
56.272551
 30
0.0
  0
SPLINE
  5
151
100
AcDbEntity
  8
0
 62
1
100
AcDbSpline
 70
8
 71
3
 72
8
 73
4
 74
0
 40
0
 40
0
 40
0
 40
0
 40
1
 40
1
 40
1
 40
1
 10
1067.077436
 20
56.272551
 30
0.0
 10
1066.825480
 20
56.272551
 30
0.0
 10
1066.583844
 20
56.172462
 30
0.0
 10
1066.405684
 20
55.994302
 30
0.0
  0
SPLINE
  5
152
100
AcDbEntity
  8
0
 62
1
100
AcDbSpline
 70
8
 71
3
 72
8
 73
4
 74
0
 40
0
 40
0
 40
0
 40
0
 40
1
 40
1
 40
1
 40
1
 10
1066.405684
 20
55.994302
 30
0.0
 10
1066.227524
 20
55.816143
 30
0.0
 10
1066.127435
 20
55.574507
 30
0.0
 10
1066.127435
 20
55.322551
 30
0.0
  0
LWPOLYLINE
  5
153
100
AcDbEntity
  8
0
 62
1
100
AcDbPolyline
 90
1
 70
1
 10
1114.387402
 20
43.922039
 30
0.0
  0
SPLINE
  5
154
100
AcDbEntity
  8
0
 62
1
100
AcDbSpline
 70
8
 71
3
 72
8
 73
4
 74
0
 40
0
 40
0
 40
0
 40
0
 40
1
 40
1
 40
1
 40
1
 10
1066.127435
 20
43.922039
 30
0.0
 10
1066.127435
 20
43.397369
 30
0.0
 10
1066.552765
 20
42.972039
 30
0.0
 10
1067.077436
 20
42.972039
 30
0.0
  0
SPLINE
  5
155
100
AcDbEntity
  8
0
 62
1
100
AcDbSpline
 70
8
 71
3
 72
8
 73
4
 74
0
 40
0
 40
0
 40
0
 40
0
 40
1
 40
1
 40
1
 40
1
 10
1067.077436
 20
42.972039
 30
0.0
 10
1067.602106
 20
42.972039
 30
0.0
 10
1068.027436
 20
43.397369
 30
0.0
 10
1068.027436
 20
43.922039
 30
0.0
  0
SPLINE
  5
156
100
AcDbEntity
  8
0
 62
1
100
AcDbSpline
 70
8
 71
3
 72
8
 73
4
 74
0
 40
0
 40
0
 40
0
 40
0
 40
1
 40
1
 40
1
 40
1
 10
1068.027436
 20
43.922039
 30
0.0
 10
1068.027436
 20
44.446710
 30
0.0
 10
1067.602106
 20
44.872040
 30
0.0
 10
1067.077436
 20
44.872040
 30
0.0
  0
SPLINE
  5
157
100
AcDbEntity
  8
0
 62
1
100
AcDbSpline
 70
8
 71
3
 72
8
 73
4
 74
0
 40
0
 40
0
 40
0
 40
0
 40
1
 40
1
 40
1
 40
1
 10
1067.077436
 20
44.872040
 30
0.0
 10
1066.825480
 20
44.872040
 30
0.0
 10
1066.583844
 20
44.771951
 30
0.0
 10
1066.405684
 20
44.593791
 30
0.0
  0
SPLINE
  5
158
100
AcDbEntity
  8
0
 62
1
100
AcDbSpline
 70
8
 71
3
 72
8
 73
4
 74
0
 40
0
 40
0
 40
0
 40
0
 40
1
 40
1
 40
1
 40
1
 10
1066.405684
 20
44.593791
 30
0.0
 10
1066.227524
 20
44.415631
 30
0.0
 10
1066.127435
 20
44.173995
 30
0.0
 10
1066.127435
 20
43.922039
 30
0.0
  0
LWPOLYLINE
  5
159
100
AcDbEntity
  8
0
 62
1
100
AcDbPolyline
 90
1
 70
1
 10
1066.127435
 20
55.322551
 30
0.0
  0
LWPOLYLINE
  5
15a
100
AcDbEntity
  8
0
 62
1
100
AcDbPolyline
 90
1
 70
1
 10
1066.127435
 20
43.922039
 30
0.0
  0
SPLINE
  5
15b
100
AcDbEntity
  8
0
 62
1
100
AcDbSpline
 70
8
 71
3
 72
8
 73
4
 74
0
 40
0
 40
0
 40
0
 40
0
 40
1
 40
1
 40
1
 40
1
 10
806.237180
 20
179.050010
 30
0.0
 10
808.226304
 20
179.050010
 30
0.0
 10
810.133958
 20
178.259834
 30
0.0
 10
811.540481
 20
176.853311
 30
0.0
  0
SPLINE
  5
15c
100
AcDbEntity
  8
0
 62
1
100
AcDbSpline
 70
8
 71
3
 72
8
 73
4
 74
0
 40
0
 40
0
 40
0
 40
0
 40
1
 40
1
 40
1
 40
1
 10
811.540481
 20
176.853311
 30
0.0
 10
812.947004
 20
175.446788
 30
0.0
 10
813.737180
 20
173.539134
 30
0.0
 10
813.737180
 20
171.550010
 30
0.0
  0
LWPOLYLINE
  5
15d
100
AcDbEntity
  8
0
 62
1
100
AcDbPolyline
 90
2
 70
0
 10
415.237180
 20
179.050010
 30
0.0
 10
806.237180
 20
179.050010
 30
0.0
  0
SPLINE
  5
15e
100
AcDbEntity
  8
0
 62
1
100
AcDbSpline
 70
8
 71
3
 72
8
 73
4
 74
0
 40
0
 40
0
 40
0
 40
0
 40
1
 40
1
 40
1
 40
1
 10
813.737180
 20
7.550010
 30
0.0
 10
813.737180
 20
5.560886
 30
0.0
 10
812.947004
 20
3.653232
 30
0.0
 10
811.540481
 20
2.246709
 30
0.0
  0
SPLINE
  5
15f
100
AcDbEntity
  8
0
 62
1
100
AcDbSpline
 70
8
 71
3
 72
8
 73
4
 74
0
 40
0
 40
0
 40
0
 40
0
 40
1
 40
1
 40
1
 40
1
 10
811.540481
 20
2.246709
 30
0.0
 10
810.133958
 20
0.840186
 30
0.0
 10
808.226304
 20
0.050010
 30
0.0
 10
806.237180
 20
0.050010
 30
0.0
  0
LWPOLYLINE
  5
160
100
AcDbEntity
  8
0
 62
1
100
AcDbPolyline
 90
2
 70
0
 10
813.737180
 20
171.550010
 30
0.0
 10
813.737180
 20
7.550010
 30
0.0
  0
SPLINE
  5
161
100
AcDbEntity
  8
0
 62
1
100
AcDbSpline
 70
8
 71
3
 72
8
 73
4
 74
0
 40
0
 40
0
 40
0
 40
0
 40
1
 40
1
 40
1
 40
1
 10
415.237180
 20
0.050010
 30
0.0
 10
413.248056
 20
0.050010
 30
0.0
 10
411.340402
 20
0.840186
 30
0.0
 10
409.933879
 20
2.246709
 30
0.0
  0
SPLINE
  5
162
100
AcDbEntity
  8
0
 62
1
100
AcDbSpline
 70
8
 71
3
 72
8
 73
4
 74
0
 40
0
 40
0
 40
0
 40
0
 40
1
 40
1
 40
1
 40
1
 10
409.933879
 20
2.246709
 30
0.0
 10
408.527356
 20
3.653232
 30
0.0
 10
407.737180
 20
5.560886
 30
0.0
 10
407.737180
 20
7.550010
 30
0.0
  0
LWPOLYLINE
  5
163
100
AcDbEntity
  8
0
 62
1
100
AcDbPolyline
 90
2
 70
0
 10
806.237180
 20
0.050010
 30
0.0
 10
415.237180
 20
0.050010
 30
0.0
  0
SPLINE
  5
164
100
AcDbEntity
  8
0
 62
1
100
AcDbSpline
 70
8
 71
3
 72
8
 73
4
 74
0
 40
0
 40
0
 40
0
 40
0
 40
1
 40
1
 40
1
 40
1
 10
407.737180
 20
171.550010
 30
0.0
 10
407.737180
 20
173.539134
 30
0.0
 10
408.527356
 20
175.446788
 30
0.0
 10
409.933879
 20
176.853311
 30
0.0
  0
SPLINE
  5
165
100
AcDbEntity
  8
0
 62
1
100
AcDbSpline
 70
8
 71
3
 72
8
 73
4
 74
0
 40
0
 40
0
 40
0
 40
0
 40
1
 40
1
 40
1
 40
1
 10
409.933879
 20
176.853311
 30
0.0
 10
411.340402
 20
178.259834
 30
0.0
 10
413.248056
 20
179.050010
 30
0.0
 10
415.237180
 20
179.050010
 30
0.0
  0
LWPOLYLINE
  5
166
100
AcDbEntity
  8
0
 62
1
100
AcDbPolyline
 90
2
 70
0
 10
407.737180
 20
7.550010
 30
0.0
 10
407.737180
 20
171.550010
 30
0.0
  0
SPLINE
  5
167
100
AcDbEntity
  8
01_hitbox_button_layout
 62
1
100
AcDbSpline
 70
8
 71
3
 72
8
 73
4
 74
0
 40
0
 40
0
 40
0
 40
0
 40
1
 40
1
 40
1
 40
1
 10
632.479485
 20
85.828323
 30
0.0
 10
632.478093
 20
92.454748
 30
0.0
 10
627.105925
 20
97.825788
 30
0.0
 10
620.479500
 20
97.825788
 30
0.0
  0
SPLINE
  5
168
100
AcDbEntity
  8
01_hitbox_button_layout
 62
1
100
AcDbSpline
 70
8
 71
3
 72
8
 73
4
 74
0
 40
0
 40
0
 40
0
 40
0
 40
1
 40
1
 40
1
 40
1
 10
620.479500
 20
97.825788
 30
0.0
 10
613.853076
 20
97.825788
 30
0.0
 10
608.480907
 20
92.454748
 30
0.0
 10
608.479515
 20
85.828323
 30
0.0
  0
SPLINE
  5
169
100
AcDbEntity
  8
01_hitbox_button_layout
 62
1
100
AcDbSpline
 70
8
 71
3
 72
8
 73
4
 74
0
 40
0
 40
0
 40
0
 40
0
 40
1
 40
1
 40
1
 40
1
 10
608.479515
 20
85.828323
 30
0.0
 10
608.480907
 20
79.201899
 30
0.0
 10
613.853076
 20
73.830858
 30
0.0
 10
620.479500
 20
73.830858
 30
0.0
  0
SPLINE
  5
16a
100
AcDbEntity
  8
01_hitbox_button_layout
 62
1
100
AcDbSpline
 70
8
 71
3
 72
8
 73
4
 74
0
 40
0
 40
0
 40
0
 40
0
 40
1
 40
1
 40
1
 40
1
 10
620.479500
 20
73.830858
 30
0.0
 10
627.105925
 20
73.830858
 30
0.0
 10
632.478093
 20
79.201899
 30
0.0
 10
632.479485
 20
85.828323
 30
0.0
  0
LWPOLYLINE
  5
16b
100
AcDbEntity
  8
0
 62
1
100
AcDbPolyline
 90
1
 70
1
 10
415.237180
 20
179.050010
 30
0.0
  0
SPLINE
  5
16c
100
AcDbEntity
  8
01_hitbox_button_layout
 62
1
100
AcDbSpline
 70
8
 71
3
 72
8
 73
4
 74
0
 40
0
 40
0
 40
0
 40
0
 40
1
 40
1
 40
1
 40
1
 10
660.340704
 20
96.844607
 30
0.0
 10
660.339313
 20
103.471031
 30
0.0
 10
654.967144
 20
108.842072
 30
0.0
 10
648.340720
 20
108.842072
 30
0.0
  0
SPLINE
  5
16d
100
AcDbEntity
  8
01_hitbox_button_layout
 62
1
100
AcDbSpline
 70
8
 71
3
 72
8
 73
4
 74
0
 40
0
 40
0
 40
0
 40
0
 40
1
 40
1
 40
1
 40
1
 10
648.340720
 20
108.842072
 30
0.0
 10
641.714295
 20
108.842072
 30
0.0
 10
636.342127
 20
103.471031
 30
0.0
 10
636.340735
 20
96.844607
 30
0.0
  0
SPLINE
  5
16e
100
AcDbEntity
  8
01_hitbox_button_layout
 62
1
100
AcDbSpline
 70
8
 71
3
 72
8
 73
4
 74
0
 40
0
 40
0
 40
0
 40
0
 40
1
 40
1
 40
1
 40
1
 10
636.340735
 20
96.844607
 30
0.0
 10
636.342127
 20
90.218182
 30
0.0
 10
641.714295
 20
84.847142
 30
0.0
 10
648.340720
 20
84.847142
 30
0.0
  0
SPLINE
  5
16f
100
AcDbEntity
  8
01_hitbox_button_layout
 62
1
100
AcDbSpline
 70
8
 71
3
 72
8
 73
4
 74
0
 40
0
 40
0
 40
0
 40
0
 40
1
 40
1
 40
1
 40
1
 10
648.340720
 20
84.847142
 30
0.0
 10
654.967144
 20
84.847142
 30
0.0
 10
660.339313
 20
90.218182
 30
0.0
 10
660.340704
 20
96.844607
 30
0.0
  0
LWPOLYLINE
  5
170
100
AcDbEntity
  8
01_hitbox_button_layout
 62
1
100
AcDbPolyline
 90
1
 70
1
 10
632.479485
 20
85.828323
 30
0.0
  0
SPLINE
  5
171
100
AcDbEntity
  8
01_hitbox_button_layout
 62
1
100
AcDbSpline
 70
8
 71
3
 72
8
 73
4
 74
0
 40
0
 40
0
 40
0
 40
0
 40
1
 40
1
 40
1
 40
1
 10
720.878216
 20
92.098961
 30
0.0
 10
720.870473
 20
98.720887
 30
0.0
 10
715.500169
 20
104.084916
 30
0.0
 10
708.878239
 20
104.084916
 30
0.0
  0
SPLINE
  5
172
100
AcDbEntity
  8
01_hitbox_button_layout
 62
1
100
AcDbSpline
 70
8
 71
3
 72
8
 73
4
 74
0
 40
0
 40
0
 40
0
 40
0
 40
1
 40
1
 40
1
 40
1
 10
708.878239
 20
104.084916
 30
0.0
 10
702.256309
 20
104.084916
 30
0.0
 10
696.886004
 20
98.720887
 30
0.0
 10
696.878262
 20
92.098961
 30
0.0
  0
SPLINE
  5
173
100
AcDbEntity
  8
01_hitbox_button_layout
 62
1
100
AcDbSpline
 70
8
 71
3
 72
8
 73
4
 74
0
 40
0
 40
0
 40
0
 40
0
 40
1
 40
1
 40
1
 40
1
 10
696.878262
 20
92.098961
 30
0.0
 10
696.886004
 20
85.477036
 30
0.0
 10
702.256309
 20
80.113007
 30
0.0
 10
708.878239
 20
80.113007
 30
0.0
  0
SPLINE
  5
174
100
AcDbEntity
  8
01_hitbox_button_layout
 62
1
100
AcDbSpline
 70
8
 71
3
 72
8
 73
4
 74
0
 40
0
 40
0
 40
0
 40
0
 40
1
 40
1
 40
1
 40
1
 10
708.878239
 20
80.113007
 30
0.0
 10
715.500169
 20
80.113007
 30
0.0
 10
720.870473
 20
85.477036
 30
0.0
 10
720.878216
 20
92.098961
 30
0.0
  0
LWPOLYLINE
  5
175
100
AcDbEntity
  8
01_hitbox_button_layout
 62
1
100
AcDbPolyline
 90
1
 70
1
 10
660.340704
 20
96.844607
 30
0.0
  0
SPLINE
  5
176
100
AcDbEntity
  8
01_hitbox_button_layout
 62
1
100
AcDbSpline
 70
8
 71
3
 72
8
 73
4
 74
0
 40
0
 40
0
 40
0
 40
0
 40
1
 40
1
 40
1
 40
1
 10
721.207463
 20
123.053291
 30
0.0
 10
721.207463
 20
127.340475
 30
0.0
 10
718.920277
 20
131.301996
 30
0.0
 10
715.207468
 20
133.445587
 30
0.0
  0
SPLINE
  5
177
100
AcDbEntity
  8
01_hitbox_button_layout
 62
1
100
AcDbSpline
 70
8
 71
3
 72
8
 73
4
 74
0
 40
0
 40
0
 40
0
 40
0
 40
1
 40
1
 40
1
 40
1
 10
715.207468
 20
133.445587
 30
0.0
 10
711.494658
 20
135.589179
 30
0.0
 10
706.920288
 20
135.589179
 30
0.0
 10
703.207478
 20
133.445587
 30
0.0
  0
SPLINE
  5
178
100
AcDbEntity
  8
01_hitbox_button_layout
 62
1
100
AcDbSpline
 70
8
 71
3
 72
8
 73
4
 74
0
 40
0
 40
0
 40
0
 40
0
 40
1
 40
1
 40
1
 40
1
 10
703.207478
 20
133.445587
 30
0.0
 10
699.494668
 20
131.301996
 30
0.0
 10
697.207483
 20
127.340475
 30
0.0
 10
697.207483
 20
123.053291
 30
0.0
  0
SPLINE
  5
179
100
AcDbEntity
  8
01_hitbox_button_layout
 62
1
100
AcDbSpline
 70
8
 71
3
 72
8
 73
4
 74
0
 40
0
 40
0
 40
0
 40
0
 40
1
 40
1
 40
1
 40
1
 10
697.207483
 20
123.053291
 30
0.0
 10
697.207483
 20
118.766108
 30
0.0
 10
699.494668
 20
114.804587
 30
0.0
 10
703.207478
 20
112.660995
 30
0.0
  0
SPLINE
  5
17a
100
AcDbEntity
  8
01_hitbox_button_layout
 62
1
100
AcDbSpline
 70
8
 71
3
 72
8
 73
4
 74
0
 40
0
 40
0
 40
0
 40
0
 40
1
 40
1
 40
1
 40
1
 10
703.207478
 20
112.660995
 30
0.0
 10
706.920288
 20
110.517403
 30
0.0
 10
711.494658
 20
110.517403
 30
0.0
 10
715.207468
 20
112.660995
 30
0.0
  0
SPLINE
  5
17b
100
AcDbEntity
  8
01_hitbox_button_layout
 62
1
100
AcDbSpline
 70
8
 71
3
 72
8
 73
4
 74
0
 40
0
 40
0
 40
0
 40
0
 40
1
 40
1
 40
1
 40
1
 10
715.207468
 20
112.660995
 30
0.0
 10
718.920277
 20
114.804587
 30
0.0
 10
721.207463
 20
118.766108
 30
0.0
 10
721.207463
 20
123.053291
 30
0.0
  0
LWPOLYLINE
  5
17c
100
AcDbEntity
  8
01_hitbox_button_layout
 62
1
100
AcDbPolyline
 90
1
 70
1
 10
720.878216
 20
92.098961
 30
0.0
  0
SPLINE
  5
17d
100
AcDbEntity
  8
01_hitbox_button_layout
 62
1
100
AcDbSpline
 70
8
 71
3
 72
8
 73
4
 74
0
 40
0
 40
0
 40
0
 40
0
 40
1
 40
1
 40
1
 40
1
 10
691.661003
 20
126.140745
 30
0.0
 10
691.657595
 20
132.765742
 30
0.0
 10
686.286018
 20
138.134557
 30
0.0
 10
679.661019
 20
138.134557
 30
0.0
  0
SPLINE
  5
17e
100
AcDbEntity
  8
01_hitbox_button_layout
 62
1
100
AcDbSpline
 70
8
 71
3
 72
8
 73
4
 74
0
 40
0
 40
0
 40
0
 40
0
 40
1
 40
1
 40
1
 40
1
 10
679.661019
 20
138.134557
 30
0.0
 10
673.036021
 20
138.134557
 30
0.0
 10
667.664444
 20
132.765742
 30
0.0
 10
667.661036
 20
126.140745
 30
0.0
  0
SPLINE
  5
17f
100
AcDbEntity
  8
01_hitbox_button_layout
 62
1
100
AcDbSpline
 70
8
 71
3
 72
8
 73
4
 74
0
 40
0
 40
0
 40
0
 40
0
 40
1
 40
1
 40
1
 40
1
 10
667.661036
 20
126.140745
 30
0.0
 10
667.664444
 20
119.515747
 30
0.0
 10
673.036021
 20
114.146932
 30
0.0
 10
679.661019
 20
114.146932
 30
0.0
  0
SPLINE
  5
180
100
AcDbEntity
  8
01_hitbox_button_layout
 62
1
100
AcDbSpline
 70
8
 71
3
 72
8
 73
4
 74
0
 40
0
 40
0
 40
0
 40
0
 40
1
 40
1
 40
1
 40
1
 10
679.661019
 20
114.146932
 30
0.0
 10
686.286018
 20
114.146932
 30
0.0
 10
691.657595
 20
119.515747
 30
0.0
 10
691.661003
 20
126.140745
 30
0.0
  0
LWPOLYLINE
  5
181
100
AcDbEntity
  8
01_hitbox_button_layout
 62
1
100
AcDbPolyline
 90
1
 70
1
 10
721.207463
 20
123.053291
 30
0.0
  0
SPLINE
  5
182
100
AcDbEntity
  8
01_hitbox_button_layout
 62
1
100
AcDbSpline
 70
8
 71
3
 72
8
 73
4
 74
0
 40
0
 40
0
 40
0
 40
0
 40
1
 40
1
 40
1
 40
1
 10
662.018886
 20
126.948472
 30
0.0
 10
662.017494
 20
133.574896
 30
0.0
 10
656.645326
 20
138.945937
 30
0.0
 10
650.018901
 20
138.945937
 30
0.0
  0
SPLINE
  5
183
100
AcDbEntity
  8
01_hitbox_button_layout
 62
1
100
AcDbSpline
 70
8
 71
3
 72
8
 73
4
 74
0
 40
0
 40
0
 40
0
 40
0
 40
1
 40
1
 40
1
 40
1
 10
650.018901
 20
138.945937
 30
0.0
 10
643.392476
 20
138.945937
 30
0.0
 10
638.020308
 20
133.574896
 30
0.0
 10
638.018916
 20
126.948472
 30
0.0
  0
SPLINE
  5
184
100
AcDbEntity
  8
01_hitbox_button_layout
 62
1
100
AcDbSpline
 70
8
 71
3
 72
8
 73
4
 74
0
 40
0
 40
0
 40
0
 40
0
 40
1
 40
1
 40
1
 40
1
 10
638.018916
 20
126.948472
 30
0.0
 10
638.020308
 20
120.322047
 30
0.0
 10
643.392476
 20
114.951007
 30
0.0
 10
650.018901
 20
114.951007
 30
0.0
  0
SPLINE
  5
185
100
AcDbEntity
  8
01_hitbox_button_layout
 62
1
100
AcDbSpline
 70
8
 71
3
 72
8
 73
4
 74
0
 40
0
 40
0
 40
0
 40
0
 40
1
 40
1
 40
1
 40
1
 10
650.018901
 20
114.951007
 30
0.0
 10
656.645326
 20
114.951007
 30
0.0
 10
662.017494
 20
120.322047
 30
0.0
 10
662.018886
 20
126.948472
 30
0.0
  0
LWPOLYLINE
  5
186
100
AcDbEntity
  8
01_hitbox_button_layout
 62
1
100
AcDbPolyline
 90
1
 70
1
 10
691.661003
 20
126.140745
 30
0.0
  0
SPLINE
  5
187
100
AcDbEntity
  8
01_hitbox_button_layout
 62
1
100
AcDbSpline
 70
8
 71
3
 72
8
 73
4
 74
0
 40
0
 40
0
 40
0
 40
0
 40
1
 40
1
 40
1
 40
1
 10
635.101000
 20
115.226603
 30
0.0
 10
635.099608
 20
121.853028
 30
0.0
 10
629.727440
 20
127.224068
 30
0.0
 10
623.101015
 20
127.224068
 30
0.0
  0
SPLINE
  5
188
100
AcDbEntity
  8
01_hitbox_button_layout
 62
1
100
AcDbSpline
 70
8
 71
3
 72
8
 73
4
 74
0
 40
0
 40
0
 40
0
 40
0
 40
1
 40
1
 40
1
 40
1
 10
623.101015
 20
127.224068
 30
0.0
 10
616.474590
 20
127.224068
 30
0.0
 10
611.102422
 20
121.853028
 30
0.0
 10
611.101030
 20
115.226603
 30
0.0
  0
SPLINE
  5
189
100
AcDbEntity
  8
01_hitbox_button_layout
 62
1
100
AcDbSpline
 70
8
 71
3
 72
8
 73
4
 74
0
 40
0
 40
0
 40
0
 40
0
 40
1
 40
1
 40
1
 40
1
 10
611.101030
 20
115.226603
 30
0.0
 10
611.102422
 20
108.600179
 30
0.0
 10
616.474590
 20
103.229138
 30
0.0
 10
623.101015
 20
103.229138
 30
0.0
  0
SPLINE
  5
18a
100
AcDbEntity
  8
01_hitbox_button_layout
 62
1
100
AcDbSpline
 70
8
 71
3
 72
8
 73
4
 74
0
 40
0
 40
0
 40
0
 40
0
 40
1
 40
1
 40
1
 40
1
 10
623.101015
 20
103.229138
 30
0.0
 10
629.727440
 20
103.229138
 30
0.0
 10
635.099608
 20
108.600179
 30
0.0
 10
635.101000
 20
115.226603
 30
0.0
  0
LWPOLYLINE
  5
18b
100
AcDbEntity
  8
01_hitbox_button_layout
 62
1
100
AcDbPolyline
 90
1
 70
1
 10
662.018886
 20
126.948472
 30
0.0
  0
SPLINE
  5
18c
100
AcDbEntity
  8
01_hitbox_button_layout
 62
1
100
AcDbSpline
 70
8
 71
3
 72
8
 73
4
 74
0
 40
0
 40
0
 40
0
 40
0
 40
1
 40
1
 40
1
 40
1
 10
607.262137
 20
103.210207
 30
0.0
 10
607.260746
 20
109.836631
 30
0.0
 10
601.888577
 20
115.207672
 30
0.0
 10
595.262153
 20
115.207672
 30
0.0
  0
SPLINE
  5
18d
100
AcDbEntity
  8
01_hitbox_button_layout
 62
1
100
AcDbSpline
 70
8
 71
3
 72
8
 73
4
 74
0
 40
0
 40
0
 40
0
 40
0
 40
1
 40
1
 40
1
 40
1
 10
595.262153
 20
115.207672
 30
0.0
 10
588.635728
 20
115.207672
 30
0.0
 10
583.263559
 20
109.836631
 30
0.0
 10
583.262168
 20
103.210207
 30
0.0
  0
SPLINE
  5
18e
100
AcDbEntity
  8
01_hitbox_button_layout
 62
1
100
AcDbSpline
 70
8
 71
3
 72
8
 73
4
 74
0
 40
0
 40
0
 40
0
 40
0
 40
1
 40
1
 40
1
 40
1
 10
583.262168
 20
103.210207
 30
0.0
 10
583.263559
 20
96.583782
 30
0.0
 10
588.635728
 20
91.212741
 30
0.0
 10
595.262153
 20
91.212741
 30
0.0
  0
SPLINE
  5
18f
100
AcDbEntity
  8
01_hitbox_button_layout
 62
1
100
AcDbSpline
 70
8
 71
3
 72
8
 73
4
 74
0
 40
0
 40
0
 40
0
 40
0
 40
1
 40
1
 40
1
 40
1
 10
595.262153
 20
91.212741
 30
0.0
 10
601.888577
 20
91.212741
 30
0.0
 10
607.260746
 20
96.583782
 30
0.0
 10
607.262137
 20
103.210207
 30
0.0
  0
LWPOLYLINE
  5
190
100
AcDbEntity
  8
01_hitbox_button_layout
 62
1
100
AcDbPolyline
 90
1
 70
1
 10
635.101000
 20
115.226603
 30
0.0
  0
SPLINE
  5
191
100
AcDbEntity
  8
01_hitbox_button_layout
 62
1
100
AcDbSpline
 70
8
 71
3
 72
8
 73
4
 74
0
 40
0
 40
0
 40
0
 40
0
 40
1
 40
1
 40
1
 40
1
 10
580.950086
 20
116.106548
 30
0.0
 10
580.948694
 20
122.732973
 30
0.0
 10
575.576525
 20
128.104013
 30
0.0
 10
568.950101
 20
128.104013
 30
0.0
  0
SPLINE
  5
192
100
AcDbEntity
  8
01_hitbox_button_layout
 62
1
100
AcDbSpline
 70
8
 71
3
 72
8
 73
4
 74
0
 40
0
 40
0
 40
0
 40
0
 40
1
 40
1
 40
1
 40
1
 10
568.950101
 20
128.104013
 30
0.0
 10
562.323676
 20
128.104013
 30
0.0
 10
556.951508
 20
122.732973
 30
0.0
 10
556.950116
 20
116.106548
 30
0.0
  0
SPLINE
  5
193
100
AcDbEntity
  8
01_hitbox_button_layout
 62
1
100
AcDbSpline
 70
8
 71
3
 72
8
 73
4
 74
0
 40
0
 40
0
 40
0
 40
0
 40
1
 40
1
 40
1
 40
1
 10
556.950116
 20
116.106548
 30
0.0
 10
556.951508
 20
109.480124
 30
0.0
 10
562.323676
 20
104.109083
 30
0.0
 10
568.950101
 20
104.109083
 30
0.0
  0
SPLINE
  5
194
100
AcDbEntity
  8
01_hitbox_button_layout
 62
1
100
AcDbSpline
 70
8
 71
3
 72
8
 73
4
 74
0
 40
0
 40
0
 40
0
 40
0
 40
1
 40
1
 40
1
 40
1
 10
568.950101
 20
104.109083
 30
0.0
 10
575.576525
 20
104.109083
 30
0.0
 10
580.948694
 20
109.480124
 30
0.0
 10
580.950086
 20
116.106548
 30
0.0
  0
LWPOLYLINE
  5
195
100
AcDbEntity
  8
01_hitbox_button_layout
 62
1
100
AcDbPolyline
 90
1
 70
1
 10
607.262137
 20
103.210207
 30
0.0
  0
SPLINE
  5
196
100
AcDbEntity
  8
01_hitbox_button_layout
 62
1
100
AcDbSpline
 70
8
 71
3
 72
8
 73
4
 74
0
 40
0
 40
0
 40
0
 40
0
 40
1
 40
1
 40
1
 40
1
 10
551.410066
 20
116.017783
 30
0.0
 10
551.408674
 20
122.644208
 30
0.0
 10
546.036506
 20
128.015248
 30
0.0
 10
539.410081
 20
128.015248
 30
0.0
  0
SPLINE
  5
197
100
AcDbEntity
  8
01_hitbox_button_layout
 62
1
100
AcDbSpline
 70
8
 71
3
 72
8
 73
4
 74
0
 40
0
 40
0
 40
0
 40
0
 40
1
 40
1
 40
1
 40
1
 10
539.410081
 20
128.015248
 30
0.0
 10
532.783656
 20
128.015248
 30
0.0
 10
527.411488
 20
122.644208
 30
0.0
 10
527.410096
 20
116.017783
 30
0.0
  0
SPLINE
  5
198
100
AcDbEntity
  8
01_hitbox_button_layout
 62
1
100
AcDbSpline
 70
8
 71
3
 72
8
 73
4
 74
0
 40
0
 40
0
 40
0
 40
0
 40
1
 40
1
 40
1
 40
1
 10
527.410096
 20
116.017783
 30
0.0
 10
527.411488
 20
109.391359
 30
0.0
 10
532.783656
 20
104.020318
 30
0.0
 10
539.410081
 20
104.020318
 30
0.0
  0
SPLINE
  5
199
100
AcDbEntity
  8
01_hitbox_button_layout
 62
1
100
AcDbSpline
 70
8
 71
3
 72
8
 73
4
 74
0
 40
0
 40
0
 40
0
 40
0
 40
1
 40
1
 40
1
 40
1
 10
539.410081
 20
104.020318
 30
0.0
 10
546.036506
 20
104.020318
 30
0.0
 10
551.408674
 20
109.391359
 30
0.0
 10
551.410066
 20
116.017783
 30
0.0
  0
LWPOLYLINE
  5
19a
100
AcDbEntity
  8
01_hitbox_button_layout
 62
1
100
AcDbPolyline
 90
1
 70
1
 10
580.950086
 20
116.106548
 30
0.0
  0
SPLINE
  5
19b
100
AcDbEntity
  8
01_hitbox_button_layout
 62
1
100
AcDbSpline
 70
8
 71
3
 72
8
 73
4
 74
0
 40
0
 40
0
 40
0
 40
0
 40
1
 40
1
 40
1
 40
1
 10
691.491273
 20
97.119781
 30
0.0
 10
691.491273
 20
101.406965
 30
0.0
 10
689.204088
 20
105.368485
 30
0.0
 10
685.491278
 20
107.512077
 30
0.0
  0
SPLINE
  5
19c
100
AcDbEntity
  8
01_hitbox_button_layout
 62
1
100
AcDbSpline
 70
8
 71
3
 72
8
 73
4
 74
0
 40
0
 40
0
 40
0
 40
0
 40
1
 40
1
 40
1
 40
1
 10
685.491278
 20
107.512077
 30
0.0
 10
681.778468
 20
109.655669
 30
0.0
 10
677.204098
 20
109.655669
 30
0.0
 10
673.491288
 20
107.512077
 30
0.0
  0
SPLINE
  5
19d
100
AcDbEntity
  8
01_hitbox_button_layout
 62
1
100
AcDbSpline
 70
8
 71
3
 72
8
 73
4
 74
0
 40
0
 40
0
 40
0
 40
0
 40
1
 40
1
 40
1
 40
1
 10
673.491288
 20
107.512077
 30
0.0
 10
669.778478
 20
105.368485
 30
0.0
 10
667.491293
 20
101.406965
 30
0.0
 10
667.491293
 20
97.119781
 30
0.0
  0
SPLINE
  5
19e
100
AcDbEntity
  8
01_hitbox_button_layout
 62
1
100
AcDbSpline
 70
8
 71
3
 72
8
 73
4
 74
0
 40
0
 40
0
 40
0
 40
0
 40
1
 40
1
 40
1
 40
1
 10
667.491293
 20
97.119781
 30
0.0
 10
667.491293
 20
92.832598
 30
0.0
 10
669.778478
 20
88.871077
 30
0.0
 10
673.491288
 20
86.727485
 30
0.0
  0
SPLINE
  5
19f
100
AcDbEntity
  8
01_hitbox_button_layout
 62
1
100
AcDbSpline
 70
8
 71
3
 72
8
 73
4
 74
0
 40
0
 40
0
 40
0
 40
0
 40
1
 40
1
 40
1
 40
1
 10
673.491288
 20
86.727485
 30
0.0
 10
677.204098
 20
84.583893
 30
0.0
 10
681.778468
 20
84.583893
 30
0.0
 10
685.491278
 20
86.727485
 30
0.0
  0
SPLINE
  5
1a0
100
AcDbEntity
  8
01_hitbox_button_layout
 62
1
100
AcDbSpline
 70
8
 71
3
 72
8
 73
4
 74
0
 40
0
 40
0
 40
0
 40
0
 40
1
 40
1
 40
1
 40
1
 10
685.491278
 20
86.727485
 30
0.0
 10
689.204088
 20
88.871077
 30
0.0
 10
691.491273
 20
92.832598
 30
0.0
 10
691.491273
 20
97.119781
 30
0.0
  0
LWPOLYLINE
  5
1a1
100
AcDbEntity
  8
01_hitbox_button_layout
 62
1
100
AcDbPolyline
 90
1
 70
1
 10
551.410066
 20
116.017783
 30
0.0
  0
SPLINE
  5
1a2
100
AcDbEntity
  8
01_hitbox_button_layout
 62
1
100
AcDbSpline
 70
8
 71
3
 72
8
 73
4
 74
0
 40
0
 40
0
 40
0
 40
0
 40
1
 40
1
 40
1
 40
1
 10
625.737338
 20
50.757685
 30
0.0
 10
625.737338
 20
56.116662
 30
0.0
 10
622.878358
 20
61.068562
 30
0.0
 10
618.237348
 20
63.748050
 30
0.0
  0
SPLINE
  5
1a3
100
AcDbEntity
  8
01_hitbox_button_layout
 62
1
100
AcDbSpline
 70
8
 71
3
 72
8
 73
4
 74
0
 40
0
 40
0
 40
0
 40
0
 40
1
 40
1
 40
1
 40
1
 10
618.237348
 20
63.748050
 30
0.0
 10
613.596337
 20
66.427539
 30
0.0
 10
607.878377
 20
66.427539
 30
0.0
 10
603.237366
 20
63.748050
 30
0.0
  0
SPLINE
  5
1a4
100
AcDbEntity
  8
01_hitbox_button_layout
 62
1
100
AcDbSpline
 70
8
 71
3
 72
8
 73
4
 74
0
 40
0
 40
0
 40
0
 40
0
 40
1
 40
1
 40
1
 40
1
 10
603.237366
 20
63.748050
 30
0.0
 10
598.596356
 20
61.068562
 30
0.0
 10
595.737375
 20
56.116662
 30
0.0
 10
595.737375
 20
50.757685
 30
0.0
  0
SPLINE
  5
1a5
100
AcDbEntity
  8
01_hitbox_button_layout
 62
1
100
AcDbSpline
 70
8
 71
3
 72
8
 73
4
 74
0
 40
0
 40
0
 40
0
 40
0
 40
1
 40
1
 40
1
 40
1
 10
595.737375
 20
50.757685
 30
0.0
 10
595.737375
 20
45.398708
 30
0.0
 10
598.596356
 20
40.446809
 30
0.0
 10
603.237366
 20
37.767320
 30
0.0
  0
SPLINE
  5
1a6
100
AcDbEntity
  8
01_hitbox_button_layout
 62
1
100
AcDbSpline
 70
8
 71
3
 72
8
 73
4
 74
0
 40
0
 40
0
 40
0
 40
0
 40
1
 40
1
 40
1
 40
1
 10
603.237366
 20
37.767320
 30
0.0
 10
607.878377
 20
35.087831
 30
0.0
 10
613.596337
 20
35.087831
 30
0.0
 10
618.237348
 20
37.767320
 30
0.0
  0
SPLINE
  5
1a7
100
AcDbEntity
  8
01_hitbox_button_layout
 62
1
100
AcDbSpline
 70
8
 71
3
 72
8
 73
4
 74
0
 40
0
 40
0
 40
0
 40
0
 40
1
 40
1
 40
1
 40
1
 10
618.237348
 20
37.767320
 30
0.0
 10
622.878358
 20
40.446809
 30
0.0
 10
625.737338
 20
45.398708
 30
0.0
 10
625.737338
 20
50.757685
 30
0.0
  0
LWPOLYLINE
  5
1a8
100
AcDbEntity
  8
01_hitbox_button_layout
 62
1
100
AcDbPolyline
 90
1
 70
1
 10
691.491273
 20
97.119781
 30
0.0
  0
SPLINE
  5
1a9
100
AcDbEntity
  8
01_hitbox_button_layout
 62
1
100
AcDbSpline
 70
8
 71
3
 72
8
 73
4
 74
0
 40
0
 40
0
 40
0
 40
0
 40
1
 40
1
 40
1
 40
1
 10
808.778178
 20
16.961967
 30
0.0
 10
807.784161
 20
16.961967
 30
0.0
 10
806.888021
 20
16.363185
 30
0.0
 10
806.507627
 20
15.444833
 30
0.0
  0
SPLINE
  5
1aa
100
AcDbEntity
  8
01_hitbox_button_layout
 62
1
100
AcDbSpline
 70
8
 71
3
 72
8
 73
4
 74
0
 40
0
 40
0
 40
0
 40
0
 40
1
 40
1
 40
1
 40
1
 10
806.507627
 20
15.444833
 30
0.0
 10
806.127233
 20
14.526481
 30
0.0
 10
806.337497
 20
13.469412
 30
0.0
 10
807.040374
 20
12.766535
 30
0.0
  0
SPLINE
  5
1ab
100
AcDbEntity
  8
01_hitbox_button_layout
 62
1
100
AcDbSpline
 70
8
 71
3
 72
8
 73
4
 74
0
 40
0
 40
0
 40
0
 40
0
 40
1
 40
1
 40
1
 40
1
 10
807.040374
 20
12.766535
 30
0.0
 10
807.743250
 20
12.063659
 30
0.0
 10
808.800319
 20
11.853395
 30
0.0
 10
809.718672
 20
12.233789
 30
0.0
  0
SPLINE
  5
1ac
100
AcDbEntity
  8
01_hitbox_button_layout
 62
1
100
AcDbSpline
 70
8
 71
3
 72
8
 73
4
 74
0
 40
0
 40
0
 40
0
 40
0
 40
1
 40
1
 40
1
 40
1
 10
809.718672
 20
12.233789
 30
0.0
 10
810.637024
 20
12.614183
 30
0.0
 10
811.235805
 20
13.510323
 30
0.0
 10
811.235805
 20
14.504340
 30
0.0
  0
SPLINE
  5
1ad
100
AcDbEntity
  8
01_hitbox_button_layout
 62
1
100
AcDbSpline
 70
8
 71
3
 72
8
 73
4
 74
0
 40
0
 40
0
 40
0
 40
0
 40
1
 40
1
 40
1
 40
1
 10
811.235805
 20
14.504340
 30
0.0
 10
811.235805
 20
15.156143
 30
0.0
 10
810.976878
 20
15.781250
 30
0.0
 10
810.515983
 20
16.242145
 30
0.0
  0
SPLINE
  5
1ae
100
AcDbEntity
  8
01_hitbox_button_layout
 62
1
100
AcDbSpline
 70
8
 71
3
 72
8
 73
4
 74
0
 40
0
 40
0
 40
0
 40
0
 40
1
 40
1
 40
1
 40
1
 10
810.515983
 20
16.242145
 30
0.0
 10
810.055089
 20
16.703039
 30
0.0
 10
809.429982
 20
16.961967
 30
0.0
 10
808.778178
 20
16.961967
 30
0.0
  0
LWPOLYLINE
  5
1af
100
AcDbEntity
  8
01_hitbox_button_layout
 62
1
100
AcDbPolyline
 90
1
 70
1
 10
625.737338
 20
50.757685
 30
0.0
  0
SPLINE
  5
1b0
100
AcDbEntity
  8
01_hitbox_button_layout
 62
1
100
AcDbSpline
 70
8
 71
3
 72
8
 73
4
 74
0
 40
0
 40
0
 40
0
 40
0
 40
1
 40
1
 40
1
 40
1
 10
808.778178
 20
167.053970
 30
0.0
 10
807.784161
 20
167.053970
 30
0.0
 10
806.888021
 20
166.455188
 30
0.0
 10
806.507627
 20
165.536836
 30
0.0
  0
SPLINE
  5
1b1
100
AcDbEntity
  8
01_hitbox_button_layout
 62
1
100
AcDbSpline
 70
8
 71
3
 72
8
 73
4
 74
0
 40
0
 40
0
 40
0
 40
0
 40
1
 40
1
 40
1
 40
1
 10
806.507627
 20
165.536836
 30
0.0
 10
806.127233
 20
164.618484
 30
0.0
 10
806.337497
 20
163.561415
 30
0.0
 10
807.040374
 20
162.858538
 30
0.0
  0
SPLINE
  5
1b2
100
AcDbEntity
  8
01_hitbox_button_layout
 62
1
100
AcDbSpline
 70
8
 71
3
 72
8
 73
4
 74
0
 40
0
 40
0
 40
0
 40
0
 40
1
 40
1
 40
1
 40
1
 10
807.040374
 20
162.858538
 30
0.0
 10
807.743250
 20
162.155662
 30
0.0
 10
808.800319
 20
161.945398
 30
0.0
 10
809.718672
 20
162.325792
 30
0.0
  0
SPLINE
  5
1b3
100
AcDbEntity
  8
01_hitbox_button_layout
 62
1
100
AcDbSpline
 70
8
 71
3
 72
8
 73
4
 74
0
 40
0
 40
0
 40
0
 40
0
 40
1
 40
1
 40
1
 40
1
 10
809.718672
 20
162.325792
 30
0.0
 10
810.637024
 20
162.706186
 30
0.0
 10
811.235805
 20
163.602326
 30
0.0
 10
811.235805
 20
164.596343
 30
0.0
  0
SPLINE
  5
1b4
100
AcDbEntity
  8
01_hitbox_button_layout
 62
1
100
AcDbSpline
 70
8
 71
3
 72
8
 73
4
 74
0
 40
0
 40
0
 40
0
 40
0
 40
1
 40
1
 40
1
 40
1
 10
811.235805
 20
164.596343
 30
0.0
 10
811.235805
 20
165.248146
 30
0.0
 10
810.976878
 20
165.873253
 30
0.0
 10
810.515983
 20
166.334148
 30
0.0
  0
SPLINE
  5
1b5
100
AcDbEntity
  8
01_hitbox_button_layout
 62
1
100
AcDbSpline
 70
8
 71
3
 72
8
 73
4
 74
0
 40
0
 40
0
 40
0
 40
0
 40
1
 40
1
 40
1
 40
1
 10
810.515983
 20
166.334148
 30
0.0
 10
810.055089
 20
166.795042
 30
0.0
 10
809.429982
 20
167.053970
 30
0.0
 10
808.778178
 20
167.053970
 30
0.0
  0
LWPOLYLINE
  5
1b6
100
AcDbEntity
  8
01_hitbox_button_layout
 62
1
100
AcDbPolyline
 90
1
 70
1
 10
808.778178
 20
16.961967
 30
0.0
  0
SPLINE
  5
1b7
100
AcDbEntity
  8
01_hitbox_button_layout
 62
1
100
AcDbSpline
 70
8
 71
3
 72
8
 73
4
 74
0
 40
0
 40
0
 40
0
 40
0
 40
1
 40
1
 40
1
 40
1
 10
422.186980
 20
176.553970
 30
0.0
 10
423.180997
 20
176.553970
 30
0.0
 10
424.077137
 20
175.955189
 30
0.0
 10
424.457531
 20
175.036836
 30
0.0
  0
SPLINE
  5
1b8
100
AcDbEntity
  8
01_hitbox_button_layout
 62
1
100
AcDbSpline
 70
8
 71
3
 72
8
 73
4
 74
0
 40
0
 40
0
 40
0
 40
0
 40
1
 40
1
 40
1
 40
1
 10
424.457531
 20
175.036836
 30
0.0
 10
424.837925
 20
174.118484
 30
0.0
 10
424.627661
 20
173.061415
 30
0.0
 10
423.924785
 20
172.358538
 30
0.0
  0
SPLINE
  5
1b9
100
AcDbEntity
  8
01_hitbox_button_layout
 62
1
100
AcDbSpline
 70
8
 71
3
 72
8
 73
4
 74
0
 40
0
 40
0
 40
0
 40
0
 40
1
 40
1
 40
1
 40
1
 10
423.924785
 20
172.358538
 30
0.0
 10
423.221908
 20
171.655662
 30
0.0
 10
422.164839
 20
171.445398
 30
0.0
 10
421.246487
 20
171.825792
 30
0.0
  0
SPLINE
  5
1ba
100
AcDbEntity
  8
01_hitbox_button_layout
 62
1
100
AcDbSpline
 70
8
 71
3
 72
8
 73
4
 74
0
 40
0
 40
0
 40
0
 40
0
 40
1
 40
1
 40
1
 40
1
 10
421.246487
 20
171.825792
 30
0.0
 10
420.328135
 20
172.206186
 30
0.0
 10
419.729353
 20
173.102326
 30
0.0
 10
419.729353
 20
174.096343
 30
0.0
  0
SPLINE
  5
1bb
100
AcDbEntity
  8
01_hitbox_button_layout
 62
1
100
AcDbSpline
 70
8
 71
3
 72
8
 73
4
 74
0
 40
0
 40
0
 40
0
 40
0
 40
1
 40
1
 40
1
 40
1
 10
419.729353
 20
174.096343
 30
0.0
 10
419.729353
 20
174.748146
 30
0.0
 10
419.988281
 20
175.373254
 30
0.0
 10
420.449175
 20
175.834148
 30
0.0
  0
SPLINE
  5
1bc
100
AcDbEntity
  8
01_hitbox_button_layout
 62
1
100
AcDbSpline
 70
8
 71
3
 72
8
 73
4
 74
0
 40
0
 40
0
 40
0
 40
0
 40
1
 40
1
 40
1
 40
1
 10
420.449175
 20
175.834148
 30
0.0
 10
420.910070
 20
176.295043
 30
0.0
 10
421.535177
 20
176.553970
 30
0.0
 10
422.186980
 20
176.553970
 30
0.0
  0
LWPOLYLINE
  5
1bd
100
AcDbEntity
  8
01_hitbox_button_layout
 62
1
100
AcDbPolyline
 90
1
 70
1
 10
808.778178
 20
167.053970
 30
0.0
  0
SPLINE
  5
1be
100
AcDbEntity
  8
01_hitbox_button_layout
 62
1
100
AcDbSpline
 70
8
 71
3
 72
8
 73
4
 74
0
 40
0
 40
0
 40
0
 40
0
 40
1
 40
1
 40
1
 40
1
 10
799.277990
 20
176.553970
 30
0.0
 10
800.272007
 20
176.553970
 30
0.0
 10
801.168147
 20
175.955189
 30
0.0
 10
801.548541
 20
175.036836
 30
0.0
  0
SPLINE
  5
1bf
100
AcDbEntity
  8
01_hitbox_button_layout
 62
1
100
AcDbSpline
 70
8
 71
3
 72
8
 73
4
 74
0
 40
0
 40
0
 40
0
 40
0
 40
1
 40
1
 40
1
 40
1
 10
801.548541
 20
175.036836
 30
0.0
 10
801.928935
 20
174.118484
 30
0.0
 10
801.718671
 20
173.061415
 30
0.0
 10
801.015795
 20
172.358538
 30
0.0
  0
SPLINE
  5
1c0
100
AcDbEntity
  8
01_hitbox_button_layout
 62
1
100
AcDbSpline
 70
8
 71
3
 72
8
 73
4
 74
0
 40
0
 40
0
 40
0
 40
0
 40
1
 40
1
 40
1
 40
1
 10
801.015795
 20
172.358538
 30
0.0
 10
800.312918
 20
171.655662
 30
0.0
 10
799.255849
 20
171.445398
 30
0.0
 10
798.337497
 20
171.825792
 30
0.0
  0
SPLINE
  5
1c1
100
AcDbEntity
  8
01_hitbox_button_layout
 62
1
100
AcDbSpline
 70
8
 71
3
 72
8
 73
4
 74
0
 40
0
 40
0
 40
0
 40
0
 40
1
 40
1
 40
1
 40
1
 10
798.337497
 20
171.825792
 30
0.0
 10
797.419145
 20
172.206186
 30
0.0
 10
796.820363
 20
173.102326
 30
0.0
 10
796.820363
 20
174.096343
 30
0.0
  0
SPLINE
  5
1c2
100
AcDbEntity
  8
01_hitbox_button_layout
 62
1
100
AcDbSpline
 70
8
 71
3
 72
8
 73
4
 74
0
 40
0
 40
0
 40
0
 40
0
 40
1
 40
1
 40
1
 40
1
 10
796.820363
 20
174.096343
 30
0.0
 10
796.820363
 20
175.453653
 30
0.0
 10
797.920680
 20
176.553970
 30
0.0
 10
799.277990
 20
176.553970
 30
0.0
  0
LWPOLYLINE
  5
1c3
100
AcDbEntity
  8
01_hitbox_button_layout
 62
1
100
AcDbPolyline
 90
1
 70
1
 10
422.186980
 20
176.553970
 30
0.0
  0
SPLINE
  5
1c4
100
AcDbEntity
  8
01_hitbox_button_layout
 62
1
100
AcDbSpline
 70
8
 71
3
 72
8
 73
4
 74
0
 40
0
 40
0
 40
0
 40
0
 40
1
 40
1
 40
1
 40
1
 10
412.687168
 20
16.961967
 30
0.0
 10
411.693151
 20
16.961967
 30
0.0
 10
410.797011
 20
16.363185
 30
0.0
 10
410.416617
 20
15.444833
 30
0.0
  0
SPLINE
  5
1c5
100
AcDbEntity
  8
01_hitbox_button_layout
 62
1
100
AcDbSpline
 70
8
 71
3
 72
8
 73
4
 74
0
 40
0
 40
0
 40
0
 40
0
 40
1
 40
1
 40
1
 40
1
 10
410.416617
 20
15.444833
 30
0.0
 10
410.036223
 20
14.526481
 30
0.0
 10
410.246487
 20
13.469412
 30
0.0
 10
410.949364
 20
12.766535
 30
0.0
  0
SPLINE
  5
1c6
100
AcDbEntity
  8
01_hitbox_button_layout
 62
1
100
AcDbSpline
 70
8
 71
3
 72
8
 73
4
 74
0
 40
0
 40
0
 40
0
 40
0
 40
1
 40
1
 40
1
 40
1
 10
410.949364
 20
12.766535
 30
0.0
 10
411.652240
 20
12.063659
 30
0.0
 10
412.709309
 20
11.853395
 30
0.0
 10
413.627662
 20
12.233789
 30
0.0
  0
SPLINE
  5
1c7
100
AcDbEntity
  8
01_hitbox_button_layout
 62
1
100
AcDbSpline
 70
8
 71
3
 72
8
 73
4
 74
0
 40
0
 40
0
 40
0
 40
0
 40
1
 40
1
 40
1
 40
1
 10
413.627662
 20
12.233789
 30
0.0
 10
414.546014
 20
12.614183
 30
0.0
 10
415.144795
 20
13.510323
 30
0.0
 10
415.144795
 20
14.504340
 30
0.0
  0
SPLINE
  5
1c8
100
AcDbEntity
  8
01_hitbox_button_layout
 62
1
100
AcDbSpline
 70
8
 71
3
 72
8
 73
4
 74
0
 40
0
 40
0
 40
0
 40
0
 40
1
 40
1
 40
1
 40
1
 10
415.144795
 20
14.504340
 30
0.0
 10
415.144795
 20
15.156143
 30
0.0
 10
414.885868
 20
15.781250
 30
0.0
 10
414.424973
 20
16.242145
 30
0.0
  0
SPLINE
  5
1c9
100
AcDbEntity
  8
01_hitbox_button_layout
 62
1
100
AcDbSpline
 70
8
 71
3
 72
8
 73
4
 74
0
 40
0
 40
0
 40
0
 40
0
 40
1
 40
1
 40
1
 40
1
 10
414.424973
 20
16.242145
 30
0.0
 10
413.964079
 20
16.703039
 30
0.0
 10
413.338972
 20
16.961967
 30
0.0
 10
412.687168
 20
16.961967
 30
0.0
  0
LWPOLYLINE
  5
1ca
100
AcDbEntity
  8
01_hitbox_button_layout
 62
1
100
AcDbPolyline
 90
1
 70
1
 10
799.277990
 20
176.553970
 30
0.0
  0
SPLINE
  5
1cb
100
AcDbEntity
  8
01_hitbox_button_layout
 62
1
100
AcDbSpline
 70
8
 71
3
 72
8
 73
4
 74
0
 40
0
 40
0
 40
0
 40
0
 40
1
 40
1
 40
1
 40
1
 10
412.687168
 20
167.053970
 30
0.0
 10
411.693151
 20
167.053970
 30
0.0
 10
410.797011
 20
166.455188
 30
0.0
 10
410.416617
 20
165.536836
 30
0.0
  0
SPLINE
  5
1cc
100
AcDbEntity
  8
01_hitbox_button_layout
 62
1
100
AcDbSpline
 70
8
 71
3
 72
8
 73
4
 74
0
 40
0
 40
0
 40
0
 40
0
 40
1
 40
1
 40
1
 40
1
 10
410.416617
 20
165.536836
 30
0.0
 10
410.036223
 20
164.618484
 30
0.0
 10
410.246487
 20
163.561415
 30
0.0
 10
410.949364
 20
162.858538
 30
0.0
  0
SPLINE
  5
1cd
100
AcDbEntity
  8
01_hitbox_button_layout
 62
1
100
AcDbSpline
 70
8
 71
3
 72
8
 73
4
 74
0
 40
0
 40
0
 40
0
 40
0
 40
1
 40
1
 40
1
 40
1
 10
410.949364
 20
162.858538
 30
0.0
 10
411.652240
 20
162.155662
 30
0.0
 10
412.709309
 20
161.945398
 30
0.0
 10
413.627662
 20
162.325792
 30
0.0
  0
SPLINE
  5
1ce
100
AcDbEntity
  8
01_hitbox_button_layout
 62
1
100
AcDbSpline
 70
8
 71
3
 72
8
 73
4
 74
0
 40
0
 40
0
 40
0
 40
0
 40
1
 40
1
 40
1
 40
1
 10
413.627662
 20
162.325792
 30
0.0
 10
414.546014
 20
162.706186
 30
0.0
 10
415.144795
 20
163.602326
 30
0.0
 10
415.144795
 20
164.596343
 30
0.0
  0
SPLINE
  5
1cf
100
AcDbEntity
  8
01_hitbox_button_layout
 62
1
100
AcDbSpline
 70
8
 71
3
 72
8
 73
4
 74
0
 40
0
 40
0
 40
0
 40
0
 40
1
 40
1
 40
1
 40
1
 10
415.144795
 20
164.596343
 30
0.0
 10
415.144795
 20
165.248146
 30
0.0
 10
414.885868
 20
165.873253
 30
0.0
 10
414.424973
 20
166.334148
 30
0.0
  0
SPLINE
  5
1d0
100
AcDbEntity
  8
01_hitbox_button_layout
 62
1
100
AcDbSpline
 70
8
 71
3
 72
8
 73
4
 74
0
 40
0
 40
0
 40
0
 40
0
 40
1
 40
1
 40
1
 40
1
 10
414.424973
 20
166.334148
 30
0.0
 10
413.964079
 20
166.795042
 30
0.0
 10
413.338972
 20
167.053970
 30
0.0
 10
412.687168
 20
167.053970
 30
0.0
  0
LWPOLYLINE
  5
1d1
100
AcDbEntity
  8
01_hitbox_button_layout
 62
1
100
AcDbPolyline
 90
1
 70
1
 10
412.687168
 20
16.961967
 30
0.0
  0
SPLINE
  5
1d2
100
AcDbEntity
  8
01_hitbox_button_layout
 62
1
100
AcDbSpline
 70
8
 71
3
 72
8
 73
4
 74
0
 40
0
 40
0
 40
0
 40
0
 40
1
 40
1
 40
1
 40
1
 10
799.278178
 20
7.461967
 30
0.0
 10
798.284161
 20
7.461967
 30
0.0
 10
797.388021
 20
6.863185
 30
0.0
 10
797.007627
 20
5.944833
 30
0.0
  0
SPLINE
  5
1d3
100
AcDbEntity
  8
01_hitbox_button_layout
 62
1
100
AcDbSpline
 70
8
 71
3
 72
8
 73
4
 74
0
 40
0
 40
0
 40
0
 40
0
 40
1
 40
1
 40
1
 40
1
 10
797.007627
 20
5.944833
 30
0.0
 10
796.627233
 20
5.026481
 30
0.0
 10
796.837497
 20
3.969412
 30
0.0
 10
797.540374
 20
3.266535
 30
0.0
  0
SPLINE
  5
1d4
100
AcDbEntity
  8
01_hitbox_button_layout
 62
1
100
AcDbSpline
 70
8
 71
3
 72
8
 73
4
 74
0
 40
0
 40
0
 40
0
 40
0
 40
1
 40
1
 40
1
 40
1
 10
797.540374
 20
3.266535
 30
0.0
 10
798.243250
 20
2.563659
 30
0.0
 10
799.300319
 20
2.353395
 30
0.0
 10
800.218672
 20
2.733789
 30
0.0
  0
SPLINE
  5
1d5
100
AcDbEntity
  8
01_hitbox_button_layout
 62
1
100
AcDbSpline
 70
8
 71
3
 72
8
 73
4
 74
0
 40
0
 40
0
 40
0
 40
0
 40
1
 40
1
 40
1
 40
1
 10
800.218672
 20
2.733789
 30
0.0
 10
801.137024
 20
3.114183
 30
0.0
 10
801.735805
 20
4.010323
 30
0.0
 10
801.735805
 20
5.004340
 30
0.0
  0
SPLINE
  5
1d6
100
AcDbEntity
  8
01_hitbox_button_layout
 62
1
100
AcDbSpline
 70
8
 71
3
 72
8
 73
4
 74
0
 40
0
 40
0
 40
0
 40
0
 40
1
 40
1
 40
1
 40
1
 10
801.735805
 20
5.004340
 30
0.0
 10
801.735805
 20
5.656143
 30
0.0
 10
801.476878
 20
6.281250
 30
0.0
 10
801.015983
 20
6.742145
 30
0.0
  0
SPLINE
  5
1d7
100
AcDbEntity
  8
01_hitbox_button_layout
 62
1
100
AcDbSpline
 70
8
 71
3
 72
8
 73
4
 74
0
 40
0
 40
0
 40
0
 40
0
 40
1
 40
1
 40
1
 40
1
 10
801.015983
 20
6.742145
 30
0.0
 10
800.555089
 20
7.203039
 30
0.0
 10
799.929982
 20
7.461967
 30
0.0
 10
799.278178
 20
7.461967
 30
0.0
  0
LWPOLYLINE
  5
1d8
100
AcDbEntity
  8
01_hitbox_button_layout
 62
1
100
AcDbPolyline
 90
1
 70
1
 10
412.687168
 20
167.053970
 30
0.0
  0
SPLINE
  5
1d9
100
AcDbEntity
  8
01_hitbox_button_layout
 62
1
100
AcDbSpline
 70
8
 71
3
 72
8
 73
4
 74
0
 40
0
 40
0
 40
0
 40
0
 40
1
 40
1
 40
1
 40
1
 10
422.187168
 20
7.461967
 30
0.0
 10
421.193151
 20
7.461967
 30
0.0
 10
420.297011
 20
6.863185
 30
0.0
 10
419.916617
 20
5.944833
 30
0.0
  0
SPLINE
  5
1da
100
AcDbEntity
  8
01_hitbox_button_layout
 62
1
100
AcDbSpline
 70
8
 71
3
 72
8
 73
4
 74
0
 40
0
 40
0
 40
0
 40
0
 40
1
 40
1
 40
1
 40
1
 10
419.916617
 20
5.944833
 30
0.0
 10
419.536223
 20
5.026481
 30
0.0
 10
419.746487
 20
3.969412
 30
0.0
 10
420.449364
 20
3.266535
 30
0.0
  0
SPLINE
  5
1db
100
AcDbEntity
  8
01_hitbox_button_layout
 62
1
100
AcDbSpline
 70
8
 71
3
 72
8
 73
4
 74
0
 40
0
 40
0
 40
0
 40
0
 40
1
 40
1
 40
1
 40
1
 10
420.449364
 20
3.266535
 30
0.0
 10
421.152240
 20
2.563659
 30
0.0
 10
422.209309
 20
2.353395
 30
0.0
 10
423.127662
 20
2.733789
 30
0.0
  0
SPLINE
  5
1dc
100
AcDbEntity
  8
01_hitbox_button_layout
 62
1
100
AcDbSpline
 70
8
 71
3
 72
8
 73
4
 74
0
 40
0
 40
0
 40
0
 40
0
 40
1
 40
1
 40
1
 40
1
 10
423.127662
 20
2.733789
 30
0.0
 10
424.046014
 20
3.114183
 30
0.0
 10
424.644795
 20
4.010323
 30
0.0
 10
424.644795
 20
5.004340
 30
0.0
  0
SPLINE
  5
1dd
100
AcDbEntity
  8
01_hitbox_button_layout
 62
1
100
AcDbSpline
 70
8
 71
3
 72
8
 73
4
 74
0
 40
0
 40
0
 40
0
 40
0
 40
1
 40
1
 40
1
 40
1
 10
424.644795
 20
5.004340
 30
0.0
 10
424.644795
 20
6.361650
 30
0.0
 10
423.544478
 20
7.461967
 30
0.0
 10
422.187168
 20
7.461967
 30
0.0
  0
LWPOLYLINE
  5
1de
100
AcDbEntity
  8
01_hitbox_button_layout
 62
1
100
AcDbPolyline
 90
1
 70
1
 10
799.278178
 20
7.461967
 30
0.0
  0
LWPOLYLINE
  5
1df
100
AcDbEntity
  8
01_hitbox_button_layout
 62
1
100
AcDbPolyline
 90
1
 70
1
 10
422.187168
 20
7.461967
 30
0.0
  0
SPLINE
  5
1e0
100
AcDbEntity
  8
01_hitbox_button_layout
 62
1
100
AcDbSpline
 70
8
 71
3
 72
8
 73
4
 74
0
 40
0
 40
0
 40
0
 40
0
 40
1
 40
1
 40
1
 40
1
 10
398.550180
 20
179.050010
 30
0.0
 10
400.539304
 20
179.050010
 30
0.0
 10
402.446958
 20
178.259834
 30
0.0
 10
403.853481
 20
176.853311
 30
0.0
  0
SPLINE
  5
1e1
100
AcDbEntity
  8
01_hitbox_button_layout
 62
1
100
AcDbSpline
 70
8
 71
3
 72
8
 73
4
 74
0
 40
0
 40
0
 40
0
 40
0
 40
1
 40
1
 40
1
 40
1
 10
403.853481
 20
176.853311
 30
0.0
 10
405.260004
 20
175.446788
 30
0.0
 10
406.050180
 20
173.539134
 30
0.0
 10
406.050180
 20
171.550010
 30
0.0
  0
LWPOLYLINE
  5
1e2
100
AcDbEntity
  8
01_hitbox_button_layout
 62
1
100
AcDbPolyline
 90
2
 70
0
 10
7.550180
 20
179.050010
 30
0.0
 10
398.550180
 20
179.050010
 30
0.0
  0
SPLINE
  5
1e3
100
AcDbEntity
  8
01_hitbox_button_layout
 62
1
100
AcDbSpline
 70
8
 71
3
 72
8
 73
4
 74
0
 40
0
 40
0
 40
0
 40
0
 40
1
 40
1
 40
1
 40
1
 10
406.050180
 20
7.550010
 30
0.0
 10
406.050180
 20
5.560886
 30
0.0
 10
405.260004
 20
3.653232
 30
0.0
 10
403.853481
 20
2.246709
 30
0.0
  0
SPLINE
  5
1e4
100
AcDbEntity
  8
01_hitbox_button_layout
 62
1
100
AcDbSpline
 70
8
 71
3
 72
8
 73
4
 74
0
 40
0
 40
0
 40
0
 40
0
 40
1
 40
1
 40
1
 40
1
 10
403.853481
 20
2.246709
 30
0.0
 10
402.446958
 20
0.840186
 30
0.0
 10
400.539304
 20
0.050010
 30
0.0
 10
398.550180
 20
0.050010
 30
0.0
  0
LWPOLYLINE
  5
1e5
100
AcDbEntity
  8
01_hitbox_button_layout
 62
1
100
AcDbPolyline
 90
2
 70
0
 10
406.050180
 20
171.550010
 30
0.0
 10
406.050180
 20
7.550010
 30
0.0
  0
SPLINE
  5
1e6
100
AcDbEntity
  8
01_hitbox_button_layout
 62
1
100
AcDbSpline
 70
8
 71
3
 72
8
 73
4
 74
0
 40
0
 40
0
 40
0
 40
0
 40
1
 40
1
 40
1
 40
1
 10
7.550180
 20
0.050010
 30
0.0
 10
5.561056
 20
0.050010
 30
0.0
 10
3.653402
 20
0.840186
 30
0.0
 10
2.246879
 20
2.246709
 30
0.0
  0
SPLINE
  5
1e7
100
AcDbEntity
  8
01_hitbox_button_layout
 62
1
100
AcDbSpline
 70
8
 71
3
 72
8
 73
4
 74
0
 40
0
 40
0
 40
0
 40
0
 40
1
 40
1
 40
1
 40
1
 10
2.246879
 20
2.246709
 30
0.0
 10
0.840356
 20
3.653232
 30
0.0
 10
0.050180
 20
5.560886
 30
0.0
 10
0.050180
 20
7.550010
 30
0.0
  0
LWPOLYLINE
  5
1e8
100
AcDbEntity
  8
01_hitbox_button_layout
 62
1
100
AcDbPolyline
 90
2
 70
0
 10
398.550180
 20
0.050010
 30
0.0
 10
7.550180
 20
0.050010
 30
0.0
  0
SPLINE
  5
1e9
100
AcDbEntity
  8
01_hitbox_button_layout
 62
1
100
AcDbSpline
 70
8
 71
3
 72
8
 73
4
 74
0
 40
0
 40
0
 40
0
 40
0
 40
1
 40
1
 40
1
 40
1
 10
0.050180
 20
171.550010
 30
0.0
 10
0.050180
 20
173.539134
 30
0.0
 10
0.840356
 20
175.446788
 30
0.0
 10
2.246879
 20
176.853311
 30
0.0
  0
SPLINE
  5
1ea
100
AcDbEntity
  8
01_hitbox_button_layout
 62
1
100
AcDbSpline
 70
8
 71
3
 72
8
 73
4
 74
0
 40
0
 40
0
 40
0
 40
0
 40
1
 40
1
 40
1
 40
1
 10
2.246879
 20
176.853311
 30
0.0
 10
3.653402
 20
178.259834
 30
0.0
 10
5.561056
 20
179.050010
 30
0.0
 10
7.550180
 20
179.050010
 30
0.0
  0
LWPOLYLINE
  5
1eb
100
AcDbEntity
  8
01_hitbox_button_layout
 62
1
100
AcDbPolyline
 90
2
 70
0
 10
0.050180
 20
7.550010
 30
0.0
 10
0.050180
 20
171.550010
 30
0.0
  0
SPLINE
  5
1ec
100
AcDbEntity
  8
01_hitbox_button_layout
 62
1
100
AcDbSpline
 70
8
 71
3
 72
8
 73
4
 74
0
 40
0
 40
0
 40
0
 40
0
 40
1
 40
1
 40
1
 40
1
 10
224.792485
 20
85.828323
 30
0.0
 10
224.791093
 20
92.454748
 30
0.0
 10
219.418925
 20
97.825788
 30
0.0
 10
212.792500
 20
97.825788
 30
0.0
  0
SPLINE
  5
1ed
100
AcDbEntity
  8
01_hitbox_button_layout
 62
1
100
AcDbSpline
 70
8
 71
3
 72
8
 73
4
 74
0
 40
0
 40
0
 40
0
 40
0
 40
1
 40
1
 40
1
 40
1
 10
212.792500
 20
97.825788
 30
0.0
 10
206.166076
 20
97.825788
 30
0.0
 10
200.793907
 20
92.454748
 30
0.0
 10
200.792515
 20
85.828323
 30
0.0
  0
SPLINE
  5
1ee
100
AcDbEntity
  8
01_hitbox_button_layout
 62
1
100
AcDbSpline
 70
8
 71
3
 72
8
 73
4
 74
0
 40
0
 40
0
 40
0
 40
0
 40
1
 40
1
 40
1
 40
1
 10
200.792515
 20
85.828323
 30
0.0
 10
200.793907
 20
79.201899
 30
0.0
 10
206.166076
 20
73.830858
 30
0.0
 10
212.792500
 20
73.830858
 30
0.0
  0
SPLINE
  5
1ef
100
AcDbEntity
  8
01_hitbox_button_layout
 62
1
100
AcDbSpline
 70
8
 71
3
 72
8
 73
4
 74
0
 40
0
 40
0
 40
0
 40
0
 40
1
 40
1
 40
1
 40
1
 10
212.792500
 20
73.830858
 30
0.0
 10
219.418925
 20
73.830858
 30
0.0
 10
224.791093
 20
79.201899
 30
0.0
 10
224.792485
 20
85.828323
 30
0.0
  0
LWPOLYLINE
  5
1f0
100
AcDbEntity
  8
01_hitbox_button_layout
 62
1
100
AcDbPolyline
 90
1
 70
1
 10
7.550180
 20
179.050010
 30
0.0
  0
SPLINE
  5
1f1
100
AcDbEntity
  8
01_hitbox_button_layout
 62
1
100
AcDbSpline
 70
8
 71
3
 72
8
 73
4
 74
0
 40
0
 40
0
 40
0
 40
0
 40
1
 40
1
 40
1
 40
1
 10
252.653704
 20
96.844607
 30
0.0
 10
252.652313
 20
103.471031
 30
0.0
 10
247.280144
 20
108.842072
 30
0.0
 10
240.653720
 20
108.842072
 30
0.0
  0
SPLINE
  5
1f2
100
AcDbEntity
  8
01_hitbox_button_layout
 62
1
100
AcDbSpline
 70
8
 71
3
 72
8
 73
4
 74
0
 40
0
 40
0
 40
0
 40
0
 40
1
 40
1
 40
1
 40
1
 10
240.653720
 20
108.842072
 30
0.0
 10
234.027295
 20
108.842072
 30
0.0
 10
228.655127
 20
103.471031
 30
0.0
 10
228.653735
 20
96.844607
 30
0.0
  0
SPLINE
  5
1f3
100
AcDbEntity
  8
01_hitbox_button_layout
 62
1
100
AcDbSpline
 70
8
 71
3
 72
8
 73
4
 74
0
 40
0
 40
0
 40
0
 40
0
 40
1
 40
1
 40
1
 40
1
 10
228.653735
 20
96.844607
 30
0.0
 10
228.655127
 20
90.218182
 30
0.0
 10
234.027295
 20
84.847142
 30
0.0
 10
240.653720
 20
84.847142
 30
0.0
  0
SPLINE
  5
1f4
100
AcDbEntity
  8
01_hitbox_button_layout
 62
1
100
AcDbSpline
 70
8
 71
3
 72
8
 73
4
 74
0
 40
0
 40
0
 40
0
 40
0
 40
1
 40
1
 40
1
 40
1
 10
240.653720
 20
84.847142
 30
0.0
 10
247.280144
 20
84.847142
 30
0.0
 10
252.652313
 20
90.218182
 30
0.0
 10
252.653704
 20
96.844607
 30
0.0
  0
LWPOLYLINE
  5
1f5
100
AcDbEntity
  8
01_hitbox_button_layout
 62
1
100
AcDbPolyline
 90
1
 70
1
 10
224.792485
 20
85.828323
 30
0.0
  0
SPLINE
  5
1f6
100
AcDbEntity
  8
01_hitbox_button_layout
 62
1
100
AcDbSpline
 70
8
 71
3
 72
8
 73
4
 74
0
 40
0
 40
0
 40
0
 40
0
 40
1
 40
1
 40
1
 40
1
 10
313.191216
 20
92.098961
 30
0.0
 10
313.183473
 20
98.720887
 30
0.0
 10
307.813169
 20
104.084916
 30
0.0
 10
301.191239
 20
104.084916
 30
0.0
  0
SPLINE
  5
1f7
100
AcDbEntity
  8
01_hitbox_button_layout
 62
1
100
AcDbSpline
 70
8
 71
3
 72
8
 73
4
 74
0
 40
0
 40
0
 40
0
 40
0
 40
1
 40
1
 40
1
 40
1
 10
301.191239
 20
104.084916
 30
0.0
 10
294.569309
 20
104.084916
 30
0.0
 10
289.199004
 20
98.720887
 30
0.0
 10
289.191262
 20
92.098961
 30
0.0
  0
SPLINE
  5
1f8
100
AcDbEntity
  8
01_hitbox_button_layout
 62
1
100
AcDbSpline
 70
8
 71
3
 72
8
 73
4
 74
0
 40
0
 40
0
 40
0
 40
0
 40
1
 40
1
 40
1
 40
1
 10
289.191262
 20
92.098961
 30
0.0
 10
289.199004
 20
85.477036
 30
0.0
 10
294.569309
 20
80.113007
 30
0.0
 10
301.191239
 20
80.113007
 30
0.0
  0
SPLINE
  5
1f9
100
AcDbEntity
  8
01_hitbox_button_layout
 62
1
100
AcDbSpline
 70
8
 71
3
 72
8
 73
4
 74
0
 40
0
 40
0
 40
0
 40
0
 40
1
 40
1
 40
1
 40
1
 10
301.191239
 20
80.113007
 30
0.0
 10
307.813169
 20
80.113007
 30
0.0
 10
313.183473
 20
85.477036
 30
0.0
 10
313.191216
 20
92.098961
 30
0.0
  0
LWPOLYLINE
  5
1fa
100
AcDbEntity
  8
01_hitbox_button_layout
 62
1
100
AcDbPolyline
 90
1
 70
1
 10
252.653704
 20
96.844607
 30
0.0
  0
SPLINE
  5
1fb
100
AcDbEntity
  8
01_hitbox_button_layout
 62
1
100
AcDbSpline
 70
8
 71
3
 72
8
 73
4
 74
0
 40
0
 40
0
 40
0
 40
0
 40
1
 40
1
 40
1
 40
1
 10
313.520463
 20
123.053291
 30
0.0
 10
313.520463
 20
127.340475
 30
0.0
 10
311.233277
 20
131.301996
 30
0.0
 10
307.520468
 20
133.445587
 30
0.0
  0
SPLINE
  5
1fc
100
AcDbEntity
  8
01_hitbox_button_layout
 62
1
100
AcDbSpline
 70
8
 71
3
 72
8
 73
4
 74
0
 40
0
 40
0
 40
0
 40
0
 40
1
 40
1
 40
1
 40
1
 10
307.520468
 20
133.445587
 30
0.0
 10
303.807658
 20
135.589179
 30
0.0
 10
299.233288
 20
135.589179
 30
0.0
 10
295.520478
 20
133.445587
 30
0.0
  0
SPLINE
  5
1fd
100
AcDbEntity
  8
01_hitbox_button_layout
 62
1
100
AcDbSpline
 70
8
 71
3
 72
8
 73
4
 74
0
 40
0
 40
0
 40
0
 40
0
 40
1
 40
1
 40
1
 40
1
 10
295.520478
 20
133.445587
 30
0.0
 10
291.807668
 20
131.301996
 30
0.0
 10
289.520483
 20
127.340475
 30
0.0
 10
289.520483
 20
123.053291
 30
0.0
  0
SPLINE
  5
1fe
100
AcDbEntity
  8
01_hitbox_button_layout
 62
1
100
AcDbSpline
 70
8
 71
3
 72
8
 73
4
 74
0
 40
0
 40
0
 40
0
 40
0
 40
1
 40
1
 40
1
 40
1
 10
289.520483
 20
123.053291
 30
0.0
 10
289.520483
 20
118.766108
 30
0.0
 10
291.807668
 20
114.804587
 30
0.0
 10
295.520478
 20
112.660995
 30
0.0
  0
SPLINE
  5
1ff
100
AcDbEntity
  8
01_hitbox_button_layout
 62
1
100
AcDbSpline
 70
8
 71
3
 72
8
 73
4
 74
0
 40
0
 40
0
 40
0
 40
0
 40
1
 40
1
 40
1
 40
1
 10
295.520478
 20
112.660995
 30
0.0
 10
299.233288
 20
110.517403
 30
0.0
 10
303.807658
 20
110.517403
 30
0.0
 10
307.520468
 20
112.660995
 30
0.0
  0
SPLINE
  5
200
100
AcDbEntity
  8
01_hitbox_button_layout
 62
1
100
AcDbSpline
 70
8
 71
3
 72
8
 73
4
 74
0
 40
0
 40
0
 40
0
 40
0
 40
1
 40
1
 40
1
 40
1
 10
307.520468
 20
112.660995
 30
0.0
 10
311.233277
 20
114.804587
 30
0.0
 10
313.520463
 20
118.766108
 30
0.0
 10
313.520463
 20
123.053291
 30
0.0
  0
LWPOLYLINE
  5
201
100
AcDbEntity
  8
01_hitbox_button_layout
 62
1
100
AcDbPolyline
 90
1
 70
1
 10
313.191216
 20
92.098961
 30
0.0
  0
SPLINE
  5
202
100
AcDbEntity
  8
01_hitbox_button_layout
 62
1
100
AcDbSpline
 70
8
 71
3
 72
8
 73
4
 74
0
 40
0
 40
0
 40
0
 40
0
 40
1
 40
1
 40
1
 40
1
 10
283.974003
 20
126.140745
 30
0.0
 10
283.970595
 20
132.765742
 30
0.0
 10
278.599018
 20
138.134557
 30
0.0
 10
271.974019
 20
138.134557
 30
0.0
  0
SPLINE
  5
203
100
AcDbEntity
  8
01_hitbox_button_layout
 62
1
100
AcDbSpline
 70
8
 71
3
 72
8
 73
4
 74
0
 40
0
 40
0
 40
0
 40
0
 40
1
 40
1
 40
1
 40
1
 10
271.974019
 20
138.134557
 30
0.0
 10
265.349021
 20
138.134557
 30
0.0
 10
259.977444
 20
132.765742
 30
0.0
 10
259.974036
 20
126.140745
 30
0.0
  0
SPLINE
  5
204
100
AcDbEntity
  8
01_hitbox_button_layout
 62
1
100
AcDbSpline
 70
8
 71
3
 72
8
 73
4
 74
0
 40
0
 40
0
 40
0
 40
0
 40
1
 40
1
 40
1
 40
1
 10
259.974036
 20
126.140745
 30
0.0
 10
259.977444
 20
119.515747
 30
0.0
 10
265.349021
 20
114.146932
 30
0.0
 10
271.974019
 20
114.146932
 30
0.0
  0
SPLINE
  5
205
100
AcDbEntity
  8
01_hitbox_button_layout
 62
1
100
AcDbSpline
 70
8
 71
3
 72
8
 73
4
 74
0
 40
0
 40
0
 40
0
 40
0
 40
1
 40
1
 40
1
 40
1
 10
271.974019
 20
114.146932
 30
0.0
 10
278.599018
 20
114.146932
 30
0.0
 10
283.970595
 20
119.515747
 30
0.0
 10
283.974003
 20
126.140745
 30
0.0
  0
LWPOLYLINE
  5
206
100
AcDbEntity
  8
01_hitbox_button_layout
 62
1
100
AcDbPolyline
 90
1
 70
1
 10
313.520463
 20
123.053291
 30
0.0
  0
SPLINE
  5
207
100
AcDbEntity
  8
01_hitbox_button_layout
 62
1
100
AcDbSpline
 70
8
 71
3
 72
8
 73
4
 74
0
 40
0
 40
0
 40
0
 40
0
 40
1
 40
1
 40
1
 40
1
 10
254.331886
 20
126.948472
 30
0.0
 10
254.330494
 20
133.574896
 30
0.0
 10
248.958326
 20
138.945937
 30
0.0
 10
242.331901
 20
138.945937
 30
0.0
  0
SPLINE
  5
208
100
AcDbEntity
  8
01_hitbox_button_layout
 62
1
100
AcDbSpline
 70
8
 71
3
 72
8
 73
4
 74
0
 40
0
 40
0
 40
0
 40
0
 40
1
 40
1
 40
1
 40
1
 10
242.331901
 20
138.945937
 30
0.0
 10
235.705476
 20
138.945937
 30
0.0
 10
230.333308
 20
133.574896
 30
0.0
 10
230.331916
 20
126.948472
 30
0.0
  0
SPLINE
  5
209
100
AcDbEntity
  8
01_hitbox_button_layout
 62
1
100
AcDbSpline
 70
8
 71
3
 72
8
 73
4
 74
0
 40
0
 40
0
 40
0
 40
0
 40
1
 40
1
 40
1
 40
1
 10
230.331916
 20
126.948472
 30
0.0
 10
230.333308
 20
120.322047
 30
0.0
 10
235.705476
 20
114.951007
 30
0.0
 10
242.331901
 20
114.951007
 30
0.0
  0
SPLINE
  5
20a
100
AcDbEntity
  8
01_hitbox_button_layout
 62
1
100
AcDbSpline
 70
8
 71
3
 72
8
 73
4
 74
0
 40
0
 40
0
 40
0
 40
0
 40
1
 40
1
 40
1
 40
1
 10
242.331901
 20
114.951007
 30
0.0
 10
248.958326
 20
114.951007
 30
0.0
 10
254.330494
 20
120.322047
 30
0.0
 10
254.331886
 20
126.948472
 30
0.0
  0
LWPOLYLINE
  5
20b
100
AcDbEntity
  8
01_hitbox_button_layout
 62
1
100
AcDbPolyline
 90
1
 70
1
 10
283.974003
 20
126.140745
 30
0.0
  0
SPLINE
  5
20c
100
AcDbEntity
  8
01_hitbox_button_layout
 62
1
100
AcDbSpline
 70
8
 71
3
 72
8
 73
4
 74
0
 40
0
 40
0
 40
0
 40
0
 40
1
 40
1
 40
1
 40
1
 10
227.414000
 20
115.226603
 30
0.0
 10
227.412608
 20
121.853028
 30
0.0
 10
222.040440
 20
127.224068
 30
0.0
 10
215.414015
 20
127.224068
 30
0.0
  0
SPLINE
  5
20d
100
AcDbEntity
  8
01_hitbox_button_layout
 62
1
100
AcDbSpline
 70
8
 71
3
 72
8
 73
4
 74
0
 40
0
 40
0
 40
0
 40
0
 40
1
 40
1
 40
1
 40
1
 10
215.414015
 20
127.224068
 30
0.0
 10
208.787590
 20
127.224068
 30
0.0
 10
203.415422
 20
121.853028
 30
0.0
 10
203.414030
 20
115.226603
 30
0.0
  0
SPLINE
  5
20e
100
AcDbEntity
  8
01_hitbox_button_layout
 62
1
100
AcDbSpline
 70
8
 71
3
 72
8
 73
4
 74
0
 40
0
 40
0
 40
0
 40
0
 40
1
 40
1
 40
1
 40
1
 10
203.414030
 20
115.226603
 30
0.0
 10
203.415422
 20
108.600179
 30
0.0
 10
208.787590
 20
103.229138
 30
0.0
 10
215.414015
 20
103.229138
 30
0.0
  0
SPLINE
  5
20f
100
AcDbEntity
  8
01_hitbox_button_layout
 62
1
100
AcDbSpline
 70
8
 71
3
 72
8
 73
4
 74
0
 40
0
 40
0
 40
0
 40
0
 40
1
 40
1
 40
1
 40
1
 10
215.414015
 20
103.229138
 30
0.0
 10
222.040440
 20
103.229138
 30
0.0
 10
227.412608
 20
108.600179
 30
0.0
 10
227.414000
 20
115.226603
 30
0.0
  0
LWPOLYLINE
  5
210
100
AcDbEntity
  8
01_hitbox_button_layout
 62
1
100
AcDbPolyline
 90
1
 70
1
 10
254.331886
 20
126.948472
 30
0.0
  0
SPLINE
  5
211
100
AcDbEntity
  8
01_hitbox_button_layout
 62
1
100
AcDbSpline
 70
8
 71
3
 72
8
 73
4
 74
0
 40
0
 40
0
 40
0
 40
0
 40
1
 40
1
 40
1
 40
1
 10
199.575137
 20
103.210207
 30
0.0
 10
199.573746
 20
109.836631
 30
0.0
 10
194.201577
 20
115.207672
 30
0.0
 10
187.575153
 20
115.207672
 30
0.0
  0
SPLINE
  5
212
100
AcDbEntity
  8
01_hitbox_button_layout
 62
1
100
AcDbSpline
 70
8
 71
3
 72
8
 73
4
 74
0
 40
0
 40
0
 40
0
 40
0
 40
1
 40
1
 40
1
 40
1
 10
187.575153
 20
115.207672
 30
0.0
 10
180.948728
 20
115.207672
 30
0.0
 10
175.576559
 20
109.836631
 30
0.0
 10
175.575168
 20
103.210207
 30
0.0
  0
SPLINE
  5
213
100
AcDbEntity
  8
01_hitbox_button_layout
 62
1
100
AcDbSpline
 70
8
 71
3
 72
8
 73
4
 74
0
 40
0
 40
0
 40
0
 40
0
 40
1
 40
1
 40
1
 40
1
 10
175.575168
 20
103.210207
 30
0.0
 10
175.576559
 20
96.583782
 30
0.0
 10
180.948728
 20
91.212741
 30
0.0
 10
187.575153
 20
91.212741
 30
0.0
  0
SPLINE
  5
214
100
AcDbEntity
  8
01_hitbox_button_layout
 62
1
100
AcDbSpline
 70
8
 71
3
 72
8
 73
4
 74
0
 40
0
 40
0
 40
0
 40
0
 40
1
 40
1
 40
1
 40
1
 10
187.575153
 20
91.212741
 30
0.0
 10
194.201577
 20
91.212741
 30
0.0
 10
199.573746
 20
96.583782
 30
0.0
 10
199.575137
 20
103.210207
 30
0.0
  0
LWPOLYLINE
  5
215
100
AcDbEntity
  8
01_hitbox_button_layout
 62
1
100
AcDbPolyline
 90
1
 70
1
 10
227.414000
 20
115.226603
 30
0.0
  0
SPLINE
  5
216
100
AcDbEntity
  8
01_hitbox_button_layout
 62
1
100
AcDbSpline
 70
8
 71
3
 72
8
 73
4
 74
0
 40
0
 40
0
 40
0
 40
0
 40
1
 40
1
 40
1
 40
1
 10
173.263086
 20
116.106548
 30
0.0
 10
173.261694
 20
122.732973
 30
0.0
 10
167.889525
 20
128.104013
 30
0.0
 10
161.263101
 20
128.104013
 30
0.0
  0
SPLINE
  5
217
100
AcDbEntity
  8
01_hitbox_button_layout
 62
1
100
AcDbSpline
 70
8
 71
3
 72
8
 73
4
 74
0
 40
0
 40
0
 40
0
 40
0
 40
1
 40
1
 40
1
 40
1
 10
161.263101
 20
128.104013
 30
0.0
 10
154.636676
 20
128.104013
 30
0.0
 10
149.264508
 20
122.732973
 30
0.0
 10
149.263116
 20
116.106548
 30
0.0
  0
SPLINE
  5
218
100
AcDbEntity
  8
01_hitbox_button_layout
 62
1
100
AcDbSpline
 70
8
 71
3
 72
8
 73
4
 74
0
 40
0
 40
0
 40
0
 40
0
 40
1
 40
1
 40
1
 40
1
 10
149.263116
 20
116.106548
 30
0.0
 10
149.264508
 20
109.480124
 30
0.0
 10
154.636676
 20
104.109083
 30
0.0
 10
161.263101
 20
104.109083
 30
0.0
  0
SPLINE
  5
219
100
AcDbEntity
  8
01_hitbox_button_layout
 62
1
100
AcDbSpline
 70
8
 71
3
 72
8
 73
4
 74
0
 40
0
 40
0
 40
0
 40
0
 40
1
 40
1
 40
1
 40
1
 10
161.263101
 20
104.109083
 30
0.0
 10
167.889525
 20
104.109083
 30
0.0
 10
173.261694
 20
109.480124
 30
0.0
 10
173.263086
 20
116.106548
 30
0.0
  0
LWPOLYLINE
  5
21a
100
AcDbEntity
  8
01_hitbox_button_layout
 62
1
100
AcDbPolyline
 90
1
 70
1
 10
199.575137
 20
103.210207
 30
0.0
  0
SPLINE
  5
21b
100
AcDbEntity
  8
01_hitbox_button_layout
 62
1
100
AcDbSpline
 70
8
 71
3
 72
8
 73
4
 74
0
 40
0
 40
0
 40
0
 40
0
 40
1
 40
1
 40
1
 40
1
 10
143.723066
 20
116.017783
 30
0.0
 10
143.721674
 20
122.644208
 30
0.0
 10
138.349506
 20
128.015248
 30
0.0
 10
131.723081
 20
128.015248
 30
0.0
  0
SPLINE
  5
21c
100
AcDbEntity
  8
01_hitbox_button_layout
 62
1
100
AcDbSpline
 70
8
 71
3
 72
8
 73
4
 74
0
 40
0
 40
0
 40
0
 40
0
 40
1
 40
1
 40
1
 40
1
 10
131.723081
 20
128.015248
 30
0.0
 10
125.096656
 20
128.015248
 30
0.0
 10
119.724488
 20
122.644208
 30
0.0
 10
119.723096
 20
116.017783
 30
0.0
  0
SPLINE
  5
21d
100
AcDbEntity
  8
01_hitbox_button_layout
 62
1
100
AcDbSpline
 70
8
 71
3
 72
8
 73
4
 74
0
 40
0
 40
0
 40
0
 40
0
 40
1
 40
1
 40
1
 40
1
 10
119.723096
 20
116.017783
 30
0.0
 10
119.724488
 20
109.391359
 30
0.0
 10
125.096656
 20
104.020318
 30
0.0
 10
131.723081
 20
104.020318
 30
0.0
  0
SPLINE
  5
21e
100
AcDbEntity
  8
01_hitbox_button_layout
 62
1
100
AcDbSpline
 70
8
 71
3
 72
8
 73
4
 74
0
 40
0
 40
0
 40
0
 40
0
 40
1
 40
1
 40
1
 40
1
 10
131.723081
 20
104.020318
 30
0.0
 10
138.349506
 20
104.020318
 30
0.0
 10
143.721674
 20
109.391359
 30
0.0
 10
143.723066
 20
116.017783
 30
0.0
  0
LWPOLYLINE
  5
21f
100
AcDbEntity
  8
01_hitbox_button_layout
 62
1
100
AcDbPolyline
 90
1
 70
1
 10
173.263086
 20
116.106548
 30
0.0
  0
SPLINE
  5
220
100
AcDbEntity
  8
01_hitbox_button_layout
 62
1
100
AcDbSpline
 70
8
 71
3
 72
8
 73
4
 74
0
 40
0
 40
0
 40
0
 40
0
 40
1
 40
1
 40
1
 40
1
 10
283.804273
 20
97.119781
 30
0.0
 10
283.804273
 20
101.406965
 30
0.0
 10
281.517088
 20
105.368485
 30
0.0
 10
277.804278
 20
107.512077
 30
0.0
  0
SPLINE
  5
221
100
AcDbEntity
  8
01_hitbox_button_layout
 62
1
100
AcDbSpline
 70
8
 71
3
 72
8
 73
4
 74
0
 40
0
 40
0
 40
0
 40
0
 40
1
 40
1
 40
1
 40
1
 10
277.804278
 20
107.512077
 30
0.0
 10
274.091468
 20
109.655669
 30
0.0
 10
269.517098
 20
109.655669
 30
0.0
 10
265.804288
 20
107.512077
 30
0.0
  0
SPLINE
  5
222
100
AcDbEntity
  8
01_hitbox_button_layout
 62
1
100
AcDbSpline
 70
8
 71
3
 72
8
 73
4
 74
0
 40
0
 40
0
 40
0
 40
0
 40
1
 40
1
 40
1
 40
1
 10
265.804288
 20
107.512077
 30
0.0
 10
262.091478
 20
105.368485
 30
0.0
 10
259.804293
 20
101.406965
 30
0.0
 10
259.804293
 20
97.119781
 30
0.0
  0
SPLINE
  5
223
100
AcDbEntity
  8
01_hitbox_button_layout
 62
1
100
AcDbSpline
 70
8
 71
3
 72
8
 73
4
 74
0
 40
0
 40
0
 40
0
 40
0
 40
1
 40
1
 40
1
 40
1
 10
259.804293
 20
97.119781
 30
0.0
 10
259.804293
 20
92.832598
 30
0.0
 10
262.091478
 20
88.871077
 30
0.0
 10
265.804288
 20
86.727485
 30
0.0
  0
SPLINE
  5
224
100
AcDbEntity
  8
01_hitbox_button_layout
 62
1
100
AcDbSpline
 70
8
 71
3
 72
8
 73
4
 74
0
 40
0
 40
0
 40
0
 40
0
 40
1
 40
1
 40
1
 40
1
 10
265.804288
 20
86.727485
 30
0.0
 10
269.517098
 20
84.583893
 30
0.0
 10
274.091468
 20
84.583893
 30
0.0
 10
277.804278
 20
86.727485
 30
0.0
  0
SPLINE
  5
225
100
AcDbEntity
  8
01_hitbox_button_layout
 62
1
100
AcDbSpline
 70
8
 71
3
 72
8
 73
4
 74
0
 40
0
 40
0
 40
0
 40
0
 40
1
 40
1
 40
1
 40
1
 10
277.804278
 20
86.727485
 30
0.0
 10
281.517088
 20
88.871077
 30
0.0
 10
283.804273
 20
92.832598
 30
0.0
 10
283.804273
 20
97.119781
 30
0.0
  0
LWPOLYLINE
  5
226
100
AcDbEntity
  8
01_hitbox_button_layout
 62
1
100
AcDbPolyline
 90
1
 70
1
 10
143.723066
 20
116.017783
 30
0.0
  0
SPLINE
  5
227
100
AcDbEntity
  8
01_hitbox_button_layout
 62
1
100
AcDbSpline
 70
8
 71
3
 72
8
 73
4
 74
0
 40
0
 40
0
 40
0
 40
0
 40
1
 40
1
 40
1
 40
1
 10
218.050338
 20
50.757685
 30
0.0
 10
218.050338
 20
56.116662
 30
0.0
 10
215.191358
 20
61.068562
 30
0.0
 10
210.550348
 20
63.748050
 30
0.0
  0
SPLINE
  5
228
100
AcDbEntity
  8
01_hitbox_button_layout
 62
1
100
AcDbSpline
 70
8
 71
3
 72
8
 73
4
 74
0
 40
0
 40
0
 40
0
 40
0
 40
1
 40
1
 40
1
 40
1
 10
210.550348
 20
63.748050
 30
0.0
 10
205.909337
 20
66.427539
 30
0.0
 10
200.191377
 20
66.427539
 30
0.0
 10
195.550366
 20
63.748050
 30
0.0
  0
SPLINE
  5
229
100
AcDbEntity
  8
01_hitbox_button_layout
 62
1
100
AcDbSpline
 70
8
 71
3
 72
8
 73
4
 74
0
 40
0
 40
0
 40
0
 40
0
 40
1
 40
1
 40
1
 40
1
 10
195.550366
 20
63.748050
 30
0.0
 10
190.909356
 20
61.068562
 30
0.0
 10
188.050375
 20
56.116662
 30
0.0
 10
188.050375
 20
50.757685
 30
0.0
  0
SPLINE
  5
22a
100
AcDbEntity
  8
01_hitbox_button_layout
 62
1
100
AcDbSpline
 70
8
 71
3
 72
8
 73
4
 74
0
 40
0
 40
0
 40
0
 40
0
 40
1
 40
1
 40
1
 40
1
 10
188.050375
 20
50.757685
 30
0.0
 10
188.050375
 20
45.398708
 30
0.0
 10
190.909356
 20
40.446809
 30
0.0
 10
195.550366
 20
37.767320
 30
0.0
  0
SPLINE
  5
22b
100
AcDbEntity
  8
01_hitbox_button_layout
 62
1
100
AcDbSpline
 70
8
 71
3
 72
8
 73
4
 74
0
 40
0
 40
0
 40
0
 40
0
 40
1
 40
1
 40
1
 40
1
 10
195.550366
 20
37.767320
 30
0.0
 10
200.191377
 20
35.087831
 30
0.0
 10
205.909337
 20
35.087831
 30
0.0
 10
210.550348
 20
37.767320
 30
0.0
  0
SPLINE
  5
22c
100
AcDbEntity
  8
01_hitbox_button_layout
 62
1
100
AcDbSpline
 70
8
 71
3
 72
8
 73
4
 74
0
 40
0
 40
0
 40
0
 40
0
 40
1
 40
1
 40
1
 40
1
 10
210.550348
 20
37.767320
 30
0.0
 10
215.191358
 20
40.446809
 30
0.0
 10
218.050338
 20
45.398708
 30
0.0
 10
218.050338
 20
50.757685
 30
0.0
  0
LWPOLYLINE
  5
22d
100
AcDbEntity
  8
01_hitbox_button_layout
 62
1
100
AcDbPolyline
 90
1
 70
1
 10
283.804273
 20
97.119781
 30
0.0
  0
SPLINE
  5
22e
100
AcDbEntity
  8
01_hitbox_button_layout
 62
1
100
AcDbSpline
 70
8
 71
3
 72
8
 73
4
 74
0
 40
0
 40
0
 40
0
 40
0
 40
1
 40
1
 40
1
 40
1
 10
5.004698
 20
15.704340
 30
0.0
 10
4.519344
 20
15.704340
 30
0.0
 10
4.081780
 20
15.411969
 30
0.0
 10
3.896043
 20
14.963560
 30
0.0
  0
SPLINE
  5
22f
100
AcDbEntity
  8
01_hitbox_button_layout
 62
1
100
AcDbSpline
 70
8
 71
3
 72
8
 73
4
 74
0
 40
0
 40
0
 40
0
 40
0
 40
1
 40
1
 40
1
 40
1
 10
3.896043
 20
14.963560
 30
0.0
 10
3.710306
 20
14.515151
 30
0.0
 10
3.812973
 20
13.999009
 30
0.0
 10
4.156170
 20
13.655812
 30
0.0
  0
SPLINE
  5
230
100
AcDbEntity
  8
01_hitbox_button_layout
 62
1
100
AcDbSpline
 70
8
 71
3
 72
8
 73
4
 74
0
 40
0
 40
0
 40
0
 40
0
 40
1
 40
1
 40
1
 40
1
 10
4.156170
 20
13.655812
 30
0.0
 10
4.499368
 20
13.312614
 30
0.0
 10
5.015509
 20
13.209947
 30
0.0
 10
5.463918
 20
13.395685
 30
0.0
  0
SPLINE
  5
231
100
AcDbEntity
  8
01_hitbox_button_layout
 62
1
100
AcDbSpline
 70
8
 71
3
 72
8
 73
4
 74
0
 40
0
 40
0
 40
0
 40
0
 40
1
 40
1
 40
1
 40
1
 10
5.463918
 20
13.395685
 30
0.0
 10
5.912328
 20
13.581422
 30
0.0
 10
6.204698
 20
14.018985
 30
0.0
 10
6.204698
 20
14.504340
 30
0.0
  0
SPLINE
  5
232
100
AcDbEntity
  8
01_hitbox_button_layout
 62
1
100
AcDbSpline
 70
8
 71
3
 72
8
 73
4
 74
0
 40
0
 40
0
 40
0
 40
0
 40
1
 40
1
 40
1
 40
1
 10
6.204698
 20
14.504340
 30
0.0
 10
6.204698
 20
14.822600
 30
0.0
 10
6.078270
 20
15.127824
 30
0.0
 10
5.853226
 20
15.352868
 30
0.0
  0
SPLINE
  5
233
100
AcDbEntity
  8
01_hitbox_button_layout
 62
1
100
AcDbSpline
 70
8
 71
3
 72
8
 73
4
 74
0
 40
0
 40
0
 40
0
 40
0
 40
1
 40
1
 40
1
 40
1
 10
5.853226
 20
15.352868
 30
0.0
 10
5.628183
 20
15.577912
 30
0.0
 10
5.322958
 20
15.704340
 30
0.0
 10
5.004698
 20
15.704340
 30
0.0
  0
LWPOLYLINE
  5
234
100
AcDbEntity
  8
01_hitbox_button_layout
 62
1
100
AcDbPolyline
 90
1
 70
1
 10
218.050338
 20
50.757685
 30
0.0
  0
SPLINE
  5
235
100
AcDbEntity
  8
01_hitbox_button_layout
 62
1
100
AcDbSpline
 70
8
 71
3
 72
8
 73
4
 74
0
 40
0
 40
0
 40
0
 40
0
 40
1
 40
1
 40
1
 40
1
 10
5.004698
 20
165.796343
 30
0.0
 10
4.519344
 20
165.796343
 30
0.0
 10
4.081780
 20
165.503972
 30
0.0
 10
3.896043
 20
165.055563
 30
0.0
  0
SPLINE
  5
236
100
AcDbEntity
  8
01_hitbox_button_layout
 62
1
100
AcDbSpline
 70
8
 71
3
 72
8
 73
4
 74
0
 40
0
 40
0
 40
0
 40
0
 40
1
 40
1
 40
1
 40
1
 10
3.896043
 20
165.055563
 30
0.0
 10
3.710306
 20
164.607154
 30
0.0
 10
3.812973
 20
164.091012
 30
0.0
 10
4.156170
 20
163.747815
 30
0.0
  0
SPLINE
  5
237
100
AcDbEntity
  8
01_hitbox_button_layout
 62
1
100
AcDbSpline
 70
8
 71
3
 72
8
 73
4
 74
0
 40
0
 40
0
 40
0
 40
0
 40
1
 40
1
 40
1
 40
1
 10
4.156170
 20
163.747815
 30
0.0
 10
4.499368
 20
163.404617
 30
0.0
 10
5.015509
 20
163.301950
 30
0.0
 10
5.463918
 20
163.487688
 30
0.0
  0
SPLINE
  5
238
100
AcDbEntity
  8
01_hitbox_button_layout
 62
1
100
AcDbSpline
 70
8
 71
3
 72
8
 73
4
 74
0
 40
0
 40
0
 40
0
 40
0
 40
1
 40
1
 40
1
 40
1
 10
5.463918
 20
163.487688
 30
0.0
 10
5.912328
 20
163.673425
 30
0.0
 10
6.204698
 20
164.110988
 30
0.0
 10
6.204698
 20
164.596343
 30
0.0
  0
SPLINE
  5
239
100
AcDbEntity
  8
01_hitbox_button_layout
 62
1
100
AcDbSpline
 70
8
 71
3
 72
8
 73
4
 74
0
 40
0
 40
0
 40
0
 40
0
 40
1
 40
1
 40
1
 40
1
 10
6.204698
 20
164.596343
 30
0.0
 10
6.204698
 20
164.914603
 30
0.0
 10
6.078270
 20
165.219827
 30
0.0
 10
5.853226
 20
165.444871
 30
0.0
  0
SPLINE
  5
23a
100
AcDbEntity
  8
01_hitbox_button_layout
 62
1
100
AcDbSpline
 70
8
 71
3
 72
8
 73
4
 74
0
 40
0
 40
0
 40
0
 40
0
 40
1
 40
1
 40
1
 40
1
 10
5.853226
 20
165.444871
 30
0.0
 10
5.628183
 20
165.669915
 30
0.0
 10
5.322958
 20
165.796343
 30
0.0
 10
5.004698
 20
165.796343
 30
0.0
  0
LWPOLYLINE
  5
23b
100
AcDbEntity
  8
01_hitbox_button_layout
 62
1
100
AcDbPolyline
 90
1
 70
1
 10
5.004698
 20
15.704340
 30
0.0
  0
SPLINE
  5
23c
100
AcDbEntity
  8
01_hitbox_button_layout
 62
1
100
AcDbSpline
 70
8
 71
3
 72
8
 73
4
 74
0
 40
0
 40
0
 40
0
 40
0
 40
1
 40
1
 40
1
 40
1
 10
391.595458
 20
175.296343
 30
0.0
 10
391.110104
 20
175.296343
 30
0.0
 10
390.672540
 20
175.003973
 30
0.0
 10
390.486803
 20
174.555563
 30
0.0
  0
SPLINE
  5
23d
100
AcDbEntity
  8
01_hitbox_button_layout
 62
1
100
AcDbSpline
 70
8
 71
3
 72
8
 73
4
 74
0
 40
0
 40
0
 40
0
 40
0
 40
1
 40
1
 40
1
 40
1
 10
390.486803
 20
174.555563
 30
0.0
 10
390.301066
 20
174.107154
 30
0.0
 10
390.403733
 20
173.591013
 30
0.0
 10
390.746930
 20
173.247815
 30
0.0
  0
SPLINE
  5
23e
100
AcDbEntity
  8
01_hitbox_button_layout
 62
1
100
AcDbSpline
 70
8
 71
3
 72
8
 73
4
 74
0
 40
0
 40
0
 40
0
 40
0
 40
1
 40
1
 40
1
 40
1
 10
390.746930
 20
173.247815
 30
0.0
 10
391.090128
 20
172.904618
 30
0.0
 10
391.606269
 20
172.801951
 30
0.0
 10
392.054678
 20
172.987688
 30
0.0
  0
SPLINE
  5
23f
100
AcDbEntity
  8
01_hitbox_button_layout
 62
1
100
AcDbSpline
 70
8
 71
3
 72
8
 73
4
 74
0
 40
0
 40
0
 40
0
 40
0
 40
1
 40
1
 40
1
 40
1
 10
392.054678
 20
172.987688
 30
0.0
 10
392.503088
 20
173.173425
 30
0.0
 10
392.795458
 20
173.610989
 30
0.0
 10
392.795458
 20
174.096343
 30
0.0
  0
SPLINE
  5
240
100
AcDbEntity
  8
01_hitbox_button_layout
 62
1
100
AcDbSpline
 70
8
 71
3
 72
8
 73
4
 74
0
 40
0
 40
0
 40
0
 40
0
 40
1
 40
1
 40
1
 40
1
 10
392.795458
 20
174.096343
 30
0.0
 10
392.795458
 20
174.414603
 30
0.0
 10
392.669030
 20
174.719828
 30
0.0
 10
392.443986
 20
174.944871
 30
0.0
  0
SPLINE
  5
241
100
AcDbEntity
  8
01_hitbox_button_layout
 62
1
100
AcDbSpline
 70
8
 71
3
 72
8
 73
4
 74
0
 40
0
 40
0
 40
0
 40
0
 40
1
 40
1
 40
1
 40
1
 10
392.443986
 20
174.944871
 30
0.0
 10
392.218943
 20
175.169915
 30
0.0
 10
391.913718
 20
175.296343
 30
0.0
 10
391.595458
 20
175.296343
 30
0.0
  0
LWPOLYLINE
  5
242
100
AcDbEntity
  8
01_hitbox_button_layout
 62
1
100
AcDbPolyline
 90
1
 70
1
 10
5.004698
 20
165.796343
 30
0.0
  0
SPLINE
  5
243
100
AcDbEntity
  8
01_hitbox_button_layout
 62
1
100
AcDbSpline
 70
8
 71
3
 72
8
 73
4
 74
0
 40
0
 40
0
 40
0
 40
0
 40
1
 40
1
 40
1
 40
1
 10
14.504710
 20
175.296343
 30
0.0
 10
13.841968
 20
175.296343
 30
0.0
 10
13.304710
 20
174.759085
 30
0.0
 10
13.304710
 20
174.096343
 30
0.0
  0
SPLINE
  5
244
100
AcDbEntity
  8
01_hitbox_button_layout
 62
1
100
AcDbSpline
 70
8
 71
3
 72
8
 73
4
 74
0
 40
0
 40
0
 40
0
 40
0
 40
1
 40
1
 40
1
 40
1
 10
13.304710
 20
174.096343
 30
0.0
 10
13.304710
 20
173.433602
 30
0.0
 10
13.841968
 20
172.896343
 30
0.0
 10
14.504710
 20
172.896343
 30
0.0
  0
SPLINE
  5
245
100
AcDbEntity
  8
01_hitbox_button_layout
 62
1
100
AcDbSpline
 70
8
 71
3
 72
8
 73
4
 74
0
 40
0
 40
0
 40
0
 40
0
 40
1
 40
1
 40
1
 40
1
 10
14.504710
 20
172.896343
 30
0.0
 10
15.167452
 20
172.896343
 30
0.0
 10
15.704710
 20
173.433602
 30
0.0
 10
15.704710
 20
174.096343
 30
0.0
  0
SPLINE
  5
246
100
AcDbEntity
  8
01_hitbox_button_layout
 62
1
100
AcDbSpline
 70
8
 71
3
 72
8
 73
4
 74
0
 40
0
 40
0
 40
0
 40
0
 40
1
 40
1
 40
1
 40
1
 10
15.704710
 20
174.096343
 30
0.0
 10
15.704710
 20
174.414603
 30
0.0
 10
15.578282
 20
174.719828
 30
0.0
 10
15.353238
 20
174.944871
 30
0.0
  0
SPLINE
  5
247
100
AcDbEntity
  8
01_hitbox_button_layout
 62
1
100
AcDbSpline
 70
8
 71
3
 72
8
 73
4
 74
0
 40
0
 40
0
 40
0
 40
0
 40
1
 40
1
 40
1
 40
1
 10
15.353238
 20
174.944871
 30
0.0
 10
15.128194
 20
175.169915
 30
0.0
 10
14.822970
 20
175.296343
 30
0.0
 10
14.504710
 20
175.296343
 30
0.0
  0
LWPOLYLINE
  5
248
100
AcDbEntity
  8
01_hitbox_button_layout
 62
1
100
AcDbPolyline
 90
1
 70
1
 10
391.595458
 20
175.296343
 30
0.0
  0
SPLINE
  5
249
100
AcDbEntity
  8
01_hitbox_button_layout
 62
1
100
AcDbSpline
 70
8
 71
3
 72
8
 73
4
 74
0
 40
0
 40
0
 40
0
 40
0
 40
1
 40
1
 40
1
 40
1
 10
391.595708
 20
6.204340
 30
0.0
 10
391.110354
 20
6.204340
 30
0.0
 10
390.672790
 20
5.911969
 30
0.0
 10
390.487053
 20
5.463560
 30
0.0
  0
SPLINE
  5
24a
100
AcDbEntity
  8
01_hitbox_button_layout
 62
1
100
AcDbSpline
 70
8
 71
3
 72
8
 73
4
 74
0
 40
0
 40
0
 40
0
 40
0
 40
1
 40
1
 40
1
 40
1
 10
390.487053
 20
5.463560
 30
0.0
 10
390.301316
 20
5.015151
 30
0.0
 10
390.403983
 20
4.499009
 30
0.0
 10
390.747180
 20
4.155812
 30
0.0
  0
SPLINE
  5
24b
100
AcDbEntity
  8
01_hitbox_button_layout
 62
1
100
AcDbSpline
 70
8
 71
3
 72
8
 73
4
 74
0
 40
0
 40
0
 40
0
 40
0
 40
1
 40
1
 40
1
 40
1
 10
390.747180
 20
4.155812
 30
0.0
 10
391.090378
 20
3.812614
 30
0.0
 10
391.606519
 20
3.709947
 30
0.0
 10
392.054928
 20
3.895685
 30
0.0
  0
SPLINE
  5
24c
100
AcDbEntity
  8
01_hitbox_button_layout
 62
1
100
AcDbSpline
 70
8
 71
3
 72
8
 73
4
 74
0
 40
0
 40
0
 40
0
 40
0
 40
1
 40
1
 40
1
 40
1
 10
392.054928
 20
3.895685
 30
0.0
 10
392.503338
 20
4.081422
 30
0.0
 10
392.795708
 20
4.518985
 30
0.0
 10
392.795708
 20
5.004340
 30
0.0
  0
SPLINE
  5
24d
100
AcDbEntity
  8
01_hitbox_button_layout
 62
1
100
AcDbSpline
 70
8
 71
3
 72
8
 73
4
 74
0
 40
0
 40
0
 40
0
 40
0
 40
1
 40
1
 40
1
 40
1
 10
392.795708
 20
5.004340
 30
0.0
 10
392.795708
 20
5.322600
 30
0.0
 10
392.669280
 20
5.627824
 30
0.0
 10
392.444236
 20
5.852868
 30
0.0
  0
SPLINE
  5
24e
100
AcDbEntity
  8
01_hitbox_button_layout
 62
1
100
AcDbSpline
 70
8
 71
3
 72
8
 73
4
 74
0
 40
0
 40
0
 40
0
 40
0
 40
1
 40
1
 40
1
 40
1
 10
392.444236
 20
5.852868
 30
0.0
 10
392.219193
 20
6.077912
 30
0.0
 10
391.913968
 20
6.204340
 30
0.0
 10
391.595708
 20
6.204340
 30
0.0
  0
LWPOLYLINE
  5
24f
100
AcDbEntity
  8
01_hitbox_button_layout
 62
1
100
AcDbPolyline
 90
1
 70
1
 10
14.504710
 20
175.296343
 30
0.0
  0
SPLINE
  5
250
100
AcDbEntity
  8
01_hitbox_button_layout
 62
1
100
AcDbSpline
 70
8
 71
3
 72
8
 73
4
 74
0
 40
0
 40
0
 40
0
 40
0
 40
1
 40
1
 40
1
 40
1
 10
14.504710
 20
6.204340
 30
0.0
 10
13.841968
 20
6.204340
 30
0.0
 10
13.304710
 20
5.667082
 30
0.0
 10
13.304710
 20
5.004340
 30
0.0
  0
SPLINE
  5
251
100
AcDbEntity
  8
01_hitbox_button_layout
 62
1
100
AcDbSpline
 70
8
 71
3
 72
8
 73
4
 74
0
 40
0
 40
0
 40
0
 40
0
 40
1
 40
1
 40
1
 40
1
 10
13.304710
 20
5.004340
 30
0.0
 10
13.304710
 20
4.341598
 30
0.0
 10
13.841968
 20
3.804340
 30
0.0
 10
14.504710
 20
3.804340
 30
0.0
  0
SPLINE
  5
252
100
AcDbEntity
  8
01_hitbox_button_layout
 62
1
100
AcDbSpline
 70
8
 71
3
 72
8
 73
4
 74
0
 40
0
 40
0
 40
0
 40
0
 40
1
 40
1
 40
1
 40
1
 10
14.504710
 20
3.804340
 30
0.0
 10
15.167452
 20
3.804340
 30
0.0
 10
15.704710
 20
4.341598
 30
0.0
 10
15.704710
 20
5.004340
 30
0.0
  0
SPLINE
  5
253
100
AcDbEntity
  8
01_hitbox_button_layout
 62
1
100
AcDbSpline
 70
8
 71
3
 72
8
 73
4
 74
0
 40
0
 40
0
 40
0
 40
0
 40
1
 40
1
 40
1
 40
1
 10
15.704710
 20
5.004340
 30
0.0
 10
15.704710
 20
5.322600
 30
0.0
 10
15.578282
 20
5.627824
 30
0.0
 10
15.353238
 20
5.852868
 30
0.0
  0
SPLINE
  5
254
100
AcDbEntity
  8
01_hitbox_button_layout
 62
1
100
AcDbSpline
 70
8
 71
3
 72
8
 73
4
 74
0
 40
0
 40
0
 40
0
 40
0
 40
1
 40
1
 40
1
 40
1
 10
15.353238
 20
5.852868
 30
0.0
 10
15.128194
 20
6.077912
 30
0.0
 10
14.822970
 20
6.204340
 30
0.0
 10
14.504710
 20
6.204340
 30
0.0
  0
LWPOLYLINE
  5
255
100
AcDbEntity
  8
01_hitbox_button_layout
 62
1
100
AcDbPolyline
 90
1
 70
1
 10
391.595708
 20
6.204340
 30
0.0
  0
SPLINE
  5
256
100
AcDbEntity
  8
01_hitbox_button_layout
 62
1
100
AcDbSpline
 70
8
 71
3
 72
8
 73
4
 74
0
 40
0
 40
0
 40
0
 40
0
 40
1
 40
1
 40
1
 40
1
 10
401.095720
 20
15.704340
 30
0.0
 10
400.432978
 20
15.704340
 30
0.0
 10
399.895720
 20
15.167082
 30
0.0
 10
399.895720
 20
14.504340
 30
0.0
  0
SPLINE
  5
257
100
AcDbEntity
  8
01_hitbox_button_layout
 62
1
100
AcDbSpline
 70
8
 71
3
 72
8
 73
4
 74
0
 40
0
 40
0
 40
0
 40
0
 40
1
 40
1
 40
1
 40
1
 10
399.895720
 20
14.504340
 30
0.0
 10
399.895720
 20
13.841598
 30
0.0
 10
400.432978
 20
13.304340
 30
0.0
 10
401.095720
 20
13.304340
 30
0.0
  0
SPLINE
  5
258
100
AcDbEntity
  8
01_hitbox_button_layout
 62
1
100
AcDbSpline
 70
8
 71
3
 72
8
 73
4
 74
0
 40
0
 40
0
 40
0
 40
0
 40
1
 40
1
 40
1
 40
1
 10
401.095720
 20
13.304340
 30
0.0
 10
401.758462
 20
13.304340
 30
0.0
 10
402.295720
 20
13.841598
 30
0.0
 10
402.295720
 20
14.504340
 30
0.0
  0
SPLINE
  5
259
100
AcDbEntity
  8
01_hitbox_button_layout
 62
1
100
AcDbSpline
 70
8
 71
3
 72
8
 73
4
 74
0
 40
0
 40
0
 40
0
 40
0
 40
1
 40
1
 40
1
 40
1
 10
402.295720
 20
14.504340
 30
0.0
 10
402.295720
 20
14.822600
 30
0.0
 10
402.169292
 20
15.127824
 30
0.0
 10
401.944248
 20
15.352868
 30
0.0
  0
SPLINE
  5
25a
100
AcDbEntity
  8
01_hitbox_button_layout
 62
1
100
AcDbSpline
 70
8
 71
3
 72
8
 73
4
 74
0
 40
0
 40
0
 40
0
 40
0
 40
1
 40
1
 40
1
 40
1
 10
401.944248
 20
15.352868
 30
0.0
 10
401.719204
 20
15.577912
 30
0.0
 10
401.413980
 20
15.704340
 30
0.0
 10
401.095720
 20
15.704340
 30
0.0
  0
LWPOLYLINE
  5
25b
100
AcDbEntity
  8
01_hitbox_button_layout
 62
1
100
AcDbPolyline
 90
1
 70
1
 10
14.504710
 20
6.204340
 30
0.0
  0
SPLINE
  5
25c
100
AcDbEntity
  8
01_hitbox_button_layout
 62
1
100
AcDbSpline
 70
8
 71
3
 72
8
 73
4
 74
0
 40
0
 40
0
 40
0
 40
0
 40
1
 40
1
 40
1
 40
1
 10
401.095720
 20
165.796343
 30
0.0
 10
400.432978
 20
165.796343
 30
0.0
 10
399.895720
 20
165.259085
 30
0.0
 10
399.895720
 20
164.596343
 30
0.0
  0
SPLINE
  5
25d
100
AcDbEntity
  8
01_hitbox_button_layout
 62
1
100
AcDbSpline
 70
8
 71
3
 72
8
 73
4
 74
0
 40
0
 40
0
 40
0
 40
0
 40
1
 40
1
 40
1
 40
1
 10
399.895720
 20
164.596343
 30
0.0
 10
399.895720
 20
163.933601
 30
0.0
 10
400.432978
 20
163.396343
 30
0.0
 10
401.095720
 20
163.396343
 30
0.0
  0
SPLINE
  5
25e
100
AcDbEntity
  8
01_hitbox_button_layout
 62
1
100
AcDbSpline
 70
8
 71
3
 72
8
 73
4
 74
0
 40
0
 40
0
 40
0
 40
0
 40
1
 40
1
 40
1
 40
1
 10
401.095720
 20
163.396343
 30
0.0
 10
401.758462
 20
163.396343
 30
0.0
 10
402.295720
 20
163.933601
 30
0.0
 10
402.295720
 20
164.596343
 30
0.0
  0
SPLINE
  5
25f
100
AcDbEntity
  8
01_hitbox_button_layout
 62
1
100
AcDbSpline
 70
8
 71
3
 72
8
 73
4
 74
0
 40
0
 40
0
 40
0
 40
0
 40
1
 40
1
 40
1
 40
1
 10
402.295720
 20
164.596343
 30
0.0
 10
402.295720
 20
164.914603
 30
0.0
 10
402.169292
 20
165.219827
 30
0.0
 10
401.944248
 20
165.444871
 30
0.0
  0
SPLINE
  5
260
100
AcDbEntity
  8
01_hitbox_button_layout
 62
1
100
AcDbSpline
 70
8
 71
3
 72
8
 73
4
 74
0
 40
0
 40
0
 40
0
 40
0
 40
1
 40
1
 40
1
 40
1
 10
401.944248
 20
165.444871
 30
0.0
 10
401.719204
 20
165.669915
 30
0.0
 10
401.413980
 20
165.796343
 30
0.0
 10
401.095720
 20
165.796343
 30
0.0
  0
LWPOLYLINE
  5
261
100
AcDbEntity
  8
01_hitbox_button_layout
 62
1
100
AcDbPolyline
 90
1
 70
1
 10
401.095720
 20
15.704340
 30
0.0
  0
LWPOLYLINE
  5
262
100
AcDbEntity
  8
01_hitbox_button_layout
 62
1
100
AcDbPolyline
 90
1
 70
1
 10
401.095720
 20
165.796343
 30
0.0
  0
ENDSEC
  0
SECTION
  2
OBJECTS
  0
DICTIONARY
  5
C
330
0
100
AcDbDictionary
  3
ACAD_GROUP
350
D
  3
ACAD_MLINESTYLE
350
17
  0
DICTIONARY
  5
D
330
C
100
AcDbDictionary
  0
DICTIONARY
  5
1A
330
C
100
AcDbDictionary
  0
DICTIONARY
  5
17
330
C
100
AcDbDictionary
  3
STANDARD
350
18
  0
DICTIONARY
  5
19
330
C
100
AcDbDictionary
  0
ENDSEC
  0
EOF
