  0
SECTION
  2
HEADER
  9
$ACADVER
  1
AC1014
  9
$HANDSEED
  5
FFFF
  9
$INSUNITS
 70
     4
  9
$MEASUREMENT
 70
     1
  0
ENDSEC
  0
SECTION
  2
TABLES
  0
TABLE
  2
VPORT
  5
8
330
0
100
AcDbSymbolTable
 70
     4
  0
VPORT
  5
2E
330
8
100
AcDbSymbolTableRecord
100
AcDbViewportTableRecord
  2
*ACTIVE
 70
     0
 10
0.0
 20
0.0
 11
1.0
 21
1.0
 12
210.0
 22
148.5
 13
0.0
 23
0.0
 14
10.0
 24
10.0
 15
10.0
 25
10.0
 16
0.0
 26
0.0
 36
1.0
 17
0.0
 27
0.0
 37
0.0
 40
341.0
 41
1.24
 42
50.0
 43
0.0
 44
0.0
 50
0.0
 51
0.0
 71
     0
 72
   100
 73
     1
 74
     3
 75
     0
 76
     0
 77
     0
 78
     0
  0
ENDTAB
  0
TABLE
  2
LTYPE
  5
5
330
0
100
AcDbSymbolTable
 70
     1
  0
LTYPE
  5
14
330
5
100
AcDbSymbolTableRecord
100
AcDbLinetypeTableRecord
  2
BYBLOCK
 70
     0
  3

 72
    65
 73
     0
 40
0.0
  0
LTYPE
  5
15
330
5
100
AcDbSymbolTableRecord
100
AcDbLinetypeTableRecord
  2
BYLAYER
 70
     0
  3

 72
    65
 73
     0
 40
0.0
  0
LTYPE
  5
16
330
5
100
AcDbSymbolTableRecord
100
AcDbLinetypeTableRecord
  2
CONTINUOUS
 70
     0
  3
Solid line
 72
    65
 73
     0
 40
0.0
  0
ENDTAB
  0
TABLE
  2
LAYER
  5
2
100
AcDbSymbolTable
 70
1
  0
LAYER
  5
50
100
AcDbSymbolTableRecord
100
AcDbLayerTableRecord
  2
0
 70
0
  6
CONTINUOUS
  0
ENDTAB
  0
TABLE
  2
STYLE
  5
3
330
0
100
AcDbSymbolTable
 70
     1
  0
STYLE
  5
11
330
3
100
AcDbSymbolTableRecord
100
AcDbTextStyleTableRecord
  2
STANDARD
 70
     0
 40
0.0
 41
1.0
 50
0.0
 71
     0
 42
2.5
  3
txt
  4

  0
ENDTAB
  0
TABLE
  2
VIEW
  5
6
330
0
100
AcDbSymbolTable
 70
     0
  0
ENDTAB
  0
TABLE
  2
UCS
  5
7
330
0
100
AcDbSymbolTable
 70
     0
  0
ENDTAB
  0
TABLE
  2
APPID
  5
9
330
0
100
AcDbSymbolTable
 70
     2
  0
APPID
  5
12
330
9
100
AcDbSymbolTableRecord
100
AcDbRegAppTableRecord
  2
ACAD
 70
     0
  0
ENDTAB
  0
TABLE
  2
DIMSTYLE
  5
A
330
0
100
AcDbSymbolTable
 70
     1
  0
DIMSTYLE
105
27
330
A
100
AcDbSymbolTableRecord
100
AcDbDimStyleTableRecord
  2
ISO-25
 70
     0
  3

  4

  5

  6

  7

 40
1.0
 41
2.5
 42
0.625
 43
3.75
 44
1.25
 45
0.0
 46
0.0
 47
0.0
 48
0.0
140
2.5
141
2.5
142
0.0
143
0.03937007874016
144
1.0
145
0.0
146
1.0
147
0.625
 71
     0
 72
     0
 73
     0
 74
     0
 75
     0
 76
     0
 77
     1
 78
     8
170
     0
171
     3
172
     1
173
     0
174
     0
175
     0
176
     0
177
     0
178
     0
270
     2
271
     2
272
     2
273
     2
274
     3
340
11
275
     0
280
     0
281
     0
282
     0
283
     0
284
     8
285
     0
286
     0
287
     3
288
     0
  0
ENDTAB
  0
TABLE
  2
BLOCK_RECORD
  5
1
330
0
100
AcDbSymbolTable
 70
     1
  0
BLOCK_RECORD
  5
1F
330
1
100
AcDbSymbolTableRecord
100
AcDbBlockTableRecord
  2
*MODEL_SPACE
  0
BLOCK_RECORD
  5
1B
330
1
100
AcDbSymbolTableRecord
100
AcDbBlockTableRecord
  2
*PAPER_SPACE
  0
ENDTAB
  0
ENDSEC
  0
SECTION
  2
BLOCKS
  0
BLOCK
  5
20
330
1F
100
AcDbEntity
  8
0
100
AcDbBlockBegin
  2
*MODEL_SPACE
 70
     0
 10
0.0
 20
0.0
 30
0.0
  3
*MODEL_SPACE
  1

  0
ENDBLK
  5
21
330
1F
100
AcDbEntity
  8
0
100
AcDbBlockEnd
  0
BLOCK
  5
1C
330
1B
100
AcDbEntity
 67
     1
  8
0
100
AcDbBlockBegin
  2
*PAPER_SPACE
  1

  0
ENDBLK
  5
1D
330
1B
100
AcDbEntity
 67
     1
  8
0
100
AcDbBlockEnd
  0
ENDSEC
  0
SECTION
  2
ENTITIES
  0
SPLINE
  5
100
100
AcDbEntity
  8
0
 62
1
100
AcDbSpline
 70
8
 71
3
 72
8
 73
4
 74
0
 40
0
 40
0
 40
0
 40
0
 40
1
 40
1
 40
1
 40
1
 10
4.504280
 20
20.670564
 30
0.0
 10
5.498297
 20
20.670564
 30
0.0
 10
6.394437
 20
20.071782
 30
0.0
 10
6.774831
 20
19.153430
 30
0.0
  0
SPLINE
  5
101
100
AcDbEntity
  8
0
 62
1
100
AcDbSpline
 70
8
 71
3
 72
8
 73
4
 74
0
 40
0
 40
0
 40
0
 40
0
 40
1
 40
1
 40
1
 40
1
 10
6.774831
 20
19.153430
 30
0.0
 10
7.155225
 20
18.235078
 30
0.0
 10
6.944961
 20
17.178009
 30
0.0
 10
6.242085
 20
16.475132
 30
0.0
  0
SPLINE
  5
102
100
AcDbEntity
  8
0
 62
1
100
AcDbSpline
 70
8
 71
3
 72
8
 73
4
 74
0
 40
0
 40
0
 40
0
 40
0
 40
1
 40
1
 40
1
 40
1
 10
6.242085
 20
16.475132
 30
0.0
 10
5.539208
 20
15.772256
 30
0.0
 10
4.482139
 20
15.561992
 30
0.0
 10
3.563787
 20
15.942385
 30
0.0
  0
SPLINE
  5
103
100
AcDbEntity
  8
0
 62
1
100
AcDbSpline
 70
8
 71
3
 72
8
 73
4
 74
0
 40
0
 40
0
 40
0
 40
0
 40
1
 40
1
 40
1
 40
1
 10
3.563787
 20
15.942385
 30
0.0
 10
2.645435
 20
16.322779
 30
0.0
 10
2.046653
 20
17.218919
 30
0.0
 10
2.046653
 20
18.212937
 30
0.0
  0
SPLINE
  5
104
100
AcDbEntity
  8
0
 62
1
100
AcDbSpline
 70
8
 71
3
 72
8
 73
4
 74
0
 40
0
 40
0
 40
0
 40
0
 40
1
 40
1
 40
1
 40
1
 10
2.046653
 20
18.212937
 30
0.0
 10
2.046653
 20
18.864740
 30
0.0
 10
2.305581
 20
19.489847
 30
0.0
 10
2.766475
 20
19.950742
 30
0.0
  0
SPLINE
  5
105
100
AcDbEntity
  8
0
 62
1
100
AcDbSpline
 70
8
 71
3
 72
8
 73
4
 74
0
 40
0
 40
0
 40
0
 40
0
 40
1
 40
1
 40
1
 40
1
 10
2.766475
 20
19.950742
 30
0.0
 10
3.227370
 20
20.411636
 30
0.0
 10
3.852477
 20
20.670564
 30
0.0
 10
4.504280
 20
20.670564
 30
0.0
  0
SPLINE
  5
106
100
AcDbEntity
  8
0
 62
1
100
AcDbSpline
 70
8
 71
3
 72
8
 73
4
 74
0
 40
0
 40
0
 40
0
 40
0
 40
1
 40
1
 40
1
 40
1
 10
381.595290
 20
20.670564
 30
0.0
 10
382.589307
 20
20.670564
 30
0.0
 10
383.485447
 20
20.071782
 30
0.0
 10
383.865841
 20
19.153430
 30
0.0
  0
SPLINE
  5
107
100
AcDbEntity
  8
0
 62
1
100
AcDbSpline
 70
8
 71
3
 72
8
 73
4
 74
0
 40
0
 40
0
 40
0
 40
0
 40
1
 40
1
 40
1
 40
1
 10
383.865841
 20
19.153430
 30
0.0
 10
384.246235
 20
18.235078
 30
0.0
 10
384.035971
 20
17.178009
 30
0.0
 10
383.333095
 20
16.475132
 30
0.0
  0
SPLINE
  5
108
100
AcDbEntity
  8
0
 62
1
100
AcDbSpline
 70
8
 71
3
 72
8
 73
4
 74
0
 40
0
 40
0
 40
0
 40
0
 40
1
 40
1
 40
1
 40
1
 10
383.333095
 20
16.475132
 30
0.0
 10
382.630218
 20
15.772256
 30
0.0
 10
381.573149
 20
15.561992
 30
0.0
 10
380.654797
 20
15.942385
 30
0.0
  0
SPLINE
  5
109
100
AcDbEntity
  8
0
 62
1
100
AcDbSpline
 70
8
 71
3
 72
8
 73
4
 74
0
 40
0
 40
0
 40
0
 40
0
 40
1
 40
1
 40
1
 40
1
 10
380.654797
 20
15.942385
 30
0.0
 10
379.736445
 20
16.322779
 30
0.0
 10
379.137663
 20
17.218919
 30
0.0
 10
379.137663
 20
18.212937
 30
0.0
  0
SPLINE
  5
10a
100
AcDbEntity
  8
0
 62
1
100
AcDbSpline
 70
8
 71
3
 72
8
 73
4
 74
0
 40
0
 40
0
 40
0
 40
0
 40
1
 40
1
 40
1
 40
1
 10
379.137663
 20
18.212937
 30
0.0
 10
379.137663
 20
19.570247
 30
0.0
 10
380.237980
 20
20.670564
 30
0.0
 10
381.595290
 20
20.670564
 30
0.0
  0
LWPOLYLINE
  5
10b
100
AcDbEntity
  8
0
 62
1
100
AcDbPolyline
 90
1
 70
1
 10
4.504280
 20
20.670564
 30
0.0
  0
LWPOLYLINE
  5
10c
100
AcDbEntity
  8
0
 62
1
100
AcDbPolyline
 90
1
 70
1
 10
381.595290
 20
20.670564
 30
0.0
  0
SPLINE
  5
10d
100
AcDbEntity
  8
0
 62
1
100
AcDbSpline
 70
8
 71
3
 72
8
 73
4
 74
0
 40
0
 40
0
 40
0
 40
0
 40
1
 40
1
 40
1
 40
1
 10
386.053922
 20
5.854633
 30
0.0
 10
386.053922
 20
9.907716
 30
0.0
 10
382.743212
 20
13.170666
 30
0.0
 10
378.630812
 20
13.170666
 30
0.0
  0
LWPOLYLINE
  5
10e
100
AcDbEntity
  8
0
 62
1
100
AcDbPolyline
 90
3
 70
0
 10
0.045832
 20
23.166604
 30
0.0
 10
386.053912
 20
23.166604
 30
0.0
 10
386.053922
 20
5.854633
 30
0.0
  0
SPLINE
  5
10f
100
AcDbEntity
  8
0
 62
1
100
AcDbSpline
 70
8
 71
3
 72
8
 73
4
 74
0
 40
0
 40
0
 40
0
 40
0
 40
1
 40
1
 40
1
 40
1
 10
7.468942
 20
13.170666
 30
0.0
 10
3.356542
 20
13.170666
 30
0.0
 10
0.045832
 20
9.907716
 30
0.0
 10
0.045832
 20
5.854633
 30
0.0
  0
LWPOLYLINE
  5
110
100
AcDbEntity
  8
0
 62
1
100
AcDbPolyline
 90
2
 70
0
 10
378.630812
 20
13.170666
 30
0.0
 10
7.468942
 20
13.170666
 30
0.0
  0
SPLINE
  5
111
100
AcDbEntity
  8
0
 62
1
100
AcDbSpline
 70
8
 71
3
 72
8
 73
4
 74
0
 40
0
 40
0
 40
0
 40
0
 40
1
 40
1
 40
1
 40
1
 10
362.792043
 20
5.092324
 30
0.0
 10
362.792043
 20
4.098306
 30
0.0
 10
363.390825
 20
3.202166
 30
0.0
 10
364.309177
 20
2.821772
 30
0.0
  0
SPLINE
  5
112
100
AcDbEntity
  8
0
 62
1
100
AcDbSpline
 70
8
 71
3
 72
8
 73
4
 74
0
 40
0
 40
0
 40
0
 40
0
 40
1
 40
1
 40
1
 40
1
 10
364.309177
 20
2.821772
 30
0.0
 10
365.227529
 20
2.441378
 30
0.0
 10
366.284598
 20
2.651642
 30
0.0
 10
366.987475
 20
3.354519
 30
0.0
  0
SPLINE
  5
113
100
AcDbEntity
  8
0
 62
1
100
AcDbSpline
 70
8
 71
3
 72
8
 73
4
 74
0
 40
0
 40
0
 40
0
 40
0
 40
1
 40
1
 40
1
 40
1
 10
366.987475
 20
3.354519
 30
0.0
 10
367.690351
 20
4.057395
 30
0.0
 10
367.900615
 20
5.114464
 30
0.0
 10
367.520221
 20
6.032817
 30
0.0
  0
SPLINE
  5
114
100
AcDbEntity
  8
0
 62
1
100
AcDbSpline
 70
8
 71
3
 72
8
 73
4
 74
0
 40
0
 40
0
 40
0
 40
0
 40
1
 40
1
 40
1
 40
1
 10
367.520221
 20
6.032817
 30
0.0
 10
367.139827
 20
6.951169
 30
0.0
 10
366.243687
 20
7.549951
 30
0.0
 10
365.249670
 20
7.549951
 30
0.0
  0
SPLINE
  5
115
100
AcDbEntity
  8
0
 62
1
100
AcDbSpline
 70
8
 71
3
 72
8
 73
4
 74
0
 40
0
 40
0
 40
0
 40
0
 40
1
 40
1
 40
1
 40
1
 10
365.249670
 20
7.549951
 30
0.0
 10
364.597867
 20
7.549951
 30
0.0
 10
363.972760
 20
7.291023
 30
0.0
 10
363.511865
 20
6.830128
 30
0.0
  0
SPLINE
  5
116
100
AcDbEntity
  8
0
 62
1
100
AcDbSpline
 70
8
 71
3
 72
8
 73
4
 74
0
 40
0
 40
0
 40
0
 40
0
 40
1
 40
1
 40
1
 40
1
 10
363.511865
 20
6.830128
 30
0.0
 10
363.050971
 20
6.369234
 30
0.0
 10
362.792043
 20
5.744127
 30
0.0
 10
362.792043
 20
5.092324
 30
0.0
  0
LWPOLYLINE
  5
117
100
AcDbEntity
  8
0
 62
1
100
AcDbPolyline
 90
2
 70
0
 10
0.045832
 20
5.854633
 30
0.0
 10
0.045832
 20
23.166604
 30
0.0
  0
SPLINE
  5
118
100
AcDbEntity
  8
0
 62
1
100
AcDbSpline
 70
8
 71
3
 72
8
 73
4
 74
0
 40
0
 40
0
 40
0
 40
0
 40
1
 40
1
 40
1
 40
1
 10
212.700040
 20
5.092324
 30
0.0
 10
212.700040
 20
4.098306
 30
0.0
 10
213.298822
 20
3.202166
 30
0.0
 10
214.217174
 20
2.821772
 30
0.0
  0
SPLINE
  5
119
100
AcDbEntity
  8
0
 62
1
100
AcDbSpline
 70
8
 71
3
 72
8
 73
4
 74
0
 40
0
 40
0
 40
0
 40
0
 40
1
 40
1
 40
1
 40
1
 10
214.217174
 20
2.821772
 30
0.0
 10
215.135526
 20
2.441378
 30
0.0
 10
216.192595
 20
2.651642
 30
0.0
 10
216.895472
 20
3.354519
 30
0.0
  0
SPLINE
  5
11a
100
AcDbEntity
  8
0
 62
1
100
AcDbSpline
 70
8
 71
3
 72
8
 73
4
 74
0
 40
0
 40
0
 40
0
 40
0
 40
1
 40
1
 40
1
 40
1
 10
216.895472
 20
3.354519
 30
0.0
 10
217.598348
 20
4.057395
 30
0.0
 10
217.808612
 20
5.114464
 30
0.0
 10
217.428218
 20
6.032817
 30
0.0
  0
SPLINE
  5
11b
100
AcDbEntity
  8
0
 62
1
100
AcDbSpline
 70
8
 71
3
 72
8
 73
4
 74
0
 40
0
 40
0
 40
0
 40
0
 40
1
 40
1
 40
1
 40
1
 10
217.428218
 20
6.032817
 30
0.0
 10
217.047824
 20
6.951169
 30
0.0
 10
216.151684
 20
7.549951
 30
0.0
 10
215.157667
 20
7.549951
 30
0.0
  0
SPLINE
  5
11c
100
AcDbEntity
  8
0
 62
1
100
AcDbSpline
 70
8
 71
3
 72
8
 73
4
 74
0
 40
0
 40
0
 40
0
 40
0
 40
1
 40
1
 40
1
 40
1
 10
215.157667
 20
7.549951
 30
0.0
 10
214.505864
 20
7.549951
 30
0.0
 10
213.880757
 20
7.291023
 30
0.0
 10
213.419862
 20
6.830128
 30
0.0
  0
SPLINE
  5
11d
100
AcDbEntity
  8
0
 62
1
100
AcDbSpline
 70
8
 71
3
 72
8
 73
4
 74
0
 40
0
 40
0
 40
0
 40
0
 40
1
 40
1
 40
1
 40
1
 10
213.419862
 20
6.830128
 30
0.0
 10
212.958968
 20
6.369234
 30
0.0
 10
212.700040
 20
5.744127
 30
0.0
 10
212.700040
 20
5.092324
 30
0.0
  0
LWPOLYLINE
  5
11e
100
AcDbEntity
  8
0
 62
1
100
AcDbPolyline
 90
1
 70
1
 10
362.792043
 20
5.092324
 30
0.0
  0
LWPOLYLINE
  5
11f
100
AcDbEntity
  8
0
 62
1
100
AcDbPolyline
 90
1
 70
1
 10
212.700040
 20
5.092324
 30
0.0
  0
SPLINE
  5
120
100
AcDbEntity
  8
0
 62
1
100
AcDbSpline
 70
8
 71
3
 72
8
 73
4
 74
0
 40
0
 40
0
 40
0
 40
0
 40
1
 40
1
 40
1
 40
1
 10
379.704000
 20
2.546782
 30
0.0
 10
379.704000
 20
6.701782
 30
0.0
 10
376.359000
 20
10.046782
 30
0.0
 10
372.204000
 20
10.046782
 30
0.0
  0
LWPOLYLINE
  5
121
100
AcDbEntity
  8
0
 62
1
100
AcDbPolyline
 90
2
 70
0
 10
379.704000
 20
0.050772
 30
0.0
 10
379.704000
 20
2.546782
 30
0.0
  0
SPLINE
  5
122
100
AcDbEntity
  8
0
 62
1
100
AcDbSpline
 70
8
 71
3
 72
8
 73
4
 74
0
 40
0
 40
0
 40
0
 40
0
 40
1
 40
1
 40
1
 40
1
 10
208.204000
 20
10.046782
 30
0.0
 10
204.049000
 20
10.046782
 30
0.0
 10
200.704000
 20
6.701782
 30
0.0
 10
200.704000
 20
2.546782
 30
0.0
  0
LWPOLYLINE
  5
123
100
AcDbEntity
  8
0
 62
1
100
AcDbPolyline
 90
2
 70
0
 10
372.204000
 20
10.046782
 30
0.0
 10
208.204000
 20
10.046782
 30
0.0
  0
SPLINE
  5
124
100
AcDbEntity
  8
0
 62
1
100
AcDbSpline
 70
8
 71
3
 72
8
 73
4
 74
0
 40
0
 40
0
 40
0
 40
0
 40
1
 40
1
 40
1
 40
1
 10
171.130043
 20
5.087894
 30
0.0
 10
171.130043
 20
6.081911
 30
0.0
 10
171.728825
 20
6.978051
 30
0.0
 10
172.647177
 20
7.358445
 30
0.0
  0
SPLINE
  5
125
100
AcDbEntity
  8
0
 62
1
100
AcDbSpline
 70
8
 71
3
 72
8
 73
4
 74
0
 40
0
 40
0
 40
0
 40
0
 40
1
 40
1
 40
1
 40
1
 10
172.647177
 20
7.358445
 30
0.0
 10
173.565529
 20
7.738839
 30
0.0
 10
174.622598
 20
7.528575
 30
0.0
 10
175.325475
 20
6.825698
 30
0.0
  0
SPLINE
  5
126
100
AcDbEntity
  8
0
 62
1
100
AcDbSpline
 70
8
 71
3
 72
8
 73
4
 74
0
 40
0
 40
0
 40
0
 40
0
 40
1
 40
1
 40
1
 40
1
 10
175.325475
 20
6.825698
 30
0.0
 10
176.028351
 20
6.122822
 30
0.0
 10
176.238615
 20
5.065753
 30
0.0
 10
175.858221
 20
4.147400
 30
0.0
  0
SPLINE
  5
127
100
AcDbEntity
  8
0
 62
1
100
AcDbSpline
 70
8
 71
3
 72
8
 73
4
 74
0
 40
0
 40
0
 40
0
 40
0
 40
1
 40
1
 40
1
 40
1
 10
175.858221
 20
4.147400
 30
0.0
 10
175.477827
 20
3.229048
 30
0.0
 10
174.581687
 20
2.630267
 30
0.0
 10
173.587670
 20
2.630267
 30
0.0
  0
SPLINE
  5
128
100
AcDbEntity
  8
0
 62
1
100
AcDbSpline
 70
8
 71
3
 72
8
 73
4
 74
0
 40
0
 40
0
 40
0
 40
0
 40
1
 40
1
 40
1
 40
1
 10
173.587670
 20
2.630267
 30
0.0
 10
172.935867
 20
2.630267
 30
0.0
 10
172.310760
 20
2.889194
 30
0.0
 10
171.849865
 20
3.350089
 30
0.0
  0
SPLINE
  5
129
100
AcDbEntity
  8
0
 62
1
100
AcDbSpline
 70
8
 71
3
 72
8
 73
4
 74
0
 40
0
 40
0
 40
0
 40
0
 40
1
 40
1
 40
1
 40
1
 10
171.849865
 20
3.350089
 30
0.0
 10
171.388971
 20
3.810983
 30
0.0
 10
171.130043
 20
4.436090
 30
0.0
 10
171.130043
 20
5.087894
 30
0.0
  0
LWPOLYLINE
  5
12a
100
AcDbEntity
  8
0
 62
1
100
AcDbPolyline
 90
3
 70
0
 10
200.704000
 20
2.546782
 30
0.0
 10
200.704000
 20
0.050772
 30
0.0
 10
379.704000
 20
0.050772
 30
0.0
  0
SPLINE
  5
12b
100
AcDbEntity
  8
0
 62
1
100
AcDbSpline
 70
8
 71
3
 72
8
 73
4
 74
0
 40
0
 40
0
 40
0
 40
0
 40
1
 40
1
 40
1
 40
1
 10
21.038040
 20
5.087894
 30
0.0
 10
21.038040
 20
6.081911
 30
0.0
 10
21.636822
 20
6.978051
 30
0.0
 10
22.555174
 20
7.358445
 30
0.0
  0
SPLINE
  5
12c
100
AcDbEntity
  8
0
 62
1
100
AcDbSpline
 70
8
 71
3
 72
8
 73
4
 74
0
 40
0
 40
0
 40
0
 40
0
 40
1
 40
1
 40
1
 40
1
 10
22.555174
 20
7.358445
 30
0.0
 10
23.473526
 20
7.738839
 30
0.0
 10
24.530595
 20
7.528575
 30
0.0
 10
25.233472
 20
6.825698
 30
0.0
  0
SPLINE
  5
12d
100
AcDbEntity
  8
0
 62
1
100
AcDbSpline
 70
8
 71
3
 72
8
 73
4
 74
0
 40
0
 40
0
 40
0
 40
0
 40
1
 40
1
 40
1
 40
1
 10
25.233472
 20
6.825698
 30
0.0
 10
25.936348
 20
6.122822
 30
0.0
 10
26.146612
 20
5.065753
 30
0.0
 10
25.766218
 20
4.147400
 30
0.0
  0
SPLINE
  5
12e
100
AcDbEntity
  8
0
 62
1
100
AcDbSpline
 70
8
 71
3
 72
8
 73
4
 74
0
 40
0
 40
0
 40
0
 40
0
 40
1
 40
1
 40
1
 40
1
 10
25.766218
 20
4.147400
 30
0.0
 10
25.385824
 20
3.229048
 30
0.0
 10
24.489684
 20
2.630267
 30
0.0
 10
23.495667
 20
2.630267
 30
0.0
  0
SPLINE
  5
12f
100
AcDbEntity
  8
0
 62
1
100
AcDbSpline
 70
8
 71
3
 72
8
 73
4
 74
0
 40
0
 40
0
 40
0
 40
0
 40
1
 40
1
 40
1
 40
1
 10
23.495667
 20
2.630267
 30
0.0
 10
22.843864
 20
2.630267
 30
0.0
 10
22.218757
 20
2.889194
 30
0.0
 10
21.757862
 20
3.350089
 30
0.0
  0
SPLINE
  5
130
100
AcDbEntity
  8
0
 62
1
100
AcDbSpline
 70
8
 71
3
 72
8
 73
4
 74
0
 40
0
 40
0
 40
0
 40
0
 40
1
 40
1
 40
1
 40
1
 10
21.757862
 20
3.350089
 30
0.0
 10
21.296968
 20
3.810983
 30
0.0
 10
21.038040
 20
4.436090
 30
0.0
 10
21.038040
 20
5.087894
 30
0.0
  0
LWPOLYLINE
  5
131
100
AcDbEntity
  8
0
 62
1
100
AcDbPolyline
 90
1
 70
1
 10
171.130043
 20
5.087894
 30
0.0
  0
LWPOLYLINE
  5
132
100
AcDbEntity
  8
0
 62
1
100
AcDbPolyline
 90
1
 70
1
 10
21.038040
 20
5.087894
 30
0.0
  0
SPLINE
  5
133
100
AcDbEntity
  8
0
 62
1
100
AcDbSpline
 70
8
 71
3
 72
8
 73
4
 74
0
 40
0
 40
0
 40
0
 40
0
 40
1
 40
1
 40
1
 40
1
 10
9.042000
 20
2.542424
 30
0.0
 10
9.042000
 20
6.697424
 30
0.0
 10
12.387000
 20
10.042424
 30
0.0
 10
16.542000
 20
10.042424
 30
0.0
  0
LWPOLYLINE
  5
134
100
AcDbEntity
  8
0
 62
1
100
AcDbPolyline
 90
2
 70
0
 10
9.042000
 20
0.046514
 30
0.0
 10
9.042000
 20
2.542424
 30
0.0
  0
SPLINE
  5
135
100
AcDbEntity
  8
0
 62
1
100
AcDbSpline
 70
8
 71
3
 72
8
 73
4
 74
0
 40
0
 40
0
 40
0
 40
0
 40
1
 40
1
 40
1
 40
1
 10
180.542000
 20
10.042424
 30
0.0
 10
184.697000
 20
10.042424
 30
0.0
 10
188.042000
 20
6.697424
 30
0.0
 10
188.042000
 20
2.542424
 30
0.0
  0
LWPOLYLINE
  5
136
100
AcDbEntity
  8
0
 62
1
100
AcDbPolyline
 90
2
 70
0
 10
16.542000
 20
10.042424
 30
0.0
 10
180.542000
 20
10.042424
 30
0.0
  0
LWPOLYLINE
  5
137
100
AcDbEntity
  8
0
 62
1
100
AcDbPolyline
 90
3
 70
0
 10
188.042000
 20
2.542424
 30
0.0
 10
188.042000
 20
0.046514
 30
0.0
 10
9.042000
 20
0.046514
 30
0.0
  0
ENDSEC
  0
SECTION
  2
OBJECTS
  0
DICTIONARY
  5
C
330
0
100
AcDbDictionary
  3
ACAD_GROUP
350
D
  3
ACAD_MLINESTYLE
350
17
  0
DICTIONARY
  5
D
330
C
100
AcDbDictionary
  0
DICTIONARY
  5
1A
330
C
100
AcDbDictionary
  0
DICTIONARY
  5
17
330
C
100
AcDbDictionary
  3
STANDARD
350
18
  0
DICTIONARY
  5
19
330
C
100
AcDbDictionary
  0
ENDSEC
  0
EOF
