<?xml version="1.0" encoding="UTF-8" standalone="no"?>
<svg
   width="360.07071mm"
   height="27.499702mm"
   viewBox="0 0 360.07071 27.499704"
   version="1.1"
   preserveAspectRatio="xMidYMid"
   id="svg6881"
   sodipodi:docname="Personal - Buttonbox - Top Panel V0.2.svg"
   inkscape:version="1.2.2 (b0a8486541, 2022-12-01)"
   xml:space="preserve"
   xmlns:inkscape="http://www.inkscape.org/namespaces/inkscape"
   xmlns:sodipodi="http://sodipodi.sourceforge.net/DTD/sodipodi-0.dtd"
   xmlns="http://www.w3.org/2000/svg"
   xmlns:svg="http://www.w3.org/2000/svg"><defs
     id="defs6885" /><sodipodi:namedview
     id="namedview6883"
     pagecolor="#ffffff"
     bordercolor="#000000"
     borderopacity="0.25"
     inkscape:showpageshadow="2"
     inkscape:pageopacity="0.0"
     inkscape:pagecheckerboard="0"
     inkscape:deskcolor="#d1d1d1"
     inkscape:document-units="mm"
     showgrid="false"
     inkscape:zoom="1"
     inkscape:cx="605"
     inkscape:cy="139"
     inkscape:window-width="2560"
     inkscape:window-height="1355"
     inkscape:window-x="0"
     inkscape:window-y="0"
     inkscape:window-maximized="1"
     inkscape:current-layer="svg6881" /><g
     id="g2790"
     style="display:inline;fill:none;stroke:#000000;stroke-width:0.1;stroke-dasharray:none"
     transform="translate(-32.80178,-82.041731)"
     inkscape:label="Back Panel"><path
       style="display:none;stroke:#ff0000;stroke-width:0.1;stroke-dasharray:none"
       d="m 0,90 v 8.405 h 3 v 8.73 H 0 v 8.73 h 3 v 8.73 H 0 V 133 h 15.305 v -3 h 8.73 v 3 h 8.73 v -3 h 8.73 v 3 h 8.73 v -3 h 8.73 v 3 h 8.73 v -3 h 8.73 v 3 h 8.73 v -3 h 8.73 v 3 h 8.73 v -3 h 8.73 v 3 h 8.73 v -3 h 8.73 v 3 h 8.73 v -3 h 8.73 v 3 h 8.73 v -3 h 8.73 v 3 h 8.73 v -3 h 8.73 v 3 h 8.73 v -3 h 8.73 v 3 h 8.73 v -3 h 8.73 v 3 h 8.73 v -3 h 8.73 v 3 h 8.73 v -3 h 8.73 v 3 h 8.73 v -3 h 8.73 v 3 h 8.73 v -3 h 8.73 v 3 h 8.73 v -3 h 8.73 v 3 h 8.73 v -3 h 8.73 v 3 h 8.73 v -3 h 8.73 v 3 h 8.73 v -3 h 8.73 v 3 h 8.73 v -3 h 8.73 v 3 h 8.73 v -3 h 8.73 v 3 H 406 v -8.405 h -3 v -8.73 h 3 v -8.73 h -3 v -8.73 h 3 V 90 Z"
       id="back_outsideCutPath" /><g
       id="g2849"
       inkscape:label="Buttons"
       transform="translate(-187.31759,-15.87079)"
       style="stroke-width:0.1;stroke-dasharray:none"><path
         d="m -3142.2876,869.51473 a 45.35435,45.35435 0 0 0 -90.7087,0 45.35435,45.35435 0 0 0 90.7087,0 z"
         style="display:none;fill:none;stroke:#ff0000;stroke-width:0.377953;stroke-dasharray:none"
         id="path2890-2-0"
         transform="matrix(0.26458333,0,0,0.26458333,1225.5663,-118.39673)"
         inkscape:label="Button 6" /><path
         d="m 364.16938,111.66237 a 12.000005,12.000005 0 0 0 -24.00001,0 12.000005,12.000005 0 0 0 24.00001,0 z"
         style="display:none;fill:none;stroke:#ff0000;stroke-width:0.1;stroke-dasharray:none"
         id="path2890-2-0-2"
         inkscape:label="Button 5" /><path
         d="m -3142.2876,869.51473 a 45.35435,45.35435 0 0 0 -90.7087,0 45.35435,45.35435 0 0 0 90.7087,0 z"
         style="fill:none;stroke:#ff0000;stroke-width:0.377953;stroke-dasharray:none"
         id="path2890-2-0-4"
         transform="matrix(0.26458333,0,0,0.26458333,1165.5663,-118.39673)"
         inkscape:label="Button 4" /><path
         d="m 364.16938,111.66237 a 12.000005,12.000005 0 0 0 -24.00001,0 12.000005,12.000005 0 0 0 24.00001,0 z"
         style="fill:none;stroke:#ff0000;stroke-width:0.1;stroke-dasharray:none"
         id="path2890-2-0-2-4"
         transform="translate(-59.999997)"
         inkscape:label="Button 3" /><path
         d="m 274.1694,111.66237 a 12.000005,12.000005 0 0 0 -24.00001,0 12.000005,12.000005 0 0 0 24.00001,0 z"
         style="fill:none;stroke:#ff0000;stroke-width:0.1;stroke-dasharray:none"
         id="path2890-2-0-4-9"
         inkscape:label="Button 2" /><path
         d="m 244.16938,111.66237 a 12.000005,12.000005 0 0 0 -24.00001,0 12.000005,12.000005 0 0 0 24.00001,0 z"
         style="fill:none;stroke:#ff0000;stroke-width:0.1;stroke-dasharray:none"
         id="path2890-2-0-2-4-1"
         inkscape:label="Button 1" /></g><g
       id="g401"
       style="display:inline;fill:none;stroke:#000000;stroke-width:0.1;stroke-dasharray:none"
       transform="translate(365.22651,-15.920778)"
       inkscape:label="USB Connector"><path
         d="m 27.070102,111.71058 a 10.675,10.676794 0 0 0 -21.3499997,0 10.675,10.676794 0 0 0 21.3499997,0 z"
         style="fill:none;stroke:#ff0000;stroke-width:0.1;stroke-dasharray:none"
         id="path2890-2-0-2-4-1-8"
         inkscape:label="USB Connector" /></g></g></svg>
