<?xml version="1.0" encoding="UTF-8" standalone="no"?>
<svg
   width="386.09998mm"
   height="17.357922mm"
   viewBox="0 0 386.09998 17.357922"
   version="1.1"
   preserveAspectRatio="xMidYMid"
   id="svg6881"
   sodipodi:docname="Personal - Buttonbox - 35mm Top V0.2.svg"
   inkscape:version="1.2.2 (b0a8486541, 2022-12-01)"
   xml:space="preserve"
   xmlns:inkscape="http://www.inkscape.org/namespaces/inkscape"
   xmlns:sodipodi="http://sodipodi.sourceforge.net/DTD/sodipodi-0.dtd"
   xmlns="http://www.w3.org/2000/svg"
   xmlns:svg="http://www.w3.org/2000/svg"><defs
     id="defs6885" /><sodipodi:namedview
     id="namedview6883"
     pagecolor="#ffffff"
     bordercolor="#000000"
     borderopacity="0.25"
     inkscape:showpageshadow="2"
     inkscape:pageopacity="0.0"
     inkscape:pagecheckerboard="0"
     inkscape:deskcolor="#d1d1d1"
     inkscape:document-units="mm"
     showgrid="false"
     inkscape:zoom="1"
     inkscape:cx="648"
     inkscape:cy="137"
     inkscape:window-width="2560"
     inkscape:window-height="1355"
     inkscape:window-x="0"
     inkscape:window-y="0"
     inkscape:window-maximized="1"
     inkscape:current-layer="svg6881" /><g
     id="g965"
     inkscape:label="Middle Layer 10mm"
     transform="translate(-600.95008,0.04595043)"
     style="display:inline;fill:none;fill-opacity:1;fill-rule:evenodd;stroke-width:0.1;stroke-dasharray:none"
     inkscape:export-filename="g264-3.svg"
     inkscape:export-xdpi="96"
     inkscape:export-ydpi="96"><g
       id="g8605"
       inkscape:label="Top Panel"
       transform="matrix(-1,0,0,1,1588.0002,2.6440805e-8)"><path
         id="path8603"
         style="display:inline;fill:none;fill-opacity:1;fill-rule:evenodd;stroke:#ff0000;stroke-width:0.0919008;stroke-dasharray:none"
         inkscape:label="Top Panel"
         transform="translate(-1.1666667e-5)"
         d="M 987.00418,-5.1408989e-8 H 600.9961 L 600.99609,17.311971 c 0,-4.053083 3.31071,-7.3160337 7.42311,-7.3160337 h 371.16187 c 4.1124,0 7.42311,3.2629507 7.42311,7.3160337 z M 607.91235,4.9536667 a 2.4576271,2.4576271 0 0 1 -2.45763,2.457627 2.4576271,2.4576271 0 0 1 -2.45763,-2.457627 2.4576271,2.4576271 0 0 1 2.45763,-2.4576271 2.4576271,2.4576271 0 0 1 2.45763,2.4576271 z m 377.091,0 a 2.4576271,2.4576271 0 0 1 -2.45762,2.457627 2.4576271,2.4576271 0 0 1 -2.45763,-2.457627 2.4576271,2.4576271 0 0 1 2.45763,-2.4576271 2.4576271,2.4576271 0 0 1 2.45762,2.4576271 z" /></g></g></svg>
